<svg xmlns="http://www.w3.org/2000/svg" width="24" height="24" viewBox="0 0 24 24">
    <path d="M7.52,21.48A10.487,10.487,0,0,1,1.55,13H.05A11.994,11.994,0,0,0,12,24l.66-.03L8.85,20.16,7.52,21.48Zm.89-6.52a1.669,1.669,0,0,1-.52-.08,1.069,1.069,0,0,1-.4-.24.991.991,0,0,1-.26-.37,1.193,1.193,0,0,1-.09-.47H5.84a2.046,2.046,0,0,0,.21.95,2.211,2.211,0,0,0,.56.69,2.526,2.526,0,0,0,.82.41,3.016,3.016,0,0,0,.96.15,3.373,3.373,0,0,0,1.03-.15,2.438,2.438,0,0,0,.83-.44,1.978,1.978,0,0,0,.55-.72,2.336,2.336,0,0,0,.2-.97,2.1,2.1,0,0,0-.07-.56,1.67,1.67,0,0,0-.23-.51,1.8,1.8,0,0,0-.4-.43,2.056,2.056,0,0,0-.61-.31,2.1,2.1,0,0,0,.52-.33,2.067,2.067,0,0,0,.37-.42,1.762,1.762,0,0,0,.22-.46,1.594,1.594,0,0,0,.07-.48,2.417,2.417,0,0,0-.18-.96,1.78,1.78,0,0,0-.51-.69,2.057,2.057,0,0,0-.77-.43A3.645,3.645,0,0,0,8.39,8a2.954,2.954,0,0,0-1,.16,2.544,2.544,0,0,0-.79.45,2.248,2.248,0,0,0-.51.67,1.993,1.993,0,0,0-.18.85h1.3a1.063,1.063,0,0,1,.09-.45.94.94,0,0,1,.25-.34,1.185,1.185,0,0,1,.38-.22,1.464,1.464,0,0,1,.48-.08,1.147,1.147,0,0,1,.89.31,1.208,1.208,0,0,1,.29.86,1.525,1.525,0,0,1-.08.49.87.87,0,0,1-.25.37,1.268,1.268,0,0,1-.41.24,1.683,1.683,0,0,1-.58.09H7.5v1.03h.77a2.246,2.246,0,0,1,.6.07,1.2,1.2,0,0,1,.45.23,1.178,1.178,0,0,1,.29.4,1.417,1.417,0,0,1,.1.57,1.2,1.2,0,0,1-.35.93,1.281,1.281,0,0,1-.95.33Zm8.55-5.92a3.33,3.33,0,0,0-1.14-.77A3.762,3.762,0,0,0,14.36,8H12v8h2.3a4.059,4.059,0,0,0,1.51-.27,3.3,3.3,0,0,0,1.16-.76,3.375,3.375,0,0,0,.74-1.19,4.574,4.574,0,0,0,.26-1.57v-.4a4.574,4.574,0,0,0-.26-1.57,3.494,3.494,0,0,0-.75-1.2Zm-.39,3.16a4.368,4.368,0,0,1-.14,1.13,2.431,2.431,0,0,1-.43.85,1.869,1.869,0,0,1-.71.53,2.57,2.57,0,0,1-.99.18h-.91V9.12h.97A1.984,1.984,0,0,1,16,9.81a3.046,3.046,0,0,1,.57,1.99ZM12,0l-.66.03,3.81,3.81,1.33-1.33a10.47,10.47,0,0,1,5.96,8.48h1.5A11.977,11.977,0,0,0,12,0Z" fill="#808080"/>
</svg>