<svg data-v-345a3cfc="" viewBox="0 0 18 18" xmlns="http://www.w3.org/2000/svg" class=""><path data-v-345a3cfc="" d="M5.824 4c0-.796.334-1.559.93-2.121A3.274 3.274 0 019 1c.842 0 1.65.316 2.246.879.596.562.93 1.325.93 2.121s-.334 1.559-.93 2.121A3.274 3.274 0 019 7c-.842 0-1.65-.316-2.246-.879A2.918 2.918 0 015.824 4zM9 0C7.877 0 6.8.421 6.005 1.172A3.89 3.89 0 004.765 4a3.89 3.89 0 001.24 2.828A4.365 4.365 0 009 8c1.123 0 2.2-.421 2.995-1.172A3.89 3.89 0 0013.235 4a3.89 3.89 0 00-1.24-2.828A4.365 4.365 0 009 0zm5.908 12.15c1.186.82 1.938 2.24 2.023 4.85H1.069c.085-2.6.837-4.03 2.012-4.85C4.405 11.25 6.353 11 9 11s4.606.26 5.908 1.15zM9 10c-2.647 0-4.924.24-6.533 1.35C.815 12.48 0 14.43 0 17.5v.5h18v-.5c0-3.07-.815-5.02-2.467-6.15C13.923 10.25 11.647 10 9 10z" fill="inherit"></path></svg>