<svg width="20" height="15" viewBox="0 0 20 15" fill="none" xmlns="http://www.w3.org/2000/svg">
<path d="M3.92212 5.97937C3.92212 5.89622 3.92212 5.81055 3.92212 5.7274C3.98151 5.68204 3.99339 5.60393 4.0504 5.55353C4.43049 5.23353 4.80821 4.911 5.1883 4.58848C5.21206 4.56832 5.22394 4.54816 5.22869 4.5154C5.26907 4.22059 5.30946 3.9283 5.34984 3.63349C5.38072 3.42184 5.40686 3.20766 5.44724 2.99852C5.47812 2.84734 5.55652 2.71379 5.71093 2.68103C5.96749 2.62812 6.22643 2.59284 6.48299 2.55001C6.72055 2.50969 6.96048 2.46686 7.19804 2.42402C7.22655 2.41898 7.24555 2.40386 7.26456 2.37866C7.43798 2.14937 7.60664 1.91503 7.78956 1.69078C7.97248 1.46652 8.11026 1.19439 8.3597 1.03564C8.42384 1.03564 8.48561 1.03564 8.54975 1.03564C8.95359 1.21959 9.36695 1.37329 9.77555 1.53959C9.8777 1.58243 9.97985 1.65802 10.0962 1.58747C10.2127 1.51691 10.3433 1.47156 10.4692 1.4262C10.7994 1.30778 11.1201 1.16163 11.448 1.03564C11.5026 1.03564 11.5596 1.03564 11.6142 1.03564C11.6998 1.07848 11.7782 1.12887 11.8399 1.20699C12.0561 1.49172 12.2723 1.77897 12.4908 2.06118C12.6286 2.23756 12.7308 2.46686 12.9992 2.46434C13.0467 2.46434 13.0942 2.46938 13.1394 2.47693C13.4648 2.53237 13.7903 2.59284 14.1181 2.64576C14.2986 2.67599 14.4863 2.71631 14.5267 2.93301C14.6075 3.36136 14.6597 3.79728 14.7286 4.22815C14.75 4.35666 14.7286 4.50532 14.8308 4.60107C15.0018 4.75982 15.1895 4.89588 15.3605 5.05463C15.6028 5.2814 15.8974 5.44771 16.0803 5.74503C16.0803 5.82063 16.0803 5.89622 16.0803 5.97181C15.9758 6.17843 15.9164 6.40269 15.8428 6.61938C15.7953 6.75797 15.7549 6.90159 15.6955 7.0301C15.572 7.29215 15.4674 7.53909 15.6432 7.81878C15.6504 7.82886 15.6504 7.84146 15.6551 7.85406C15.7976 8.2421 15.9402 8.63014 16.0827 9.01817C16.0827 9.09377 16.0827 9.16936 16.0827 9.24495C16.0186 9.3155 15.9616 9.39614 15.8903 9.45913C15.5791 9.73126 15.2608 9.99331 14.9496 10.2654C14.8688 10.336 14.7595 10.3914 14.7595 10.5325C14.7595 10.5855 14.7429 10.6384 14.7334 10.6888C14.6716 11.0743 14.6146 11.4623 14.5647 11.8504C14.5315 12.1175 14.4222 12.2737 14.2012 12.314C13.7451 12.3946 13.2867 12.4677 12.8282 12.5408C12.7807 12.5483 12.745 12.566 12.7165 12.6012C12.5003 12.886 12.2913 13.1757 12.068 13.4554C11.9326 13.6268 11.8304 13.841 11.6166 13.9291C11.5454 13.9291 11.4741 13.9291 11.4028 13.9291C11.3957 13.8989 11.3672 13.8964 11.3482 13.8888C11.0251 13.7578 10.702 13.6243 10.3766 13.4983C10.196 13.4302 10.0226 13.269 9.81355 13.4202C9.79693 13.4328 9.77079 13.4403 9.75179 13.4479C9.50948 13.5512 9.2648 13.6495 9.02011 13.7502C8.8657 13.8132 8.70178 13.8435 8.5545 13.9266C8.49036 13.9266 8.42859 13.9266 8.36445 13.9266C8.30031 13.8662 8.21954 13.8309 8.1649 13.7553C7.89409 13.395 7.61852 13.0372 7.34295 12.6794C7.28356 12.6038 7.23368 12.5332 7.11727 12.5307C7.008 12.5307 6.89397 12.4979 6.78232 12.4803C6.45924 12.4274 6.13853 12.3644 5.81546 12.314C5.61828 12.2838 5.47337 12.1426 5.44249 11.931C5.42349 11.7924 5.40448 11.6538 5.3831 11.5152C5.34034 11.2255 5.30471 10.9357 5.25007 10.6484C5.23344 10.5577 5.2667 10.4494 5.1883 10.3788C4.97688 10.1924 4.7607 10.016 4.55165 9.82701C4.34022 9.63551 4.09079 9.48685 3.92212 9.23991C3.92212 9.15676 3.92212 9.07109 3.92212 8.98794C4.10266 8.49911 4.28083 8.01028 4.46375 7.52145C4.48276 7.47106 4.459 7.43326 4.44237 7.40806C4.39011 7.31735 4.38061 7.21152 4.33547 7.12333C4.25708 6.96963 4.21194 6.80333 4.1573 6.64206C4.08366 6.4304 4.01477 6.20111 3.92212 5.97937ZM7.72067 10.2982C7.72542 10.3688 7.72305 10.4191 7.7468 10.4721C7.88221 10.777 8.23855 10.8021 8.43334 10.5149C8.6519 10.1899 8.86807 9.85977 9.08663 9.53472C9.55462 8.84179 10.0226 8.14886 10.4906 7.45594C10.7875 7.01498 11.0845 6.57403 11.3814 6.13307C11.657 5.72236 11.9326 5.31164 12.2058 4.8984C12.3245 4.7195 12.2865 4.54312 12.1844 4.40453C12.0989 4.28863 11.8993 4.23823 11.7544 4.29367C11.6309 4.34154 11.5667 4.45745 11.5002 4.56328C10.9895 5.34944 10.4478 6.11292 9.93708 6.90159C9.75179 7.18884 9.55224 7.46602 9.35982 7.74823C8.84432 8.50163 8.33594 9.26007 7.82519 10.0185C7.76818 10.1042 7.70166 10.1924 7.72067 10.2982ZM10.0012 9.51204C9.96559 10.1193 10.5144 10.8021 11.2294 10.714C11.7995 10.6434 12.277 10.1949 12.2747 9.50196C12.2699 8.7914 11.7948 8.30509 11.1296 8.30005C10.4858 8.29753 9.98222 8.87203 10.0012 9.51204ZM8.85382 6.6849C9.48335 6.69498 10.0012 6.15827 9.99647 5.45527C9.99172 4.82533 9.52136 4.25587 8.85145 4.26847C8.20766 4.28107 7.7278 4.82785 7.71829 5.47038C7.70879 6.12048 8.25518 6.70757 8.85382 6.6849Z" fill="#D4803C"/>
<path d="M16.0803 9.0283C15.9377 8.64026 15.7952 8.25222 15.6527 7.86418C15.6479 7.85158 15.6479 7.83898 15.6408 7.8289C15.465 7.55173 15.5695 7.30228 15.6931 7.04022C15.7548 6.91172 15.7928 6.76809 15.8403 6.62951C15.9164 6.41281 15.9758 6.18603 16.0779 5.98193C16.0803 6.99487 16.0803 8.01032 16.0803 9.0283Z" fill="white"/>
<path d="M11.4503 1.04297C11.1225 1.16644 10.8018 1.3151 10.4716 1.43353C10.3481 1.47888 10.2174 1.52424 10.0986 1.59479C9.98222 1.66534 9.88245 1.58975 9.77792 1.54692C9.36932 1.38061 8.9536 1.22691 8.55212 1.04297C9.51898 1.04297 10.4835 1.04297 11.4503 1.04297Z" fill="white"/>
<path d="M8.55212 13.9392C8.69941 13.8536 8.86333 13.8259 9.01774 13.7629C9.26242 13.6621 9.50711 13.5638 9.74942 13.4605C9.7708 13.4504 9.79455 13.4454 9.81118 13.4328C10.0226 13.2816 10.1936 13.4429 10.3742 13.5109C10.6996 13.6344 11.0227 13.7679 11.3458 13.9014C11.3648 13.909 11.3933 13.9115 11.4004 13.9418C10.4526 13.9392 9.50236 13.9392 8.55212 13.9392Z" fill="white"/>
<path d="M3.92212 5.97949C4.01477 6.20123 4.08366 6.43053 4.15968 6.6573C4.21194 6.81857 4.25945 6.98487 4.33785 7.13857C4.38298 7.22676 4.39248 7.33259 4.44475 7.4233C4.459 7.45102 4.48513 7.4863 4.46613 7.53669C4.28321 8.023 4.10504 8.51435 3.92449 9.00318C3.92212 7.99528 3.92212 6.98739 3.92212 5.97949Z" fill="white"/>
<path d="M7.72064 10.298C7.69926 10.1947 7.76578 10.104 7.82517 10.0183C8.33354 9.2599 8.84429 8.50146 9.35979 7.74805C9.55221 7.46584 9.75176 7.18867 9.93706 6.90142C10.4454 6.11274 10.9871 5.34926 11.5002 4.56311C11.5691 4.4598 11.6308 4.34137 11.7544 4.29349C11.8993 4.23806 12.0988 4.28593 12.1844 4.40436C12.2865 4.54295 12.3245 4.71933 12.2057 4.89823C11.9325 5.31147 11.657 5.72218 11.3814 6.1329C11.0845 6.57386 10.7875 7.01481 10.4906 7.45576C10.0226 8.14869 9.55222 8.8391 9.0866 9.53455C8.86805 9.85959 8.65187 10.1897 8.43332 10.5147C8.23852 10.802 7.88218 10.7793 7.74678 10.4719C7.72539 10.419 7.72539 10.3661 7.72064 10.298Z" fill="#FAFAF9"/>
<path d="M10.0012 9.51183C9.98215 8.87182 10.4858 8.2948 11.1272 8.29984C11.7923 8.30488 12.2698 8.79119 12.2722 9.50175C12.277 10.1947 11.7995 10.6432 11.227 10.7137C10.5143 10.8019 9.96552 10.1191 10.0012 9.51183ZM10.7613 9.50679C10.7328 9.70333 10.9656 9.92255 11.1272 9.91247C11.3362 9.89987 11.5263 9.71089 11.5191 9.49923C11.512 9.28506 11.3291 9.09859 11.1272 9.10363C10.9086 9.10867 10.74 9.32285 10.7613 9.50679Z" fill="#FAFAF9"/>
<path d="M8.85373 6.6847C8.25509 6.7099 7.71108 6.12028 7.72058 5.47019C7.73008 4.82765 8.20995 4.28087 8.85373 4.26827C9.52365 4.25567 9.99401 4.82513 9.99876 5.45507C10.0011 6.15808 9.48326 6.69478 8.85373 6.6847ZM8.48077 5.48279C8.48077 5.702 8.64468 5.8809 8.84898 5.87838C9.06278 5.87586 9.22195 5.72972 9.23858 5.47019C9.25045 5.26357 9.05566 5.07711 8.8371 5.07207C8.65418 5.06955 8.44988 5.29381 8.48077 5.48279Z" fill="#FAFAF9"/>
<path d="M10.7614 9.50677C10.74 9.32283 10.9087 9.11117 11.1273 9.10362C11.3292 9.09858 11.5121 9.28504 11.5192 9.49921C11.5264 9.71087 11.3339 9.89985 11.1273 9.91245C10.9657 9.92253 10.7329 9.70079 10.7614 9.50677Z" fill="#D4803C"/>
<path d="M8.48076 5.48299C8.4475 5.29401 8.6518 5.06975 8.8371 5.07479C9.05565 5.07983 9.25045 5.26377 9.23857 5.47291C9.22194 5.72992 9.06278 5.87859 8.84897 5.88111C8.64705 5.87859 8.48313 5.70221 8.48076 5.48299Z" fill="#D4803C"/>
</svg>
