<svg viewBox="0 0 20 20" xmlns="http://www.w3.org/2000/svg">
<path d="M8.463 5.80958C8.4316 5.73335 8.38184 5.66606 8.31814 5.61371C8.25445 5.56137 8.1788 5.52558 8.09793 5.50955C8.01706 5.49351 7.93348 5.49772 7.85463 5.52181C7.77578 5.54589 7.70411 5.58909 7.646 5.64758L3.646 9.64758C3.59944 9.69402 3.56249 9.7492 3.53729 9.80994C3.51208 9.87069 3.49911 9.93581 3.49911 10.0016C3.49911 10.0673 3.51208 10.1325 3.53729 10.1932C3.56249 10.254 3.59944 10.3091 3.646 10.3556L7.646 14.3556C7.73989 14.4495 7.86722 14.5022 8 14.5022C8.13278 14.5022 8.26011 14.4495 8.354 14.3556C8.44789 14.2617 8.50063 14.1344 8.50063 14.0016C8.50063 13.8688 8.44789 13.7415 8.354 13.6476L5.207 10.5016H16C16.1326 10.5016 16.2598 10.4489 16.3536 10.3551C16.4473 10.2614 16.5 10.1342 16.5 10.0016C16.5 9.86897 16.4473 9.74179 16.3536 9.64802C16.2598 9.55426 16.1326 9.50158 16 9.50158H5.207L8.354 6.35558C8.42425 6.28563 8.47212 6.19637 8.49153 6.09915C8.51094 6.00193 8.50101 5.90114 8.463 5.80958Z" fill="inherit"/>
</svg>
