<svg width="40" height="40" viewBox="0 0 40 40" fill="none" xmlns="http://www.w3.org/2000/svg">
<rect width="40" height="40" rx="20" fill="white"/>
<path d="M14.7012 17.2598L20.0012 20.3298L25.2612 17.2798" stroke="black" stroke-width="1.5" stroke-linecap="round" stroke-linejoin="round"/>
<path d="M20.002 25.7703V20.3203" stroke="black" stroke-width="1.5" stroke-linecap="round" stroke-linejoin="round"/>
<path d="M14.2305 18.3001C14.2305 17.4701 14.8204 16.4601 15.5504 16.0601L18.7505 14.2801C19.4305 13.9001 20.5504 13.9001 21.2404 14.2801L24.4405 16.0601C25.1605 16.4601 25.7605 17.4701 25.7605 18.3001V21.6901C25.7605 22.5201 25.1705 23.5301 24.4405 23.9301L21.2404 25.7101C20.5604 26.0901 19.4405 26.0901 18.7505 25.7101L15.5504 23.9301C15.1904 23.7301 14.8604 23.3801 14.6204 22.9701" stroke="black" stroke-width="1.5" stroke-linecap="round" stroke-linejoin="round"/>
<path d="M30 23C30 26.87 26.87 30 23 30L24.05 28.25" stroke="black" stroke-width="1.5" stroke-linecap="round" stroke-linejoin="round"/>
<path d="M10 17C10 13.13 13.13 10 17 10L15.95 11.75" stroke="black" stroke-width="1.5" stroke-linecap="round" stroke-linejoin="round"/>
</svg>
