<?xml version="1.0" encoding="UTF-8"?>
<svg width="25px" height="25px" viewBox="0 0 25 25" version="1.1" xmlns="http://www.w3.org/2000/svg" xmlns:xlink="http://www.w3.org/1999/xlink">
    <title>calendar</title>
    <g id="sikha-mehta" stroke="none" stroke-width="1" fill="none" fill-rule="evenodd">
        <g id="PDP-page-theme" transform="translate(-826.000000, -508.000000)" fill="#000000" fill-rule="nonzero">
            <g id="calendar" transform="translate(826.000000, 508.000000)">
                <path d="M21.5485201,11.0501057 L21.5485201,4.00861522 C21.5485201,2.79360465 20.4716173,1.93757928 19.2566068,1.93757928 L17.4065011,1.93757928 L17.4065011,0.446511628 C17.4395877,0.235570825 17.2954017,0.0377906977 17.0844609,0.00470401691 C17.0447674,-0.00153276956 17.004334,-0.00153276956 16.9646934,0.00470401691 L14.3413848,0.00470401691 C14.0376321,0.00470401691 13.8167019,0.142758985 13.8167019,0.446511628 L13.8167019,1.93763214 L7.74175476,1.93763214 L7.74175476,0.446511628 C7.74175476,0.142758985 7.38276956,0.00470401691 7.07901691,0.00470401691 L4.45570825,0.00470401691 C4.1519556,0.00470401691 3.87584567,0.142758985 3.87584567,0.446511628 L3.87584567,1.93763214 L2.19143763,1.93763214 C0.976427061,1.93763214 0.00998942918,2.79365751 0.00998942918,4.00866808 L0.00998942918,20.0245243 C0.00998942918,21.2395349 0.976479915,22.0955603 2.19143763,22.0955603 L11.4143763,22.0955603 C14.0292283,25.3744715 18.8070825,25.9128436 22.0859937,23.2979915 C23.8817125,21.8659619 24.9328224,19.6980444 24.9450317,17.4012685 C24.9002643,14.8610994 23.6363108,12.4976216 21.5485201,11.0501057 Z M14.9213002,1.10919662 L16.3019556,1.10919662 L16.3019556,3.59439746 L14.9213002,3.59439746 L14.9213002,1.10919662 Z M4.98039112,1.10919662 L6.6372093,1.10919662 L6.6372093,3.59439746 L4.98039112,3.59439746 L4.98039112,1.10919662 Z M1.11448203,4.00861522 C1.11448203,3.40110994 1.58393235,3.04212474 2.19143763,3.04212474 L3.87584567,3.04212474 L3.87584567,4.09143763 C3.88858351,4.41109937 4.13705074,4.67135307 4.45570825,4.69894292 L7.07901691,4.69894292 C7.41506342,4.6769556 7.69064482,4.4243129 7.74175476,4.09143763 L7.74175476,3.04217759 L13.8167548,3.04217759 L13.8167548,4.09149049 C13.8005814,4.40184989 14.0319767,4.6698203 14.3414376,4.69899577 L16.9647463,4.69899577 C17.2684989,4.69899577 17.4065539,4.39524313 17.4065539,4.09149049 L17.4065539,3.04217759 L19.2566596,3.04217759 C19.8641649,3.04217759 20.4440275,3.40116279 20.4440275,4.00866808 L20.4440275,7.46035941 L1.11448203,7.46035941 L1.11448203,4.00861522 Z M2.19143763,20.9910148 C1.58393235,20.9910148 1.11448203,20.6320296 1.11448203,20.0245243 L1.11448203,8.56485201 L20.4439746,8.56485201 L20.4439746,10.4701903 C19.4737844,10.0561311 18.4334567,9.83123679 17.3788584,9.80745243 C13.1849366,9.81252643 9.78921776,13.2164376 9.79429175,17.4103594 C9.79582452,18.6599366 10.1056554,19.8897992 10.6963531,20.9910148 L2.19143763,20.9910148 L2.19143763,20.9910148 Z M17.3236786,23.8628505 C13.739852,23.8780127 10.8221987,20.9850423 10.8069169,17.4012156 C10.7917548,13.817389 13.6847252,10.8997357 17.2685518,10.8844539 C20.8523784,10.8692918 23.7700317,13.7622622 23.7852933,17.3460888 C23.7852933,17.364482 23.7852933,17.3828224 23.7852933,17.4012156 C23.7852933,20.9698732 20.8922833,23.8628505 17.3236786,23.8628505 Z" id="Shape"></path>
                <path d="M19.9193446,17.4012156 L17.4065011,17.4012156 L17.4065011,14.0875793 C17.4065011,13.7825581 17.1592495,13.5353066 16.8542283,13.5353066 C16.5492072,13.5353066 16.3019556,13.7825581 16.3019556,14.0875793 L16.3019556,17.9534884 C16.3563953,18.2758457 16.6377907,18.5103066 16.9646934,18.5057611 L19.9193446,18.5057611 C20.2243658,18.5057611 20.4716173,18.2585095 20.4716173,17.9534884 C20.4716173,17.6484672 20.2243658,17.4012156 19.9193446,17.4012156 Z" id="Path"></path>
            </g>
        </g>
    </g>
</svg>