<svg width="11" height="14" viewBox="0 0 11 14" fill="none" xmlns="http://www.w3.org/2000/svg">
<path d="M10.5505 13.281C10.5143 13.319 10.4708 13.3491 10.4226 13.3696C10.3744 13.3901 10.3225 13.4005 10.2701 13.4001H0.690191C0.637821 13.4005 0.585922 13.3901 0.537699 13.3697C0.489476 13.3492 0.445954 13.319 0.409819 13.281C0.37194 13.2448 0.34186 13.2012 0.321431 13.1529C0.301002 13.1046 0.290655 13.0526 0.291027 13.0001V3.40009C0.290617 3.34761 0.300947 3.29561 0.321379 3.24728C0.34181 3.19896 0.37191 3.15535 0.409819 3.11914C0.445977 3.08118 0.489504 3.05103 0.537722 3.03056C0.585939 3.01009 0.637826 2.99972 0.690191 3.0001H3.08518C3.08518 2.34218 3.3202 1.77706 3.79026 1.30666C4.25968 0.836257 4.82361 0.600098 5.48016 0.600098C6.1367 0.600098 6.70064 0.835617 7.17006 1.30666C7.63948 1.7777 7.87514 2.34218 7.87514 3.0001H10.2701C10.3225 2.99968 10.3744 3.01004 10.4226 3.03051C10.4708 3.05098 10.5144 3.08115 10.5505 3.11914C10.5884 3.15537 10.6185 3.19899 10.6389 3.24731C10.6593 3.29562 10.6697 3.34762 10.6693 3.40009V13.0001C10.6696 13.0525 10.6592 13.1045 10.6387 13.1528C10.6183 13.2011 10.5883 13.2447 10.5505 13.281ZM9.87032 3.80009H7.8745V5.40009C7.87499 5.45258 7.86469 5.50461 7.84426 5.55295C7.82382 5.60128 7.79368 5.64489 7.75571 5.68105C7.67652 5.76041 7.58264 5.80009 7.47534 5.80009C7.36804 5.80009 7.27416 5.76041 7.19497 5.68105C7.15706 5.64484 7.12696 5.60123 7.10653 5.5529C7.0861 5.50458 7.07577 5.45257 7.07618 5.40009V3.80009H3.88286V5.40009C3.88335 5.45258 3.87305 5.50461 3.85262 5.55295C3.83218 5.60128 3.80204 5.64489 3.76407 5.68105C3.68488 5.76041 3.591 5.80009 3.4837 5.80009C3.37641 5.80009 3.28252 5.76041 3.20333 5.68105C3.16542 5.64484 3.13532 5.60123 3.11489 5.5529C3.09446 5.50458 3.08413 5.45257 3.08454 5.40009V3.80009H1.08872V12.6001H9.87032V3.80009ZM4.351 1.86858C4.19997 2.01512 4.0805 2.19113 3.99998 2.38575C3.91947 2.58036 3.87961 2.78944 3.88286 3.0001H7.07618C7.07618 2.5585 6.92034 2.18154 6.60868 1.86858C6.29701 1.55562 5.92084 1.4001 5.47952 1.4001C5.0382 1.4001 4.66267 1.55626 4.351 1.86858Z" fill="white"/>
</svg>
