<svg xmlns="http://www.w3.org/2000/svg" width="50" height="50" viewBox="0 0 50 50"><defs><style>.a{fill:#41434c;}.b{fill:#e4e5e6;}</style></defs><g transform="translate(-108 -112)"><path class="a" d="M25,0A25,25,0,1,1,0,25,25,25,0,0,1,25,0Z" transform="translate(108 112)"/><g transform="translate(-281 -375.325)"><path class="b" d="M727.7,789.27a5.78,5.78,0,1,1,5.78-5.78A5.786,5.786,0,0,1,727.7,789.27Zm0-10.44a4.66,4.66,0,1,0,4.66,4.66A4.665,4.665,0,0,0,727.7,778.83Z" transform="translate(-314.32 -270.835)"/><path class="b" d="M424.514,522.35H402.249A2.251,2.251,0,0,1,400,520.1V506.563a2.252,2.252,0,0,1,2.249-2.249h3.544l.993-2.555a2.235,2.235,0,0,1,2.1-1.434h9a2.235,2.235,0,0,1,2.1,1.434l.994,2.555h3.544a2.252,2.252,0,0,1,2.249,2.249V520.1A2.252,2.252,0,0,1,424.514,522.35Zm-22.264-16.916a1.13,1.13,0,0,0-1.129,1.129V520.1a1.13,1.13,0,0,0,1.129,1.129h22.264a1.13,1.13,0,0,0,1.129-1.129V506.563a1.13,1.13,0,0,0-1.129-1.129h-3.927a.56.56,0,0,1-.522-.357l-1.132-2.912a1.122,1.122,0,0,0-1.052-.72h-9a1.122,1.122,0,0,0-1.052.72l-1.132,2.912a.56.56,0,0,1-.522.357Z" transform="translate(0 0)"/><g transform="translate(0 -15)"><circle class="a" cx="5.999" cy="5.999" r="5.999" transform="translate(418.139 513.726)"/><path class="b" d="M1151.042,1057.275a6.559,6.559,0,1,1,6.558-6.559A6.566,6.566,0,0,1,1151.042,1057.275Zm0-12a5.439,5.439,0,1,0,5.439,5.438A5.445,5.445,0,0,0,1151.042,1045.278Z" transform="translate(-726.904 -530.992)"/><path class="b" d="M1295.29,1191.315h-1.12v2.524h-2.524v1.12h2.524v2.524h1.12v-2.524h2.524v-1.12h-2.524Z" transform="translate(-870.592 -674.674)"/></g></g></g></svg>