<svg width="21" height="20" viewBox="0 0 21 20" fill="none" xmlns="http://www.w3.org/2000/svg"><path d="M11.611 6.389a.278.278 0 01-.154-.509c.724-.483.782-1.066.85-1.741.07-.712.152-1.52 1.094-2.148a.278.278 0 01.309.462c-.725.483-.783 1.066-.85 1.741-.072.713-.152 1.52-1.095 2.148a.278.278 0 01-.154.047z" fill="#4793EB"></path><path d="M14.667 9.444a.278.278 0 01-.05-.55c.028-.006 2.893-.55 3.394-2.304a.278.278 0 11.534.153c-.596 2.086-3.697 2.673-3.828 2.697a.278.278 0 01-.05.004z" fill="#ED5F5F"></path><path d="M14.662 6.959l-.468.009a.257.257 0 01-.247-.345l.16-.44-.153-.443a.257.257 0 01.252-.342l.469.017.373-.282a.257.257 0 01.403.134l.128.45.385.268a.258.258 0 01-.004.425l-.389.261-.136.449a.258.258 0 01-.404.128l-.369-.29z" fill="#FED200"></path><path d="M16.194 10.556a.417.417 0 100-.834.417.417 0 000 .834z" fill="#4793EB"></path><path d="M18.278 10.556a.278.278 0 100-.556.278.278 0 000 .556z" fill="#FED200"></path><path d="M15.222 3.333a.278.278 0 100-.555.278.278 0 000 .555z" fill="#ED5F5F"></path><path d="M17.722 3.611a.278.278 0 100-.556.278.278 0 000 .556zm-7.639.833a.417.417 0 100-.833.417.417 0 000 .833z" fill="#FED200"></path><path d="M10.5 2.5a.278.278 0 100-.555.278.278 0 000 .555z" fill="#ED5F5F"></path><path d="M6.72 5.17l8.613 8.614-11.39 4.2a1.111 1.111 0 01-1.427-1.427L6.719 5.171z" fill="#FED200"></path><path d="M12.425 14.855l-1.595.59A26.636 26.636 0 017.34 5.788l2.155 2.155a25.451 25.451 0 002.931 6.911zM9.053 16.1l-1.59.583a26.843 26.843 0 01-2.577-6.544l1.13-3.061A25.115 25.115 0 009.054 16.1zm-3.345 1.23l-1.58.584a27.316 27.316 0 01-1.156-2.586l.922-2.503a25.624 25.624 0 001.814 4.506z" fill="#FD9B02"></path><path d="M15.447 13.695c.65-.65-.757-3.113-3.143-5.5-2.387-2.386-4.849-3.793-5.5-3.142-.65.65.756 3.113 3.143 5.5 2.386 2.386 4.849 3.793 5.5 3.142z" fill="#FF7302"></path></svg>