<svg width="24" height="24" viewBox="0 0 24 24" fill="none" xmlns="http://www.w3.org/2000/svg">
<rect width="24" height="24" rx="12" fill="#D9D9D9"/>
<rect x="5" y="5" width="14" height="14" rx="7" fill="#404040"/>
<path fill-rule="evenodd" clip-rule="evenodd" d="M12 1C5.92487 1 1 5.92487 1 12C1 18.0751 5.92487 23 12 23C18.0751 23 23 18.0751 23 12C23 5.92487 18.0751 1 12 1ZM14.9168 8.82467C14.9234 8.81649 14.9304 8.80873 14.9379 8.80145C15.0856 8.65502 15.2849 8.57261 15.4928 8.57203C15.7006 8.57146 15.9004 8.65277 16.0488 8.79838C16.1973 8.94399 16.2825 9.14221 16.286 9.35017C16.2895 9.55814 16.2111 9.75914 16.0678 9.90973L11.8566 15.1767C11.7842 15.2545 11.6969 15.317 11.5999 15.3604C11.5029 15.4037 11.3981 15.4271 11.2919 15.429C11.1857 15.431 11.0802 15.4116 10.9816 15.3718C10.8831 15.3321 10.7935 15.2729 10.7183 15.1978L7.92703 12.4039C7.78728 12.2538 7.71119 12.0553 7.71481 11.8503C7.71843 11.6452 7.80146 11.4495 7.94642 11.3045C8.09138 11.1594 8.28694 11.0763 8.49191 11.0727C8.69688 11.0691 8.89525 11.1452 9.04523 11.2851L11.2532 13.4953L14.9168 8.82467Z" fill="white"/>
</svg>
