<svg viewBox="0 0 26 26" xmlns="http://www.w3.org/2000/svg">
<rect x="4" y="4" width="18" height="18" rx="2" fill="inherit"/>
<path d="M16.5134 9.59849C16.6754 9.44342 16.891 9.3577 17.1147 9.3594C17.3384 9.3611 17.5526 9.4501 17.7123 9.60761C17.8719 9.76512 17.9645 9.97883 17.9704 10.2036C17.9763 10.4284 17.8951 10.6468 17.744 10.8125L13.1553 16.5822C13.0764 16.6677 12.9812 16.7362 12.8753 16.7838C12.7694 16.8314 12.6551 16.8571 12.5392 16.8592C12.4232 16.8614 12.308 16.84 12.2005 16.7964C12.0929 16.7528 11.9952 16.6878 11.9132 16.6053L8.87023 13.5459C8.78549 13.4665 8.71752 13.3708 8.67037 13.2644C8.62323 13.158 8.59788 13.0432 8.59584 12.9268C8.59379 12.8103 8.6151 12.6947 8.65848 12.5867C8.70186 12.4787 8.76643 12.3806 8.84833 12.2983C8.93024 12.2159 9.0278 12.151 9.1352 12.1074C9.2426 12.0638 9.35764 12.0424 9.47345 12.0444C9.58927 12.0465 9.70348 12.072 9.80928 12.1194C9.91509 12.1668 10.0103 12.2351 10.0893 12.3203L12.4975 14.7403L16.4916 9.62393C16.4988 9.61503 16.5065 9.60653 16.5146 9.59849H16.5134Z" fill="white"/>
</svg>
