<?xml version="1.0" encoding="UTF-8"?>
<svg xmlns="http://www.w3.org/2000/svg" xmlns:xlink="http://www.w3.org/1999/xlink" width="32px" height="32px" viewBox="0 0 32 32" version="1.1">
<g id="surface1">
<path style=" stroke:none;fill-rule:nonzero;fill:rgb(100%,100%,100%);fill-opacity:1;" d="M 0.167969 29.332031 L 0.167969 2.667969 C 0.167969 1.285156 1.285156 0.167969 2.667969 0.167969 L 29.332031 0.167969 C 30.714844 0.167969 31.832031 1.285156 31.832031 2.667969 L 31.832031 29.332031 C 31.832031 30.714844 30.714844 31.832031 29.332031 31.832031 L 2.667969 31.832031 C 1.285156 31.832031 0.167969 30.714844 0.167969 29.332031 Z M 0.167969 29.332031 "/>
<path style=" stroke:none;fill-rule:nonzero;fill:rgb(14.901961%,10.196078%,10.196078%);fill-opacity:1;" d="M 19.648438 20.355469 C 19.84375 20.550781 20.160156 20.550781 20.355469 20.355469 C 20.550781 20.160156 20.550781 19.84375 20.355469 19.648438 L 16.625 15.917969 L 20.359375 12.1875 C 20.554688 11.992188 20.554688 11.675781 20.359375 11.480469 C 20.164062 11.285156 19.847656 11.285156 19.652344 11.480469 L 15.917969 15.210938 L 12.1875 11.480469 C 11.992188 11.285156 11.675781 11.285156 11.480469 11.480469 C 11.285156 11.675781 11.285156 11.992188 11.480469 12.1875 L 15.210938 15.917969 L 11.480469 19.652344 C 11.285156 19.847656 11.285156 20.164062 11.480469 20.359375 C 11.675781 20.554688 11.992188 20.554688 12.1875 20.359375 L 15.917969 16.625 Z M 19.648438 20.355469 "/>
<path style="fill:none;stroke-width:0.5;stroke-linecap:butt;stroke-linejoin:miter;stroke:rgb(49.019608%,46.27451%,46.27451%);stroke-opacity:1;stroke-miterlimit:4;" d="M 4.001953 47.751953 L 43.998047 47.751953 C 46.072266 47.751953 47.748047 49.427734 47.748047 51.501953 L 47.748047 91.498047 C 47.748047 93.572266 46.072266 95.248047 43.998047 95.248047 L 4.001953 95.248047 C 1.927734 95.248047 0.251953 93.572266 0.251953 91.498047 L 0.251953 51.501953 C 0.251953 49.427734 1.927734 47.751953 4.001953 47.751953 Z M 4.001953 47.751953 " transform="matrix(0.000000000000000041,-0.666667,0.666667,0.000000000000000041,-31.666667,32)"/>
</g>
</svg>
