<svg xmlns="http://www.w3.org/2000/svg" xmlns:xlink="http://www.w3.org/1999/xlink" width="25pt" height="25pt" viewBox="0 0 25 25" version="1.1">
<g id="surface1">
<path style=" stroke:none;fill-rule:nonzero;fill:rgb(0%,0%,0%);fill-opacity:1;" d="M 22.699219 4.707031 L 18.722656 4.707031 L 18.722656 0.734375 C 18.722656 0.328125 18.394531 0 17.992188 0 L 2.300781 0 C 1.898438 0 1.570312 0.328125 1.570312 0.734375 L 1.570312 19.5625 C 1.570312 19.964844 1.898438 20.292969 2.300781 20.292969 L 6.277344 20.292969 L 6.277344 24.265625 C 6.277344 24.671875 6.605469 25 7.007812 25 L 22.699219 25 C 23.101562 25 23.429688 24.671875 23.429688 24.265625 L 23.429688 5.4375 C 23.429688 5.035156 23.101562 4.707031 22.699219 4.707031 Z M 3.035156 18.828125 L 3.035156 1.464844 L 17.257812 1.464844 L 17.257812 5.425781 C 17.257812 5.429688 17.257812 5.433594 17.257812 5.4375 C 17.257812 5.445312 17.257812 5.449219 17.257812 5.453125 L 17.257812 18.828125 Z M 21.964844 23.535156 L 7.742188 23.535156 L 7.742188 20.292969 L 17.992188 20.292969 C 18.394531 20.292969 18.722656 19.964844 18.722656 19.5625 L 18.722656 6.171875 L 21.964844 6.171875 Z M 21.964844 23.535156 "/>
</g>
</svg>
