<svg width="24" height="24" viewBox="0 0 24 24" xmlns="http://www.w3.org/2000/svg">
<g id="prefix__assets" stroke="none" stroke-width="1" fill="none" fill-rule="evenodd" stroke-linecap="round" stroke-linejoin="round">
    <g id="prefix__coupon" stroke="#41434C">
    <g id="prefix__Imported-Layers" transform="translate(2 2)">
        <path d="M19.476 11.945L8.042.51C7.623.09 6.915.12 6.459.576l-1.61 1.61c.5.345.826.92.826 1.573a1.917 1.917 0 0 1-3.49 1.092L.621 6.414C.167 6.869.137 7.577.555 7.996L11.99 19.43c.418.418 1.127.389 1.583-.067l1.477-1.477a1.912 1.912 0 0 1-.79-1.549 1.917 1.917 0 0 1 3.465-1.126l1.686-1.686c.454-.454.484-1.163.065-1.581h0z" id="prefix__Stroke-1"></path>
        <path id="prefix__Stroke-2" d="M6.053 9.461l4.8 4.8 3.515-3.516-4.8-4.8-3.515 3.516"></path>
    </g>
    </g>
</g>
</svg>