<svg width="14" height="12" viewBox="0 0 14 12" xmlns="http://www.w3.org/2000/svg">
<path d="M13.96 5.81684L12.46 2.30903C12.4217 2.21845 12.3577 2.14117 12.2759 2.08681C12.1941 2.03246 12.0981 2.00343 12 2.00335H10.5V1.00112C10.5 0.868212 10.4473 0.740751 10.3536 0.646774C10.2598 0.552796 10.1326 0.5 10 0.5H0.5C0.367392 0.5 0.240215 0.552796 0.146447 0.646774C0.0526784 0.740751 0 0.868212 0 1.00112V9.52009C0 9.65299 0.0526784 9.78046 0.146447 9.87443C0.240215 9.96841 0.367392 10.0212 0.5 10.0212H1.57C1.68514 10.4458 1.9365 10.8207 2.2853 11.0879C2.6341 11.3552 3.06095 11.5 3.5 11.5C3.93905 11.5 4.3659 11.3552 4.7147 11.0879C5.0635 10.8207 5.31486 10.4458 5.43 10.0212H8.57C8.68514 10.4458 8.9365 10.8207 9.2853 11.0879C9.6341 11.3552 10.0609 11.5 10.5 11.5C10.9391 11.5 11.3659 11.3552 11.7147 11.0879C12.0635 10.8207 12.3149 10.4458 12.43 10.0212H13.5C13.6326 10.0212 13.7598 9.96841 13.8536 9.87443C13.9473 9.78046 14 9.65299 14 9.52009V6.01228C13.9999 5.9451 13.9863 5.87864 13.96 5.81684ZM10.5 3.00558H11.67L12.74 5.51116H10.5V3.00558ZM3.5 10.5223C3.30222 10.5223 3.10888 10.4635 2.94443 10.3534C2.77998 10.2433 2.65181 10.0868 2.57612 9.90363C2.50043 9.72049 2.48063 9.51898 2.51921 9.32456C2.5578 9.13015 2.65304 8.95157 2.79289 8.81141C2.93275 8.67124 3.11093 8.57579 3.30491 8.53712C3.49889 8.49844 3.69996 8.51829 3.88268 8.59415C4.06541 8.67 4.22159 8.79846 4.33147 8.96328C4.44135 9.1281 4.5 9.32187 4.5 9.52009C4.5 9.7859 4.39464 10.0408 4.20711 10.2288C4.01957 10.4167 3.76522 10.5223 3.5 10.5223ZM8.57 9.01897H5.43C5.31486 8.59434 5.0635 8.21948 4.7147 7.95223C4.3659 7.68498 3.93905 7.54018 3.5 7.54018C3.06095 7.54018 2.6341 7.68498 2.2853 7.95223C1.9365 8.21948 1.68514 8.59434 1.57 9.01897H1V1.50223H9.5V7.79625C9.27232 7.92869 9.07297 8.10487 8.91338 8.31469C8.75379 8.52452 8.6371 8.76385 8.57 9.01897ZM10.5 10.5223C10.3022 10.5223 10.1089 10.4635 9.94443 10.3534C9.77998 10.2433 9.65181 10.0868 9.57612 9.90363C9.50043 9.72049 9.48063 9.51898 9.51921 9.32456C9.5578 9.13015 9.65304 8.95157 9.79289 8.81141C9.93275 8.67124 10.1109 8.57579 10.3049 8.53712C10.4989 8.49844 10.7 8.51829 10.8827 8.59415C11.0654 8.67 11.2216 8.79846 11.3315 8.96328C11.4414 9.1281 11.5 9.32187 11.5 9.52009C11.5 9.7859 11.3946 10.0408 11.2071 10.2288C11.0196 10.4167 10.7652 10.5223 10.5 10.5223ZM13 9.01897H12.43C12.3194 8.58978 12.07 8.20942 11.7208 7.93741C11.3716 7.66539 10.9423 7.51706 10.5 7.51563V6.51339H13V9.01897Z" fill="currentcolor"/>
</svg>
