<svg xmlns="http://www.w3.org/2000/svg" xmlns:xlink="http://www.w3.org/1999/xlink" width="25pt" height="25pt" viewBox="0 0 25 25" version="1.1">
<g id="surface1">
<path style=" stroke:none;fill-rule:nonzero;fill:rgb(12.941176%,58.823529%,95.294118%);fill-opacity:1;" d="M 2.605469 0 L 22.394531 0 C 23.835938 0 25 1.164062 25 2.605469 L 25 22.394531 C 25 23.835938 23.835938 25 22.394531 25 L 2.605469 25 C 1.164062 25 0 23.835938 0 22.394531 L 0 2.605469 C 0 1.164062 1.164062 0 2.605469 0 Z M 2.605469 0 "/>
<path style=" stroke:none;fill-rule:nonzero;fill:rgb(98.039216%,98.039216%,98.039216%);fill-opacity:1;" d="M 19.269531 7.292969 L 21.355469 7.292969 C 21.640625 7.292969 21.875 7.058594 21.875 6.769531 L 21.875 3.644531 C 21.875 3.359375 21.640625 3.125 21.355469 3.125 L 19.269531 3.125 C 16.105469 3.125 13.542969 5.691406 13.542969 8.855469 L 13.542969 11.457031 L 10.9375 11.457031 C 10.648438 11.457031 10.417969 11.691406 10.417969 11.980469 L 10.417969 15.105469 C 10.417969 15.390625 10.648438 15.625 10.9375 15.625 L 13.542969 15.625 L 13.542969 25 L 17.707031 25 L 17.707031 15.625 L 20.3125 15.625 C 20.535156 15.625 20.734375 15.480469 20.804688 15.269531 L 21.847656 12.144531 C 21.9375 11.871094 21.792969 11.574219 21.519531 11.484375 C 21.464844 11.46875 21.410156 11.457031 21.355469 11.457031 L 17.707031 11.457031 L 17.707031 8.855469 C 17.707031 7.992188 18.40625 7.292969 19.269531 7.292969 Z M 19.269531 7.292969 "/>
</g>
</svg>
