<svg width="28" height="28" viewBox="0 0 28 28" fill="none" xmlns="http://www.w3.org/2000/svg">
    <g clip-path="url(#clip0_10683_104859)">
        <path fill-rule="evenodd" clip-rule="evenodd"
            d="M12.348 15.7024V11.2064L16.6704 13.4624L12.348 15.7024ZM21.84 10.428C21.84 10.428 21.684 9.3248 21.204 8.8392C20.596 8.2024 19.9136 8.1992 19.6008 8.1616C17.3624 8 14.0032 8 14.0032 8H13.9968C13.9968 8 10.6384 8 8.3992 8.1616C8.0864 8.1992 7.4048 8.2016 6.796 8.8392C6.316 9.3248 6.16 10.428 6.16 10.428C6.16 10.428 6 11.7224 6 13.0176V14.2312C6 15.5256 6.16 16.8208 6.16 16.8208C6.16 16.8208 6.316 17.9232 6.796 18.4088C7.404 19.0464 8.204 19.0256 8.56 19.0928C9.84 19.2152 14 19.2528 14 19.2528C14 19.2528 17.3624 19.248 19.6008 19.0864C19.9136 19.0488 20.596 19.0464 21.204 18.4088C21.684 17.9232 21.84 16.8208 21.84 16.8208C21.84 16.8208 22 15.5256 22 14.2312V13.0176C22 11.7224 21.84 10.428 21.84 10.428Z"
            fill="none" />
        <path
            d="M13.9996 27.6496C21.5383 27.6496 27.6496 21.5383 27.6496 13.9996C27.6496 6.46092 21.5383 0.349609 13.9996 0.349609C6.46092 0.349609 0.349609 6.46092 0.349609 13.9996C0.349609 21.5383 6.46092 27.6496 13.9996 27.6496Z"
            stroke="none" stroke-width="0.7" />
    </g>
    <defs>
        <clipPath id="clip0_10683_104859">
            <rect width="28" height="28" fill="none" />
        </clipPath>
    </defs>
</svg>