<svg width="28" height="28" viewBox="0 0 28 28" fill="none"
    xmlns="http://www.w3.org/2000/svg">
    <g>
        <path d="M11.3 9.69424H16.9C18.2466 9.69424 19.35 10.7972 19.35 12.1442V17.7442C19.35 19.0908 18.2466 20.1942 16.9 20.1942H11.3C9.95344 20.1942 8.85 19.0908 8.85 17.7442V12.1442C8.85 10.7972 9.95339 9.69424 11.3 9.69424ZM11.4166 14.9444C11.4166 16.426 12.6178 17.6277 14.1 17.6277C15.5816 17.6277 16.7834 16.4261 16.7834 14.9444C16.7834 13.4623 15.5815 12.2611 14.1 12.2611C12.6179 12.2611 11.4166 13.4623 11.4166 14.9444ZM16.0834 11.9111C16.0834 12.4908 16.553 12.9611 17.1334 12.9611C17.7138 12.9611 18.1834 12.4908 18.1834 11.9111C18.1834 11.3314 17.7138 10.8611 17.1334 10.8611C16.553 10.8611 16.0834 11.3314 16.0834 11.9111Z" fill="none" stroke="none" stroke-width="0.7"/>
        <path d="M14.1031 28.5944C21.6418 28.5944 27.7531 22.4831 27.7531 14.9444C27.7531 7.40575 21.6418 1.29443 14.1031 1.29443C6.56444 1.29443 0.453125 7.40575 0.453125 14.9444C0.453125 22.4831 6.56444 28.5944 14.1031 28.5944Z" stroke="none" stroke-width="0.7"/>
    </g>
    <defs>
        <clipPath id="clip0_9862_4228">
            <rect width="28" height="28" fill="none" transform="translate(0.101562 0.944336)"/>
        </clipPath>
    </defs>
</svg>
