<svg width="28" height="28" viewBox="0 0 28 28" fill="none" xmlns="http://www.w3.org/2000/svg">
    <g clip-path="url(#clip0_10683_107421)" stroke="none">
        <path
            d="M14.3212 8.00001L10.3741 8.01672C8.70377 8.24443 7.27265 9.27034 7.14624 11.0206C7.10628 11.1812 7.12599 11.3443 7.12033 11.4936C7.10213 12.2584 7.10649 13.0813 7.11829 13.8687C7.12144 15.1113 7.0844 16.1126 7.10802 17.0364C7.12314 19.751 8.7404 21.0196 11.6772 20.9668C12.4048 20.9537 13.2367 20.949 14.1908 20.9737C15.1397 20.9801 15.8712 21.042 16.5231 20.9501C19.4182 20.5419 19.9825 18.6177 20.1001 17.06V15.2761C20.0156 13.464 18.6897 12.9651 17.556 12.9283C17.6779 12.4753 17.7072 11.8594 17.6004 11.0299C17.4631 9.41804 16.3086 8.15772 14.3212 8V8.00001ZM11.0205 10.4342H14.2315C16.0069 10.6685 15.9233 12.5654 14.2315 12.8375H11.0205C9.24518 12.6031 9.32878 10.7063 11.0205 10.4342ZM10.2915 15.6836L16.1905 15.7036C17.9743 15.9315 17.9793 18.0835 16.2525 18.3468L10.3536 18.3264C8.5242 18.1035 8.54987 15.9492 10.2915 15.6836Z"
            fill="none" />
        <path
            d="M13.9996 27.6496C21.5383 27.6496 27.6496 21.5383 27.6496 13.9996C27.6496 6.46092 21.5383 0.349609 13.9996 0.349609C6.46092 0.349609 0.349609 6.46092 0.349609 13.9996C0.349609 21.5383 6.46092 27.6496 13.9996 27.6496Z"
            stroke="none" stroke-width="0.7" />
    </g>
    <defs>
        <clipPath id="clip0_10683_107421">
            <rect width="28" height="28" fill="none" />
        </clipPath>
    </defs>
</svg>