<svg width="28" height="28" viewBox="0 0 28 28" fill="none" xmlns="http://www.w3.org/2000/svg">
<g clip-path="url(#clip1_12269_169845)">
<path d="M16.9785 14.7997L17.334 12.4832H15.1112V10.9799C15.1112 10.3462 15.4217 9.72839 16.4172 9.72839H17.4277V7.75611C17.4277 7.75611 16.5107 7.59961 15.634 7.59961C13.8034 7.59961 12.6069 8.70913 12.6069 10.7177V12.4832H10.5721V14.7997H12.6069V20.3998H15.1112V14.7997H16.9785Z" fill="none"/>

<path d="M13.9996 27.6496C21.5383 27.6496 27.6496 21.5383 27.6496 13.9996C27.6496 6.46092 21.5383 0.349609 13.9996 0.349609C6.46092 0.349609 0.349609 6.46092 0.349609 13.9996C0.349609 21.5383 6.46092 27.6496 13.9996 27.6496Z" stroke="none" stroke-width="0.7"/>
</g>
<defs>
<clipPath id="clip0_12198_165571">
<rect width="28" height="28" fill="none"/>
</clipPath>
</defs>
</svg>
