<svg width="28" height="28" viewBox="0 0 28 28" fill="none" xmlns="http://www.w3.org/2000/svg">
    <g clip-path="url(#clip0_10683_106721)">
        <g clip-path="url(#clip1_10683_106721)">
            <path
                d="M20.7937 11.0073C20.7354 12.4702 19.8517 14.4732 18.1425 17.0164C16.3751 19.6721 14.8796 21 13.6559 21C12.8985 21 12.2575 20.1898 11.7331 18.5693L10.6843 14.1131C10.2958 12.4927 9.87826 11.6825 9.43154 11.6825C9.33443 11.6825 8.99454 11.9188 8.41186 12.3914L7.80005 11.4799C8.44099 10.8273 9.07222 10.1746 9.69374 9.52191C10.5483 8.66668 11.1893 8.21656 11.6166 8.17154C12.6265 8.05901 13.2481 8.85798 13.4811 10.5684C13.7336 12.4139 13.9084 13.5617 14.0055 14.0119C14.2969 15.5423 14.6173 16.3075 14.9669 16.3075C15.2389 16.3075 15.6467 15.8124 16.1906 14.8221C16.7344 13.8318 17.0257 13.0779 17.0646 12.5602C17.1423 11.705 16.8509 11.2774 16.1906 11.2774C15.8798 11.2774 15.5593 11.3562 15.2291 11.5137C15.8701 9.10556 17.0937 7.93524 18.9 8.00276C20.2402 8.04778 20.8714 9.0493 20.7937 11.0073L20.7937 11.0073Z"
                fill="none" />
        </g>
        <path
            d="M13.9996 27.6496C21.5383 27.6496 27.6496 21.5383 27.6496 13.9996C27.6496 6.46092 21.5383 0.349609 13.9996 0.349609C6.46092 0.349609 0.349609 6.46092 0.349609 13.9996C0.349609 21.5383 6.46092 27.6496 13.9996 27.6496Z"
            stroke="none" stroke-width="0.7" />
    </g>
    <defs>
        <clipPath id="clip0_10683_106721">
            <rect width="28" height="28" fill="none" />
        </clipPath>
        <clipPath id="clip1_10683_106721">
            <rect width="14" height="14" fill="none" transform="translate(7.1001 7)" />
        </clipPath>
    </defs>
</svg>