<svg width="28" height="28" viewBox="0 0 28 28" fill="none" xmlns="http://www.w3.org/2000/svg">
<g>
<path d="M20.3998 9.69511C20.3176 9.60726 20.1867 9.58542 20.0806 9.64191C19.9518 9.70085 19.8183 9.74894 19.6816 9.78555C19.8844 9.53271 20.0379 9.24396 20.1338 8.93435C20.16 8.82704 20.1172 8.71469 20.0262 8.65211C19.9352 8.58946 19.815 8.5896 19.7242 8.65239C19.3002 8.88689 18.8479 9.06567 18.3782 9.18439C17.8737 8.68242 17.1906 8.40116 16.479 8.40235C15.9111 8.41481 15.3582 8.58624 14.883 8.89711C13.8722 9.46635 13.6966 10.7804 13.7711 11.5943C11.8971 11.4363 10.1684 10.522 8.98311 9.06203C8.9346 8.98748 8.85375 8.94009 8.76499 8.93435C8.67623 8.94037 8.59643 8.99021 8.55219 9.06735C8.00409 10.0164 8.04966 11.1958 8.66923 12.0997C8.58943 12.0465 8.50431 11.9827 8.41919 11.9135C8.33981 11.8349 8.21976 11.8142 8.11861 11.8617C8.01753 11.9093 7.95691 12.015 7.96699 12.1263C7.98309 13.1164 8.47904 14.0369 9.29699 14.5948L9.08951 14.5363C8.99081 14.5056 8.88329 14.5348 8.81378 14.6112C8.7442 14.6876 8.72516 14.7974 8.76499 14.8927C9.18247 15.8358 10.0003 16.5424 10.9941 16.8186C10.0881 17.3419 9.03869 17.5619 7.99891 17.4463C7.87319 17.4308 7.75398 17.5061 7.71387 17.6262C7.67383 17.7464 7.72409 17.8781 7.83399 17.9411C9.08489 18.6708 10.5088 19.0511 11.957 19.0423C14.0022 19.0256 15.941 18.1279 17.277 16.5792C18.6078 15.1529 19.3077 13.2505 19.2188 11.3017C19.6928 10.9395 20.1013 10.4986 20.4264 9.99835C20.4819 9.90168 20.4714 9.78065 20.3998 9.69511Z"  stroke="none " fill="none"/>
<path d="M14.1031 28.5944C21.6418 28.5944 27.7531 22.4831 27.7531 14.9444C27.7531 7.40575 21.6418 1.29443 14.1031 1.29443C6.56444 1.29443 0.453125 7.40575 0.453125 14.9444C0.453125 22.4831 6.56444 28.5944 14.1031 28.5944Z" stroke="none" stroke-width="0.7"/>
</g>
<defs>
<clipPath id="clip0_12198_165571">
<rect width="28" height="28" fill="none"/>
</clipPath>
</defs>
</svg>
