<svg width="28" height="28" viewBox="0 0 28 28" fill="none" xmlns="http://www.w3.org/2000/svg">
    <g clip-path="url(#clip0_10683_93902)">
        <path
            d="M15.9792 13.6276C15.9792 14.668 15.7778 15.5947 15.375 16.4076C14.9722 17.2204 14.3981 17.8557 13.6528 18.3134C12.9074 18.7711 12.0532 19 11.0903 19C10.4005 19 9.74074 18.8549 9.11111 18.5648C8.48148 18.2747 7.93981 17.8845 7.48611 17.3943C7.03241 16.904 6.6713 16.3188 6.40278 15.6385C6.13426 14.9582 6 14.2453 6 13.5C6 12.7547 6.13426 12.0418 6.40278 11.3615C6.6713 10.6812 7.03241 10.096 7.48611 9.60573C7.93981 9.11551 8.48148 8.72533 9.11111 8.4352C9.74074 8.14507 10.4005 8 11.0903 8C12.4144 8 13.5509 8.48022 14.5 9.44065L13.1181 10.8738C12.5764 10.3085 11.9005 10.0259 11.0903 10.0259C10.5208 10.0259 9.99421 10.181 9.51042 10.4911C9.02662 10.8013 8.64352 11.2227 8.36111 11.7555C8.0787 12.2882 7.9375 12.8697 7.9375 13.5C7.9375 14.1303 8.0787 14.7118 8.36111 15.2445C8.64352 15.7773 9.02662 16.1987 9.51042 16.5089C9.99421 16.819 10.5208 16.9741 11.0903 16.9741C11.4745 16.9741 11.8275 16.9166 12.1493 16.8015C12.4711 16.6864 12.7361 16.5426 12.9444 16.3701C13.1528 16.1975 13.3345 16.0011 13.4896 15.781C13.6447 15.5609 13.7581 15.3533 13.8299 15.1583C13.9016 14.9632 13.9514 14.7781 13.9792 14.603H11.0903V12.7121H15.8958C15.9514 13.0273 15.9792 13.3324 15.9792 13.6276ZM22 12.7121V14.2879H20.5486V15.8561H19.0903V14.2879H17.6389V12.7121H19.0903V11.1439H20.5486V12.7121H22Z"
            fill="none" />
        <path
            d="M13.9996 27.6496C21.5383 27.6496 27.6496 21.5383 27.6496 13.9996C27.6496 6.46092 21.5383 0.349609 13.9996 0.349609C6.46092 0.349609 0.349609 6.46092 0.349609 13.9996C0.349609 21.5383 6.46092 27.6496 13.9996 27.6496Z"
            stroke="none" stroke-width="0.7" />
    </g>
    <defs>
        <clipPath id="clip0_10683_93902">
            <rect width="28" height="28" fill="none" />
        </clipPath>
    </defs>
</svg>