<svg width="28" height="28" viewBox="0 0 28 28" fill="none"
    xmlns="http://www.w3.org/2000/svg">
    <g>
        <path d="M14.938 11.9984V12.6947L14.5254 13.3683H15.4179H15.438H15.938V12.9815C16.1088 12.7211 16.3227 12.4513 16.6184 12.2329C16.9615 11.9793 17.4398 11.7768 18.1426 11.7768C19.0111 11.7768 19.7287 12.0699 20.2354 12.645C20.7484 13.2271 21.0977 14.1581 21.0977 15.5281V20.4443H19.0968V15.891C19.0968 15.2136 18.9835 14.5664 18.6628 14.074C18.3199 13.5473 17.7766 13.255 17.0764 13.255C15.9639 13.255 15.3298 14.0495 15.0706 14.7222C14.9542 15.0197 14.9379 15.3857 14.9379 15.6694V20.4443H12.939L12.9424 19.5949C12.9455 18.7785 12.9492 17.6805 12.9516 16.5548C12.9555 14.7837 12.9565 12.9256 12.9466 11.9984H14.938ZM10.2758 11.9986V20.4443H8.27472V11.9986H10.2758ZM10.1566 7.76426C10.3436 7.95343 10.465 8.23219 10.4735 8.5816C10.4723 8.911 10.3548 9.18669 10.1629 9.37919C9.97188 9.57084 9.67905 9.70812 9.27563 9.70812H9.25604C8.53457 9.70812 8.09766 9.21632 8.09766 8.57638C8.09766 8.23657 8.21888 7.96002 8.41277 7.76873C8.60607 7.57803 8.90003 7.44434 9.29549 7.44434C9.68945 7.44434 9.97134 7.57681 10.1566 7.76426Z" fill="none" stroke="none"/>
        <path d="M14.7008 28.5944C22.2395 28.5944 28.3508 22.4831 28.3508 14.9444C28.3508 7.40575 22.2395 1.29443 14.7008 1.29443C7.16209 1.29443 1.05078 7.40575 1.05078 14.9444C1.05078 22.4831 7.16209 28.5944 14.7008 28.5944Z" stroke="none" stroke-width="0.7"/>
    </g>
    <defs>
        <clipPath id="clip0_9862_4221">
            <rect width="28" height="28" fill="none" transform="translate(0.699219 0.944336)"/>
        </clipPath>
    </defs>
</svg>
