<svg width="28" height="28" viewBox="0 0 28 28" fill="none" xmlns="http://www.w3.org/2000/svg">

<g clip-path="url(#clip1_12269_170403)">
<path d="M14.7266 7.19043C11.7207 7.19043 8.75 9.19434 8.75 12.4375C8.75 14.5 9.91016 15.6719 10.6133 15.6719C10.9033 15.6719 11.0703 14.8633 11.0703 14.6348C11.0703 14.3623 10.376 13.7822 10.376 12.6484C10.376 10.293 12.1689 8.62305 14.4893 8.62305C16.4844 8.62305 17.9609 9.75684 17.9609 11.8398C17.9609 13.3955 17.3369 16.3135 15.3154 16.3135C14.5859 16.3135 13.9619 15.7861 13.9619 15.0303C13.9619 13.9229 14.7354 12.8506 14.7354 11.708C14.7354 9.76855 11.9844 10.1201 11.9844 12.4639C11.9844 12.9561 12.0459 13.501 12.2656 13.9492C11.8613 15.6895 11.0352 18.2822 11.0352 20.0752C11.0352 20.6289 11.1143 21.1738 11.167 21.7275C11.2666 21.8389 11.2168 21.8271 11.3691 21.7715C12.8457 19.75 12.793 19.3545 13.4609 16.709C13.8213 17.3945 14.7529 17.7637 15.4912 17.7637C18.6025 17.7637 20 14.7314 20 11.998C20 9.08887 17.4863 7.19043 14.7266 7.19043Z" fill="none"/>
<path d="M14.1031 28.5944C21.6418 28.5944 27.7531 22.4831 27.7531 14.9444C27.7531 7.40575 21.6418 1.29443 14.1031 1.29443C6.56444 1.29443 0.453125 7.40575 0.453125 14.9444C0.453125 22.4831 6.56444 28.5944 14.1031 28.5944Z" stroke="none" stroke-width="0.7"/>
</g>
<defs>
<clipPath id="clip0_12198_165571">
<rect width="28" height="28" fill="none"/>
</clipPath>
</defs>
</svg>
