<?xml version="1.0" encoding="UTF-8"?>
<svg width="24px" height="24px" viewBox="0 0 24 24" version="1.1" xmlns="http://www.w3.org/2000/svg" xmlns:xlink="http://www.w3.org/1999/xlink">
    <!-- Generator: Sketch 54.1 (76490) - https://sketchapp.com -->
    <title>mystore</title>
    <desc>Created with Sketch.</desc>
    <g id="mystore" stroke="none" stroke-width="1" fill="none" fill-rule="evenodd">
        <g id="Group-20" transform="translate(1.000000, 2.000000)" fill="#41434C" fill-rule="nonzero">
            <path d="M14.7285255,8.8198988 L14.7285255,12.75 C14.7285255,13.5784271 14.0569526,14.25 13.2285255,14.25 L9.94327888,14.25 C9.11485176,14.25 8.44327888,13.5784271 8.44327888,12.75 L8.44327888,8.88673547 C8.07492764,8.65848249 7.73833789,8.40311294 7.45959716,8.13356715 C6.78269752,8.86632104 5.77695047,9.22131026 4.5,9.26892658 L4.5,17.5 C4.5,18.3284271 5.17157288,19 6,19 L17,19 C17.8284271,19 18.5,18.3284271 18.5,17.5 L18.5,9.26765387 C17.3175374,9.21388399 16.2929697,8.84241804 15.599191,8.13222884 C15.3538305,8.37634667 15.0568135,8.60874374 14.7285255,8.8198988 Z M13.7285255,9.35478003 C12.9780215,9.68477448 12.178122,9.88974592 11.5,9.88974592 C10.8777346,9.88974592 10.1462247,9.7055209 9.44327888,9.40542876 L9.44327888,12.75 C9.44327888,13.0261424 9.66713651,13.25 9.94327888,13.25 L13.2285255,13.25 C13.5046679,13.25 13.7285255,13.0261424 13.7285255,12.75 L13.7285255,9.35478003 Z M19.5,9.15039058 L19.5,17.5 C19.5,18.8807119 18.3807119,20 17,20 L6,20 C4.61928813,20 3.5,18.8807119 3.5,17.5 L3.5,9.22339485 C2.2100921,9.03051137 1.13964387,8.3010103 0.692061487,7.19627278 C0.659582917,7.14929718 0.631621987,7.09986505 0.609393597,7.04936208 C0.46043599,6.718998 0.451785832,6.3458106 0.646863138,6.04253027 L3.91506662,0.940130442 C4.08927206,0.668709803 4.38122266,0.5 4.69985744,0.5 L17.3887936,0.5 C17.669708,0.5 17.9327186,0.632449149 18.1120051,0.855285615 L21.8148324,5.49080377 C22.0208445,5.74847941 22.0904401,6.09824542 22.0053124,6.42295791 C21.681818,7.63323778 20.584414,8.78006532 19.5,9.15039058 Z M4.74400482,1.5 L1.48841854,6.58270024 C1.49898003,6.56628054 1.49954645,6.59071736 1.52279198,6.64231877 C1.51907718,6.63388377 1.5157491,6.62868373 1.51313064,6.62561184 L1.60064578,6.7740575 C1.94467689,7.6894193 2.96326559,8.27449206 4.19565217,8.27449206 C5.58997925,8.27449206 6.52102149,7.89898568 6.99672491,7.0861815 C7.18062013,6.77197145 7.62793401,6.75335549 7.83730119,7.05119906 C8.48164223,7.96783186 10.316701,8.88974592 11.5,8.88974592 C12.7341947,8.88974592 14.6161881,7.9635147 15.1873499,7.06953946 C15.3854098,6.75953845 15.839138,6.76234838 16.0333433,7.07477866 C16.5244178,7.86480119 17.5352359,8.27449206 18.8043478,8.27449206 C19.5852472,8.27449206 20.7554112,7.22656653 21.0386122,6.16705762 C21.0441512,6.14592809 21.0394658,6.12238094 21.0336391,6.11509293 L17.3471313,1.5 L4.74400482,1.5 Z" id="Combined-Shape"></path>
        </g>
    </g>
</svg>