<svg width="40" height="40" viewBox="0 0 40 40" fill="none" xmlns="http://www.w3.org/2000/svg">
<rect width="40" height="40" rx="20" fill="white"/>
<path d="M25 28.7501C24.9173 28.7498 24.8355 28.733 24.7593 28.7008C24.6832 28.6686 24.6141 28.6217 24.5563 28.5626L19.7938 23.7501H15.625C15.4592 23.7501 15.3003 23.6843 15.1831 23.567C15.0658 23.4498 15 23.2909 15 23.1251V16.8751C15 16.7093 15.0658 16.5504 15.1831 16.4332C15.3003 16.316 15.4592 16.2501 15.625 16.2501H19.7938L24.5563 11.4376C24.6734 11.3212 24.8318 11.2559 24.9969 11.2559C25.162 11.2559 25.3204 11.3212 25.4375 11.4376C25.5553 11.553 25.6227 11.7102 25.625 11.8751V28.1251C25.625 28.2909 25.5592 28.4498 25.4419 28.567C25.3247 28.6843 25.1658 28.7501 25 28.7501ZM16.25 22.5001H20.05C20.1327 22.5004 20.2145 22.5172 20.2907 22.5494C20.3668 22.5816 20.4359 22.6285 20.4937 22.6876L24.375 26.6064V13.3939L20.4937 17.3126C20.4359 17.3717 20.3668 17.4186 20.2907 17.4508C20.2145 17.483 20.1327 17.4998 20.05 17.5001H16.25V22.5001Z" fill="#261A1A"/>
<line x1="15.584" y1="28.7226" x2="27.584" y2="10.7226" stroke="#261A1A"/>
</svg>
