<svg width="20" height="20" viewBox="0 0 20 20" xmlns="http://www.w3.org/2000/svg">
<path d="M18.942 6.31279C18.9319 5.557 18.7902 4.80874 18.5232 4.10145C18.2917 3.50486 17.938 2.96305 17.4848 2.51064C17.0317 2.05823 16.489 1.70516 15.8914 1.474C15.192 1.21191 14.4532 1.07019 13.7064 1.05488C12.7448 1.01197 12.4399 1 9.999 1C7.55809 1 7.24522 1 6.29065 1.05488C5.54414 1.07031 4.80566 1.21202 4.10662 1.474C3.50894 1.705 2.96615 2.05801 2.51296 2.51044C2.05977 2.96288 1.70618 3.50477 1.47479 4.10145C1.21174 4.79911 1.07009 5.53653 1.05598 6.28185C1.01299 7.24282 1 7.54718 1 9.98403C1 12.4209 1 12.7322 1.05598 13.6862C1.07097 14.4326 1.21191 15.1691 1.47479 15.8686C1.70656 16.4651 2.06042 17.0068 2.51376 17.459C2.9671 17.9113 3.50995 18.2641 4.10762 18.4951C4.80474 18.7677 5.54335 18.9196 6.29165 18.9441C7.25422 18.987 7.55909 19 10 19C12.4409 19 12.7538 19 13.7084 18.9441C14.4552 18.9294 15.1941 18.788 15.8934 18.526C16.4908 18.2946 17.0334 17.9414 17.4865 17.489C17.9396 17.0367 18.2934 16.495 18.5252 15.8985C18.7881 15.2 18.929 14.4636 18.944 13.7162C18.987 12.7562 19 12.4518 19 10.014C18.998 7.57712 18.998 7.26777 18.942 6.31279ZM9.993 14.5923C7.44014 14.5923 5.37206 12.5277 5.37206 9.97905C5.37206 7.43043 7.44014 5.36578 9.993 5.36578C11.2186 5.36578 12.3939 5.85182 13.2605 6.71698C14.1271 7.58213 14.614 8.75553 14.614 9.97905C14.614 11.2026 14.1271 12.376 13.2605 13.2411C12.3939 14.1063 11.2186 14.5923 9.993 14.5923ZM14.7979 6.27087C14.6563 6.271 14.5162 6.24327 14.3854 6.18926C14.2546 6.13524 14.1357 6.05601 14.0357 5.95609C13.9356 5.85618 13.8562 5.73754 13.8021 5.60696C13.748 5.47639 13.7202 5.33645 13.7203 5.19514C13.7203 5.05394 13.7482 4.91412 13.8023 4.78367C13.8565 4.65322 13.9358 4.53469 14.0358 4.43484C14.1358 4.335 14.2545 4.2558 14.3852 4.20176C14.5159 4.14773 14.6559 4.11991 14.7974 4.11991C14.9388 4.11991 15.0789 4.14773 15.2095 4.20176C15.3402 4.2558 15.4589 4.335 15.5589 4.43484C15.6589 4.53469 15.7383 4.65322 15.7924 4.78367C15.8465 4.91412 15.8744 5.05394 15.8744 5.19514C15.8744 5.78989 15.3926 6.27087 14.7979 6.27087Z" fill="inherit"/>
<path d="M9.99288 12.9758C11.6507 12.9758 12.9945 11.6341 12.9945 9.9791C12.9945 8.32408 11.6507 6.98242 9.99288 6.98242C8.3351 6.98242 6.99121 8.32408 6.99121 9.9791C6.99121 11.6341 8.3351 12.9758 9.99288 12.9758Z" fill="inherit"/>
</svg>
