<svg width="20" height="20" viewBox="0 0 20 20" xmlns="http://www.w3.org/2000/svg">
<path d="M4.52733 1C2.58757 1 1 2.58754 1 4.52733V15.4732C1 17.413 2.58754 19 4.52733 19H15.4732C17.413 19 19 17.413 19 15.4732V4.52733C19 2.58757 17.413 1 15.4732 1H4.52733ZM5.4145 3.97036C6.34457 3.97036 6.91746 4.58094 6.93514 5.38353C6.93514 6.1684 6.34454 6.79614 5.39651 6.79614H5.37906C4.46669 6.79614 3.87699 6.16844 3.87699 5.38353C3.87699 4.58095 4.48454 3.97036 5.41448 3.97036H5.4145ZM13.4294 7.72158C15.2181 7.72158 16.559 8.89069 16.559 11.403V16.0932H13.8407V11.7175C13.8407 10.6179 13.4473 9.86776 12.4635 9.86776C11.7125 9.86776 11.2649 10.3734 11.0683 10.8618C10.9965 11.0366 10.9789 11.2806 10.9789 11.5251V16.0932H8.26056C8.26056 16.0932 8.29623 8.6809 8.26056 7.9134H10.9795V9.07174C11.3407 8.5144 11.9869 7.72156 13.4294 7.72156V7.72158ZM4.03733 7.914H6.75567V16.0932H4.03733V7.914Z" fill="inherit"/>
</svg>
