<svg width="20" height="20" viewBox="0 0 20 20" xmlns="http://www.w3.org/2000/svg">
<path d="M17.1452 6.62529C17.1452 6.79391 17.1452 6.94848 17.1452 7.08899C17.1452 8.35363 16.9063 9.60422 16.4286 10.8407C15.9789 12.0492 15.3185 13.1593 14.4473 14.171C13.6042 15.1827 12.4941 16.0117 11.1171 16.6581C9.76815 17.2763 8.27869 17.5855 6.64871 17.5855C4.59719 17.5855 2.71429 17.0375 1 15.9415C1.28103 15.9696 1.57611 15.9836 1.88525 15.9836C3.59953 15.9836 5.13115 15.4637 6.48009 14.4239C5.66511 14.3958 4.93443 14.1429 4.28806 13.6651C3.66979 13.1874 3.24824 12.5831 3.02342 11.8525C3.24824 11.9087 3.47307 11.9368 3.69789 11.9368C4.03513 11.9368 4.35831 11.8806 4.66745 11.7681C3.82436 11.5995 3.12178 11.178 2.55972 10.5035C1.99766 9.82904 1.71663 9.05621 1.71663 8.18501C1.71663 8.15691 1.71663 8.14286 1.71663 8.14286C2.25059 8.42389 2.81265 8.57845 3.40281 8.60656C2.30679 7.84777 1.75878 6.82201 1.75878 5.52927C1.75878 4.8548 1.9274 4.23653 2.26464 3.67447C3.19204 4.79859 4.30211 5.69789 5.59485 6.37237C6.91569 7.04684 8.33489 7.42623 9.85246 7.51054C9.79625 7.22951 9.76815 6.94848 9.76815 6.66745C9.76815 5.65574 10.1194 4.79859 10.822 4.09602C11.5527 3.36534 12.4239 3 13.4356 3C14.5035 3 15.4028 3.37939 16.1335 4.13817C16.9766 3.96956 17.7635 3.67447 18.4941 3.25293C18.2131 4.12412 17.6651 4.79859 16.8501 5.27635C17.6089 5.19204 18.3255 5.00937 19 4.72834C18.4941 5.45902 17.8759 6.09133 17.1452 6.62529Z" fill="inherit"/>
</svg>
