<svg width="20" height="20" viewBox="0 0 20 20" xmlns="http://www.w3.org/2000/svg">
<path d="M11.7461 10.1055C11.7461 9.84766 11.7227 9.59766 11.6758 9.35547H7.43359V10.9023H9.97656C9.88281 11.4961 9.5918 11.9668 9.10352 12.3145C8.61523 12.6621 8.05859 12.8359 7.43359 12.8359C6.66016 12.8359 6 12.5566 5.45312 11.998C4.90625 11.4395 4.63281 10.7734 4.63281 10C4.63281 9.22656 4.90625 8.56055 5.45312 8.00195C6 7.44336 6.66016 7.16406 7.43359 7.16406C8.16016 7.16406 8.75781 7.39453 9.22656 7.85547L10.4453 6.67188C9.60156 5.89062 8.59766 5.5 7.43359 5.5C6.18359 5.5 5.12109 5.93945 4.24609 6.81836C3.37109 7.69727 2.93359 8.75781 2.93359 10C2.93359 11.2422 3.37109 12.3027 4.24609 13.1816C5.12109 14.0605 6.18359 14.5 7.43359 14.5C8.72266 14.5 9.76367 14.0898 10.5566 13.2695C11.3496 12.4492 11.7461 11.3945 11.7461 10.1055ZM15.7891 10.6445H17.0664V9.35547H15.7891V8.06641H14.5V9.35547H13.2109V10.6445H14.5V11.9336H15.7891V10.6445ZM19 10C19 11.6328 18.5977 13.1387 17.793 14.5176C16.9883 15.8965 15.8965 16.9883 14.5176 17.793C13.1387 18.5977 11.6328 19 10 19C8.36719 19 6.86133 18.5977 5.48242 17.793C4.10352 16.9883 3.01172 15.8965 2.20703 14.5176C1.40234 13.1387 1 11.6328 1 10C1 8.36719 1.40234 6.86133 2.20703 5.48242C3.01172 4.10352 4.10352 3.01172 5.48242 2.20703C6.86133 1.40234 8.36719 1 10 1C11.6328 1 13.1387 1.40234 14.5176 2.20703C15.8965 3.01172 16.9883 4.10352 17.793 5.48242C18.5977 6.86133 19 8.36719 19 10Z" fill="inherit"/>
</svg>
