<svg width="20" height="20" viewBox="0 0 20 20" xmlns="http://www.w3.org/2000/svg">
<path d="M10 1C15.3468 1.09999 18.9651 5.20037 19 10C18.9044 15.1138 14.7996 18.9651 10 19C9.11213 18.9966 8.24529 18.8584 7.45355 18.6307C7.622 18.3585 7.79048 18.0572 7.95893 17.7268C8.31425 17.0045 8.47648 16.231 8.65871 15.4914C8.73647 15.1739 8.84662 14.7559 8.98917 14.2376C9.14466 14.5356 9.42652 14.7948 9.83474 15.0151C10.9003 15.5335 12.2203 15.3623 13.1684 14.8791C14.4986 14.1235 15.278 12.95 15.6954 11.6329C16.4992 8.57821 15.4628 5.64127 12.6922 4.46005C9.35145 3.45379 5.62313 4.70963 4.32394 7.69657C3.7567 9.69265 3.79027 12.2555 5.76238 13.0907C5.86611 13.1296 5.96005 13.1296 6.04423 13.0907C6.22933 12.985 6.44399 12.0684 6.40385 11.8758C6.39089 11.8175 6.34553 11.7365 6.26779 11.6329C5.17785 10.1573 5.8421 7.96141 6.86065 6.86069C8.59265 5.37301 11.2883 5.13145 12.8768 6.54969C14.2859 8.19344 13.9658 10.7516 13.0615 12.3812C12.5618 13.1781 11.8915 13.7803 10.9913 13.7905C10.0438 13.7695 9.32909 12.9677 9.5723 12.0605C9.77899 10.9958 10.3525 9.86668 10.3693 8.8726C10.3235 8.04577 9.90944 7.52136 9.14464 7.51191C7.92382 7.66585 7.43101 8.80726 7.41461 9.84453C7.45366 10.343 7.48388 10.8503 7.70618 11.2636C7.44701 12.3132 7.24613 13.1588 7.10359 13.8003C6.88509 14.9384 6.45661 16.1287 6.39409 17.2312C6.37465 17.594 6.3714 17.9309 6.38437 18.242C3.04957 16.6604 1.01971 13.5712 1 10C1.09714 4.8056 5.20037 1.0349 10 1Z" fill="inherit"/>
</svg>
