<svg width="20" height="20" viewBox="0 0 20 20" xmlns="http://www.w3.org/2000/svg">
<path d="M19.2775 6.21789C19.4258 7.25614 19.5 8.27956 19.5 9.28815V10.712L19.2775 13.7823C19.1589 14.6426 18.9067 15.2655 18.5211 15.6511C18.1058 16.0664 17.4828 16.3334 16.6522 16.4521C15.8513 16.5114 14.8872 16.5559 13.76 16.5856C12.6624 16.6152 11.7576 16.6301 11.0457 16.6301H9.97775C6.68501 16.6004 4.53435 16.5411 3.52576 16.4521C3.52576 16.4521 3.4071 16.4373 3.16979 16.4076C2.93247 16.3779 2.73966 16.3483 2.59133 16.3186C2.44301 16.2889 2.2502 16.2148 2.01288 16.0961C1.80523 15.9775 1.61241 15.8291 1.43443 15.6511C1.2861 15.4732 1.13778 15.2358 0.989461 14.9392C0.870804 14.6129 0.796643 14.3311 0.766979 14.0938L0.677986 13.7823C0.559329 12.744 0.5 11.7206 0.5 10.712V9.28815L0.677986 6.21789C0.796643 5.35763 1.04879 4.73468 1.43443 4.34904C1.84973 3.90408 2.48751 3.6371 3.34778 3.5481C4.14871 3.48877 5.09797 3.44428 6.19555 3.41461C7.29313 3.38495 8.19789 3.37012 8.90984 3.37012H9.97775C12.6475 3.37012 14.8724 3.42945 16.6522 3.5481C17.4828 3.6371 18.1058 3.90408 18.5211 4.34904C18.6397 4.4677 18.7436 4.61602 18.8326 4.794C18.9215 4.94233 18.9957 5.10548 19.055 5.28347C19.1144 5.43179 19.1589 5.58011 19.1885 5.72843C19.2182 5.87675 19.2479 5.99541 19.2775 6.0844V6.21789ZM12.5585 10.1336L13.1815 9.82211L8.0644 7.15232V12.4919L12.5585 10.1336Z" fill="inherit"/>
</svg>
