<svg width="20" height="20" viewBox="0 0 20 20" xmlns="http://www.w3.org/2000/svg">
<path d="M3.01033 5.26461C3.02147 5.14263 3.00627 5.01948 2.96597 4.90518C2.92567 4.79087 2.8614 4.68864 2.7784 4.6068L1.06788 2.34006V2H6.38111L10.4883 11.9044L14.0987 2H19.1636V2.339L17.6995 3.88098C17.6382 3.93346 17.5908 4.00303 17.5623 4.08245C17.5337 4.16188 17.5251 4.24826 17.5371 4.33263V15.6674C17.5248 15.7518 17.5334 15.8382 17.562 15.9177C17.5906 15.9971 17.6381 16.0667 17.6995 16.119L19.1288 17.661V18H11.9427V17.661L13.4203 16.0808C13.5672 15.9214 13.5672 15.8735 13.5672 15.6302V6.46759L9.45133 17.9628H8.89566L4.10429 6.46759V14.1711C4.06466 14.4952 4.16227 14.8215 4.37004 15.0563L6.2951 17.6249V17.9639H0.836914V17.6249L2.76197 15.0563C2.86324 14.9403 2.93844 14.7998 2.98156 14.6461C3.02469 14.4924 3.03454 14.3297 3.01033 14.1711V5.26461Z" fill="inherit"/>
</svg>
