<svg width="20" height="20" viewBox="0 0 20 20" xmlns="http://www.w3.org/2000/svg">
<path d="M19.2392 5.70378C19.1572 7.50266 17.9005 9.9663 15.4681 13.0947C12.9536 16.3653 10.8252 18 9.0841 18C8.00547 18 7.09331 17.0046 6.34763 15.0138L4.85511 9.54086C4.30019 7.54891 3.70595 6.55467 3.07126 6.55467C2.93484 6.55467 2.45044 6.84716 1.62152 7.42636L0.750977 6.30495C1.65639 5.50973 2.55586 4.70776 3.4493 3.89912C4.66782 2.84707 5.58229 2.29446 6.19271 2.23781C7.62974 2.09561 8.51646 3.07945 8.84942 5.18932C9.20781 7.46451 9.45752 8.87726 9.59625 9.42756C10.0124 11.3132 10.4703 12.2554 10.9674 12.2542C11.3535 12.2542 11.9339 11.6415 12.7108 10.4195C13.4865 9.19634 13.9015 8.26569 13.9559 7.62752C14.0669 6.57201 13.6518 6.04367 12.7108 6.04367C12.2384 6.0506 11.7724 6.15325 11.3408 6.34541C12.253 3.37078 13.9894 1.92335 16.5525 2.00312C18.4531 2.06093 19.3491 3.29564 19.2392 5.70378Z" fill="inherit"/>
</svg>
