
<svg width="80" height="80" viewBox="0 0 80 80" fill="none" xmlns="http://www.w3.org/2000/svg">
<circle opacity="0.5" cx="40" cy="40" r="40" fill="white"/>
<circle opacity="0.9" cx="40" cy="40" r="28" fill="white"/>
<path fill-rule="evenodd" clip-rule="evenodd" d="M37.668 47.0002C37.668 47.3096 37.5451 47.6063 37.3263 47.8251C37.1075 48.0439 36.8107 48.1668 36.5013 48.1668H35.3346C35.0252 48.1668 34.7285 48.0439 34.5097 47.8251C34.2909 47.6063 34.168 47.3096 34.168 47.0002V33.0002C34.168 32.6907 34.2909 32.394 34.5097 32.1752C34.7285 31.9564 35.0252 31.8335 35.3346 31.8335H36.5013C36.8107 31.8335 37.1075 31.9564 37.3263 32.1752C37.5451 32.394 37.668 32.6907 37.668 33.0002V47.0002ZM45.8346 47.0002C45.8346 47.3096 45.7117 47.6063 45.4929 47.8251C45.2741 48.0439 44.9774 48.1668 44.668 48.1668H43.5013C43.1919 48.1668 42.8951 48.0439 42.6763 47.8251C42.4576 47.6063 42.3346 47.3096 42.3346 47.0002V33.0002C42.3346 32.6907 42.4576 32.394 42.6763 32.1752C42.8951 31.9564 43.1919 31.8335 43.5013 31.8335H44.668C44.9774 31.8335 45.2741 31.9564 45.4929 32.1752C45.7117 32.394 45.8346 32.6907 45.8346 33.0002V47.0002Z" fill="#261A1A"/>
</svg>
