<!-- <svg version="1.1" id="Layer_1" xmlns="http://www.w3.org/2000/svg" xmlns:xlink="http://www.w3.org/1999/xlink" x="0px" y="0px" viewBox="0 0 512 512" style="enable-background: new 0 0 512 512" xml:space="preserve">
    <g>
        <path
        d="M256,48C141.1,48,48,141.1,48,256c0,114.9,93.1,208,208,208c114.9,0,208-93.1,208-208C464,141.1,370.9,48,256,48z
        M339.8,259.9l-137.2,83c-2.9,1.8-6.7-0.4-6.7-3.9V173c0-3.5,3.7-5.7,6.7-3.9l137.2,83C342.7,253.8,342.7,258.2,339.8,259.9z"
        />
    </g>
</svg> -->
<svg xmlns="http://www.w3.org/2000/svg" width="80" height="80" viewBox="0 0 80 80" fill="none">
    <circle opacity="0.5" cx="40" cy="40" r="40" fill="white" />
    <circle opacity="0.9" cx="40" cy="40" r="28" fill="white" />
    <path
        d="M52.3742 39.0261C53.0443 39.405 53.0529 40.3672 52.3898 40.7581L34.664 51.2053C34.0009 51.5962 33.1632 51.1226 33.1563 50.3528L32.9716 29.7783C32.9647 29.0085 33.7937 28.5199 34.4638 28.8988L52.3742 39.0261Z"
        fill="#261A1A" />
</svg>