<svg width="40" height="40" viewBox="0 0 40 40" fill="none" xmlns="http://www.w3.org/2000/svg">
<rect width="40" height="40" rx="20" fill="white"/>
<path fill-rule="evenodd" clip-rule="evenodd" d="M15.7777 14.3482C17.1755 13.4692 18.8189 13 20.5 13C21.5801 13 22.3385 13.0343 22.8685 13.0897C23.3584 13.1408 23.7665 13.2186 24.0459 13.3779C24.1966 13.4637 24.4369 13.6469 24.4988 13.972C24.5608 14.298 24.3998 14.5382 24.3106 14.6428C24.2175 14.752 24.1142 14.8216 24.061 14.8549C24.0297 14.8745 24.002 14.8899 23.9808 14.9011C23.97 14.9067 23.9605 14.9116 23.9524 14.9156C23.9499 14.9168 23.9475 14.918 23.9452 14.9191C23.9439 14.9197 23.9425 14.9203 23.9413 14.9209C23.9396 14.9217 23.938 14.9225 23.9366 14.9232L23.9344 14.9242L23.9334 14.9247C23.9329 14.9249 23.9324 14.9251 23.5909 14.2727L23.9324 14.9251L23.2392 15.2465L22.8781 14.5566C22.825 14.5495 22.7652 14.5423 22.6981 14.5353C22.2484 14.4884 21.5536 14.4545 20.5 14.4545C19.1245 14.4545 17.7799 14.8384 16.6363 15.5577C15.4926 16.2769 14.6012 17.2991 14.0748 18.4952C13.5485 19.6912 13.4107 21.0073 13.6791 22.277C13.9474 23.5466 14.6098 24.7129 15.5824 25.6283C16.555 26.5437 17.7942 27.1671 19.1432 27.4197C20.4923 27.6722 21.8906 27.5426 23.1614 27.0472C24.4322 26.5518 25.5183 25.7129 26.2825 24.6365C27.0467 23.5601 27.4545 22.2946 27.4545 21V20.2727H29V21C29 22.5822 28.5015 24.129 27.5675 25.4446C26.6335 26.7601 25.306 27.7855 23.7528 28.391C22.1996 28.9965 20.4906 29.155 18.8417 28.8463C17.1929 28.5376 15.6783 27.7757 14.4896 26.6569C13.3008 25.538 12.4913 24.1126 12.1633 22.5607C11.8354 21.0089 12.0037 19.4003 12.647 17.9385C13.2904 16.4767 14.3798 15.2273 15.7777 14.3482Z" fill="black"/>
<path fill-rule="evenodd" clip-rule="evenodd" d="M21.8839 10L25.8928 14.0089L21.8839 18.0178L21 17.1339L24.125 14.0089L21 10.8839L21.8839 10Z" fill="black"/>
</svg>
