<svg width="24px" height="24px"  id="Layer_1" data-name="Layer 1" xmlns="http://www.w3.org/2000/svg" viewBox="0 0 44 44"><defs><style>.cls-1{fill:#41434c;}</style></defs><title>Artboard 20</title><path class="cls-1" d="M41.72,6.73H2.28a1,1,0,0,0-1,1V32.37a1,1,0,0,0,1,1H6.22v4.93a1,1,0,0,0,1,1,1,1,0,0,0,.7-.29l5.62-5.63H41.72a1,1,0,0,0,1-1V7.72A1,1,0,0,0,41.72,6.73Zm-1,24.65H13.13a1,1,0,0,0-.7.29L8.2,35.9V32.37a1,1,0,0,0-1-1H3.27V8.7H40.73Z"/><path class="cls-1" d="M12.14,16.59H33.83a1,1,0,1,0,0-2H12.14a1,1,0,1,0,0,2Z"/><path class="cls-1" d="M12.14,20.54H33.83a1,1,0,1,0,0-2H12.14a1,1,0,1,0,0,2Z"/><path class="cls-1" d="M12.14,24.48h13.8a1,1,0,1,0,0-2H12.14a1,1,0,1,0,0,2Z"/><path class="cls-1" d="M29.89,22.51h-1a1,1,0,0,0,0,2h1a1,1,0,0,0,0-2Z"/></svg>