<svg width="25" height="12" viewBox="0 0 25 12" xmlns="http://www.w3.org/2000/svg">
<path d="M24.1071 0.5H0.892857C0.656057 0.5 0.428955 0.596577 0.261512 0.768486C0.0940686 0.940394 0 1.17355 0 1.41667V10.5833C0 10.8264 0.0940686 11.0596 0.261512 11.2315C0.428955 11.4034 0.656057 11.5 0.892857 11.5H24.1071C24.3439 11.5 24.571 11.4034 24.7385 11.2315C24.9059 11.0596 25 10.8264 25 10.5833V1.41667C25 1.17355 24.9059 0.940394 24.7385 0.768486C24.571 0.596577 24.3439 0.5 24.1071 0.5ZM23.2143 9.66667H1.78571V2.33333H5.35714V6H7.14286V2.33333H11.6071V6H13.3929V2.33333H17.8571V6H19.6429V2.33333H23.2143V9.66667Z" fill="currentcolor"/>
</svg>
