<?xml version="1.0" encoding="UTF-8"?>
<svg width="16px" height="16px" viewBox="0 0 16 16" version="1.1" xmlns="http://www.w3.org/2000/svg" xmlns:xlink="http://www.w3.org/1999/xlink">
    <!-- Generator: Sketch 53 (72520) - https://sketchapp.com -->
    <title>search-black</title>
    <desc>Created with Sketch.</desc>
    <g id="search-black" stroke="none" stroke-width="1" fill="none" fill-rule="evenodd">
        <path d="M10.7848573,9.70634175 C10.8719311,9.74598369 10.953344,9.80145225 11.0245169,9.87262516 L14.7577948,13.605903 C15.0785101,13.9266183 15.082497,14.4426136 14.7617395,14.763371 C14.4432029,15.0819077 13.921818,15.0769729 13.6042714,14.7594263 L9.87099363,11.0261485 C9.79956965,10.9547245 9.7438542,10.8736154 9.70393584,10.7871344 C8.79450938,11.4714775 7.66349636,11.8770903 6.43776104,11.8770903 C3.43456855,11.8770903 1,9.44217072 1,6.43854516 C1,3.43491961 3.43456855,1 6.43776104,1 C9.44095354,1 11.8755221,3.43491961 11.8755221,6.43854516 C11.8755221,7.66497431 11.4696255,8.79658757 10.7848573,9.70634175 Z M6.43776104,10.7893813 C8.84031504,10.7893813 10.7879699,8.84144561 10.7879699,6.43854516 C10.7879699,4.03564472 8.84031504,2.08770903 6.43776104,2.08770903 C4.03520705,2.08770903 2.08755221,4.03564472 2.08755221,6.43854516 C2.08755221,8.84144561 4.03520705,10.7893813 6.43776104,10.7893813 Z" id="Search-Icon" fill="#41434C"></path>
    </g>
</svg>