<svg width="18" height="18" viewBox="0 0 18 18" fill="none" xmlns="http://www.w3.org/2000/svg">
<path fill-rule="evenodd" clip-rule="evenodd" d="M2.625 8.8035C2.625 5.39625 5.397 2.625 8.80425 2.625C12.2108 2.625 14.9827 5.39625 14.9827 8.8035C14.9827 12.2108 12.2108 14.9827 8.80425 14.9827C5.397 14.9827 2.625 12.2108 2.625 8.8035ZM1.5 8.8035C1.5 12.831 4.77675 16.1077 8.80425 16.1077C10.5267 16.1077 12.1118 15.5084 13.3618 14.5073L15.7384 16.8771C15.8486 16.9866 15.9926 17.0413 16.1359 17.0413C16.2799 17.0413 16.4246 16.9866 16.5341 16.8756C16.7539 16.6558 16.7531 16.3003 16.5334 16.0806L14.1847 13.7379C15.3783 12.4372 16.1077 10.7039 16.1077 8.8035C16.1077 4.776 12.8317 1.5 8.80425 1.5C4.77675 1.5 1.5 4.776 1.5 8.8035Z" fill="#928B8B"/>
</svg>
