<?xml version="1.0" encoding="UTF-8"?>
<svg width="200px" height="200px" viewBox="0 0 200 200" version="1.1" xmlns="http://www.w3.org/2000/svg" xmlns:xlink="http://www.w3.org/1999/xlink">
    <!-- Generator: Sketch 53.2 (72643) - https://sketchapp.com -->
    <title>search_empty</title>
    <desc>Created with Sketch.</desc>
    <defs>
        <path d="M6.79364319,0.248647887 C3.28980282,0.248647887 0.423521127,3.09671362 0.423521127,6.57960563 L0.423521127,95.836 C0.423521127,99.3179812 3.28980282,102.166047 6.79364319,102.166047 L71.9849296,102.166047 C75.4896808,102.166047 78.3377465,99.3179812 78.3158873,95.836 L77.8577559,26.2874554 C77.8340751,22.806385 74.9486667,19.9810892 71.4466479,20.0075023 L65.2340939,20.058507 C61.7311643,20.0876526 58.8412019,17.261446 58.8138779,13.7803756 L58.7555869,6.57869484 C58.7273521,3.09671362 55.8392113,0.248647887 52.3344601,0.248647887 L6.79364319,0.248647887 Z" id="path-1"></path>
        <path d="M3.47742723,1.18768075 L3.37086385,1.20589671 C3.37086385,1.20589671 -0.536460094,1.37257277 0.575624413,5.13143662 C3.43553052,14.7813427 8.62070423,44.5644413 8.62070423,44.5644413 L8.62070423,0.253201878 L3.47742723,1.18768075 Z" id="path-3"></path>
        <polygon id="path-5" points="0.647577465 47.4689765 1.07383099 47.6784601 8.62070423 48.9453803 8.62070423 0.0974553991"></polygon>
        <polygon id="path-7" points="0.319690141 0.799680751 1.48551174 7.97403756 36.8454272 0.799680751"></polygon>
        <polygon id="path-9" points="0.580178404 0.799680751 25.5305822 5.02031925 26.3402817 1.44816901 26.4869202 0.799680751"></polygon>
        <polygon id="path-11" points="0.820629108 50.3835305 9.83661972 48.3251268 0.820629108 0.374338028"></polygon>
        <polygon id="path-13" points="0.341549296 5.44566197 13.5809108 6.08686385 28.3504131 20.3781972 25.2327512 8.97682629 22.7544695 0.647577465"></polygon>
        <polygon id="path-15" points="2.84806573 12.1810141 7.566 16.9563286 8.10701408 41.9559155 14.0162723 1.91631925 0.107474178 0.136619718"></polygon>
        <polygon id="path-17" points="0.64484507 6.35646009 39.5058685 6.35646009 1.83890141 0.343370892"></polygon>
        <polygon id="path-19" points="11.5359869 3.86642088 10.4769108 9.64353052 4.91193427 11.6199624 0.407126761 7.82011268 1.46547418 2.04200939 7.02877103 0.0649399061 7.02986389 0.0649399061 11.5359869 3.8652736 11.5359869 3.86642088"></polygon>
        <polygon id="path-21" points="1.76512676 2.48283568 0.704957746 8.26002817 5.20976526 12.0626103 10.7747418 10.083446 11.8349108 4.30625352 7.32828169 0.505492958"></polygon>
        <path d="M0.2422723,3.87180282 C2.93003756,4.62503286 3.45738967,7.01678873 3.45738967,7.01678873 C3.64501408,4.7033615 6.67159624,3.87180282 6.67159624,3.87180282 C4.32264789,3.47742723 3.42824413,0.826093897 3.42824413,0.826093897 C2.51289202,3.47742723 0.2422723,3.87180282 0.2422723,3.87180282 Z" id="path-23"></path>
        <path d="M0.894403756,2.29703286 C0.894403756,3.22969014 1.65400939,3.98565258 2.59395305,3.98565258 C3.53207512,3.98565258 4.29168075,3.22969014 4.29168075,2.29703286 C4.29168075,1.36528638 3.53207512,0.610234742 2.59395305,0.610234742 C1.65400939,0.610234742 0.894403756,1.36528638 0.894403756,2.29703286 Z" id="path-25"></path>
        <path d="M0.609323944,5.00938967 C0.609323944,7.42755869 2.58211268,9.38850704 5.01667606,9.38850704 C7.44759624,9.38850704 9.42311737,7.42755869 9.42311737,5.00938967 C9.42311737,2.59122066 7.44759624,0.6302723 5.01667606,0.6302723 C2.58211268,0.6302723 0.609323944,2.59122066 0.609323944,5.00938967 Z" id="path-27"></path>
        <polygon id="path-29" points="0.774178404 7.09967136 6.18978404 3.82808451 0.774178404 0.557408451"></polygon>
        <path d="M0.556497653,8.06876056 L0.556497653,0.787840376 L0.556497653,8.06876056 Z" id="path-31"></path>
        <path d="M0.665793427,1.6986385 L0.665793427,8.97955869 C0.665793427,9.41947418 1.02555869,9.77559624 1.46729577,9.77559624 C1.91085446,9.77559624 2.27061972,9.41947418 2.27061972,8.97955869 L2.27061972,1.6986385 C2.27061972,1.2596338 1.91085446,0.902600939 1.46729577,0.902600939 C1.02555869,0.902600939 0.665793427,1.2596338 0.665793427,1.6986385 Z" id="path-33"></path>
        <path d="M0.536460094,0.786018779 L7.86292019,0.786018779 L0.536460094,0.786018779 Z" id="path-35"></path>
        <path d="M1.44725822,0.899868545 C1.00552113,0.899868545 0.646666667,1.25599061 0.646666667,1.6968169 C0.646666667,2.13673239 1.00552113,2.49285446 1.44725822,2.49285446 L8.77371831,2.49285446 C9.2163662,2.49285446 9.57522066,2.13673239 9.57522066,1.6968169 C9.57522066,1.25599061 9.2163662,0.899868545 8.77371831,0.899868545 L1.44725822,0.899868545 Z" id="path-37"></path>
        <path d="M0.109295775,5.58410329 C0.109295775,8.37478873 21.1705915,10.6390329 47.1520188,10.6390329 C73.133446,10.6390329 94.1956526,8.37478873 94.1956526,5.58410329 C94.1956526,2.79068545 73.133446,0.528262911 47.1520188,0.528262911 C21.1705915,0.528262911 0.109295775,2.79068545 0.109295775,5.58410329 Z" id="path-39"></path>
        <path d="M0.551032864,1.0674554 L4.97751174,0.888028169 L0.551032864,1.0674554 Z" id="path-41"></path>
        <path d="M0.393464789,3.75522066 L3.39909859,0.516422535 L0.393464789,3.75522066 Z" id="path-43"></path>
        <path d="M1.00825352,4.59861972 L0.181248826,0.270507042 L1.00825352,4.59861972 Z" id="path-45"></path>
        <polygon id="path-47" points="0.50913615 5.32907981 9.46319249 14.6183099 14.8323474 10.1681502 5.44748357 0.526441315"></polygon>
        <path d="M5.59138967,0.657596244 L0.651220657,5.45841315 C0.218591549,5.87829108 0.20857277,6.56138967 0.626629108,6.99492958 L9.58068545,16.2850704 C9.97961502,16.6985728 10.6353897,16.7350047 11.0780376,16.3670423 L10.3739906,15.529108 L9.66994366,14.6920845 L10.457784,14.0381315 L2.96282629,6.26446948 L6.33733333,2.98650704 L14.1301221,10.9924225 L10.457784,14.0381315 L11.1682066,14.7749671 L10.3739906,15.529108 L11.1682066,14.7749671 L10.3739906,15.529108 L11.0780376,16.3670423 L16.4462817,11.9168826 C16.6803568,11.7219718 16.8224413,11.4396244 16.8397465,11.1363286 C16.85523,10.8330329 16.7450235,10.5379343 16.5318967,10.3202535 L7.14885446,0.677633803 C6.94483568,0.469061033 6.66886385,0.348835681 6.37376526,0.346103286 C6.36921127,0.346103286 6.36374648,0.346103286 6.35828169,0.346103286 C6.07138028,0.346103286 5.79723005,0.456309859 5.59138967,0.657596244 Z" id="path-49"></path>
        <polygon id="path-51" points="0.744122066 12.1719061 29.5089484 40.2417934 33.0055023 42.2728732 44.3057746 30.7230423 42.2892676 27.1627324 15.5527887 0.200375587"></polygon>
        <path d="M0.874366197,13.2120376 L14.0372207,0.520065728 L0.874366197,13.2120376 Z" id="path-53"></path>
        <path d="M14.1838592,0.647577465 L1.0200939,13.3395493 C0.585643192,13.7585164 0.573802817,14.4498122 0.996413146,14.8833521 C1.41993427,15.3159812 2.11396244,15.326 2.55114554,14.9061221 L15.7130892,2.21506103 C16.1493615,1.7942723 16.1584695,1.10388732 15.7358592,0.670347418 C15.5209108,0.449934272 15.2340094,0.3397277 14.9480188,0.3397277 C14.6720469,0.3397277 14.3969859,0.441737089 14.1838592,0.647577465 Z" id="path-55"></path>
        <path d="M18.1339906,17.7642066 L0.294187793,0.037342723 L18.1339906,17.7642066 Z" id="path-57"></path>
        <path d="M0.222234742,13.5881972 C3.78983099,17.1330235 9.57522066,17.1330235 13.1437277,13.5881972 C16.7104131,10.0433709 16.7104131,4.29441315 13.1437277,0.749586854 L0.222234742,13.5881972 Z" id="path-59"></path>
        <polygon id="path-61" points="0.744122066 13.0827042 4.93743662 17.1776526 18.7624413 4.34632864 14.8669577 0.619342723"></polygon>
        <path d="M0.609323944,4.75709859 C0.609323944,7.17526761 2.58211268,9.13530516 5.01667606,9.13530516 C7.44759624,9.13530516 9.42220657,7.17526761 9.42220657,4.75709859 C9.42220657,2.33801878 7.44759624,0.377981221 5.01667606,0.377981221 C2.58211268,0.377981221 0.609323944,2.33801878 0.609323944,4.75709859 Z" id="path-63"></path>
        <path d="M15.226723,9.605277 C22.7134836,3.56577465 31.6903099,0.626629108 40.5915399,0.626629108 C52.2798122,0.626629108 63.8387512,5.69522066 71.7189765,15.4626197 C79.5700563,25.1944977 82.0911455,37.5075775 79.6684225,48.8961972 C77.8058404,57.6435023 73.025061,65.847061 65.5018685,71.9166197 C48.1866854,85.8882629 22.8938216,83.2651643 9.01143662,66.0574554 C-4.87185915,48.8506573 -2.08846009,23.5760094 15.226723,9.605277 Z M16.1047324,60.334 C22.2034366,67.8927136 31.1456526,71.8136995 40.1898779,71.8136995 C47.0755117,71.8127887 54.022169,69.5394366 59.8139343,64.8661315 C73.2126854,54.0558685 75.366723,34.5010329 64.62477,21.1878967 C53.8837277,7.87384977 34.3143192,5.84459155 20.9155681,16.6548545 C7.5177277,27.4642066 5.36369014,47.0208638 16.1047324,60.334 Z" id="path-65"></path>
        <path d="M0.615699531,14.5208545 L9.15625352,14.5864319 C9.22000939,10.6290141 11.0188357,8.7782723 14.2284883,8.7782723 C17.1184507,8.7782723 18.8516995,10.0552113 18.8516995,12.9269577 C18.8516995,19.2424319 10.9550798,19.7533897 10.9550798,29.6428357 L19.2369671,29.6428357 C19.2369671,21.9866667 29.0608357,20.8372394 29.0608357,11.1399718 C29.0608357,3.99293897 23.7955117,0.0382535211 15.2558685,0.0382535211 C6.20162441,0.0382535211 0.744122066,5.39738967 0.615699531,14.5208545 Z M9.605277,40.0432394 C9.605277,43.2319437 11.7893709,45.4032864 14.9343568,45.4032864 C18.0811643,45.4032864 20.3281033,43.2319437 20.3281033,40.0432394 C20.3281033,36.9155587 18.0811643,34.7469484 14.9343568,34.7469484 C11.7893709,34.7469484 9.605277,36.9155587 9.605277,40.0432394 Z" id="path-67"></path>
    </defs>
    <g id="search_empty" stroke="none" stroke-width="1" fill="none" fill-rule="evenodd">
        <g id="Page-1" transform="translate(3.000000, 7.000000)">
            <path d="M130.230834,116.784084 C130.252693,120.266065 127.405538,123.114131 123.900787,123.114131 L58.7095005,123.114131 C55.2056601,123.114131 52.3384676,120.266065 52.3384676,116.784084 L52.3384676,27.5276892 C52.3384676,24.045708 55.2056601,21.1976423 58.7095005,21.1976423 L104.250317,21.1976423 C107.754158,21.1976423 110.643209,24.045708 110.670533,27.5267784 L110.729735,34.7284592 C110.757059,38.2095296 113.647022,41.0357362 117.149951,41.0075014 L123.361594,40.9564967 C126.864524,40.9291728 129.749932,43.7544685 129.772702,47.2364498 L130.230834,116.784084" id="Fill-1" fill="#CBE9E8"></path>
            <g id="Group-5" transform="translate(51.915493, 20.948357)">
                <mask id="mask-2" fill="white">
                    <use xlink:href="#path-1"></use>
                </mask>
                <g id="Clip-4"></g>
                <polygon id="Fill-3" fill="#CBE9E8" mask="url(#mask-2)" points="-4.13046948 106.719127 82.8698779 106.719127 82.8698779 -4.30534272 -4.13046948 -4.30534272"></polygon>
            </g>
            <path d="M52.3388319,28.4873061 L47.1955549,29.421785 L47.0889915,29.4409117 C47.0889915,29.4409117 43.1816676,29.606677 44.2946629,33.3664516 C47.1536582,43.0163577 52.3388319,72.7985455 52.3388319,72.7985455 L52.3388319,28.4873061" id="Fill-6" fill="#78CBC9"></path>
            <g id="Group-10" transform="translate(43.718310, 28.234742)">
                <mask id="mask-4" fill="white">
                    <use xlink:href="#path-3"></use>
                </mask>
                <g id="Clip-9"></g>
                <polygon id="Fill-8" fill="#78CBC9" mask="url(#mask-4)" points="-4.17692019 49.1175211 13.1746948 49.1175211 13.1746948 -4.30169953 -4.17692019 -4.30169953"></polygon>
            </g>
            <polyline id="Fill-11" fill="#2BBDC3" points="44.7918676 116.898844 52.3387408 118.166675 52.3387408 69.3178394 44.3656141 116.689361"></polyline>
            <g id="Group-15" transform="translate(43.718310, 69.220657)">
                <mask id="mask-6" fill="white">
                    <use xlink:href="#path-5"></use>
                </mask>
                <g id="Clip-14"></g>
                <polygon id="Fill-13" fill="#2BBDC3" mask="url(#mask-6)" points="-3.90641315 53.4993709 13.1746948 53.4993709 13.1746948 -4.45744601 -3.90641315 -4.45744601"></polygon>
            </g>
            <polygon id="Fill-16" fill="#78CBC9" points="59.5212038 123.757336 60.6870254 130.931693 96.0478516 123.757336"></polygon>
            <g id="Group-20" transform="translate(59.201878, 122.957746)">
                <mask id="mask-8" fill="white">
                    <use xlink:href="#path-7"></use>
                </mask>
                <g id="Clip-19"></g>
                <polygon id="Fill-18" fill="#78CBC9" mask="url(#mask-8)" points="-4.23430047 12.5280282 41.4003286 12.5280282 41.4003286 -3.75430986 -4.23430047 -3.75430986"></polygon>
            </g>
            <g id="Group-23" transform="translate(94.723005, 122.957746)">
                <mask id="mask-10" fill="white">
                    <use xlink:href="#path-9"></use>
                </mask>
                <g id="Clip-22"></g>
                <polygon id="Fill-21" fill="#FFFFFF" mask="url(#mask-10)" points="-3.97381221 9.57430986 31.0409108 9.57430986 31.0409108 -3.75430986 -3.97381221 -3.75430986"></polygon>
            </g>
            <polygon id="Fill-24" fill="#78CBC9" points="128.332731 118.693754 137.348721 116.63535 128.332731 68.6845615"></polygon>
            <g id="Group-28" transform="translate(127.511737, 68.309859)">
                <mask id="mask-12" fill="white">
                    <use xlink:href="#path-11"></use>
                </mask>
                <g id="Clip-27"></g>
                <polygon id="Fill-26" fill="#78CBC9" mask="url(#mask-12)" points="-3.7333615 54.9375211 14.3906103 54.9375211 14.3906103 -4.17965258 -3.7333615 -4.17965258"></polygon>
            </g>
            <polygon id="Fill-29" fill="#78CBC9" points="95.064554 21.8395728 117.476563 17.0414883 119.955756 25.3707371 123.073418 36.7730188 108.303915 22.4816854"></polygon>
            <g id="Group-33" transform="translate(94.723005, 16.394366)">
                <mask id="mask-14" fill="white">
                    <use xlink:href="#path-13"></use>
                </mask>
                <g id="Clip-32"></g>
                <polygon id="Fill-31" fill="#78CBC9" mask="url(#mask-14)" points="-4.21244131 24.9321878 32.9044038 24.9321878 32.9044038 -3.90641315 -4.21244131 -3.90641315"></polygon>
            </g>
            <polygon id="Fill-34" fill="#2BBDC3" points="134.242171 26.5083239 128.332913 66.5470094 127.791899 41.5483333 123.073054 36.7730188 120.333373 24.7286244"></polygon>
            <g id="Group-38" transform="translate(120.225352, 24.591549)">
                <mask id="mask-16" fill="white">
                    <use xlink:href="#path-15"></use>
                </mask>
                <g id="Clip-37"></g>
                <polygon id="Fill-36" fill="#2BBDC3" mask="url(#mask-16)" points="-4.44651643 46.5089953 18.5702629 46.5089953 18.5702629 -4.41737089 -4.44651643 -4.41737089"></polygon>
            </g>
            <polygon id="Fill-39" fill="#2BBDC3" points="56.2035305 21.8395728 57.3975869 15.8264836 95.064554 21.8395728"></polygon>
            <g id="Group-43" transform="translate(55.558685, 15.483568)">
                <mask id="mask-18" fill="white">
                    <use xlink:href="#path-17"></use>
                </mask>
                <g id="Clip-42"></g>
                <polygon id="Fill-41" fill="#2BBDC3" mask="url(#mask-18)" points="-3.90914554 10.9104507 44.0598592 10.9104507 44.0598592 -4.21061972 -3.90914554 -4.21061972"></polygon>
            </g>
            <g id="Group-46" transform="translate(6.375587, 72.863850)">
                <mask id="mask-20" fill="white">
                    <use xlink:href="#path-19"></use>
                </mask>
                <g id="Clip-45"></g>
                <polygon id="Fill-44" fill="#DCDFE9" mask="url(#mask-20)" points="7.02935775 0.0649399061 1.46620282 2.04228263 0.406944601 7.82038592 4.91175211 11.6211465 10.4767286 9.64380376 11.5359869 3.86570047"></polygon>
            </g>
            <g id="Group-49" transform="translate(7.286385, 71.953052)">
                <mask id="mask-22" fill="white">
                    <use xlink:href="#path-21"></use>
                </mask>
                <g id="Clip-48"></g>
                <polygon id="Fill-47" fill="#515E91" mask="url(#mask-22)" points="-3.84866854 -4.04786009 -3.84866854 -3.59246103 15.9338667 -3.59246103 15.9338667 16.1600178 -3.39326948 16.1600178 -3.39326948 -4.04786009 -3.84866854 -4.04786009 -3.84866854 -3.59246103 -3.84866854 -4.04786009 -4.30406761 -4.04786009 -4.30406761 17.070816 16.8446648 17.070816 16.8446648 -4.50325915 -4.30406761 -4.50325915 -4.30406761 -4.04786009"></polygon>
            </g>
            <g id="Group-54" transform="translate(7.286385, 50.093897)" fill="#515E91">
                <polygon id="Fill-50" points="7.17608732 21.9365728 1.36428451 24.0022629 0.210303286 30.2976995 5.11495117 34.4381878 11.1754019 32.2832394 12.3302939 25.986892 7.62146761 22.016723 7.03491362 22.7143944 11.3384347 26.3430141 10.3748103 31.6019624 5.30257559 33.4044319 1.20034085 29.9415775 2.16487606 24.6835399 7.4802939 22.7936338"></polygon>
                <path d="M18.0007408,0.826276056 C17.0853887,3.47669859 14.814769,3.87198498 14.814769,3.87198498 C17.5025343,4.62430423 18.0298864,7.01697089 18.0298864,7.01697089 C18.2175108,4.70354366 21.2450038,3.87198498 21.2450038,3.87198498 C18.8951446,3.47669859 18.0007408,0.826276056 18.0007408,0.826276056" id="Fill-52"></path>
            </g>
            <g id="Group-57" transform="translate(21.859155, 50.093897)">
                <mask id="mask-24" fill="white">
                    <use xlink:href="#path-23"></use>
                </mask>
                <g id="Clip-56"></g>
                <polygon id="Fill-55" fill="#515E91" mask="url(#mask-24)" points="-4.31171831 11.5707793 11.2264977 11.5707793 11.2264977 -3.72789671 -4.31171831 -3.72789671"></polygon>
            </g>
            <path d="M33.560816,70.7415991 C32.6217831,70.7415991 31.8621775,71.4966507 31.8621775,72.429308 C31.8621775,73.3610545 32.6217831,74.1170169 33.560816,74.1170169 C34.498938,74.1170169 35.2585437,73.3610545 35.2585437,72.429308 C35.2585437,71.4966507 34.498938,70.7415991 33.560816,70.7415991" id="Fill-58" fill="#515E91"></path>
            <g id="Group-62" transform="translate(30.967136, 70.131455)">
                <mask id="mask-26" fill="white">
                    <use xlink:href="#path-25"></use>
                </mask>
                <g id="Clip-61"></g>
                <polygon id="Fill-60" fill="#515E91" mask="url(#mask-26)" points="-3.65958685 8.53964319 8.84476056 8.53964319 8.84476056 -3.94375587 -3.65958685 -3.94375587"></polygon>
            </g>
            <path d="M159.852175,79.8700732 C157.417611,79.8700732 155.444823,81.8301108 155.444823,84.2491906 C155.444823,86.6673596 157.417611,88.6273972 159.852175,88.6273972 C162.284006,88.6273972 164.258616,86.6673596 164.258616,84.2491906 C164.258616,81.8301108 162.284006,79.8700732 159.852175,79.8700732" id="Fill-63" fill="#DCDFE9"></path>
            <g id="Group-67" transform="translate(154.835681, 79.239437)">
                <mask id="mask-28" fill="white">
                    <use xlink:href="#path-27"></use>
                </mask>
                <g id="Clip-66"></g>
                <polygon id="Fill-65" fill="#DCDFE9" mask="url(#mask-28)" points="-3.94466667 13.9415869 13.977108 13.9415869 13.977108 -3.92371831 -3.94466667 -3.92371831"></polygon>
            </g>
            <g id="Group-70" transform="translate(137.530516, 70.131455)">
                <mask id="mask-30" fill="white">
                    <use xlink:href="#path-29"></use>
                </mask>
                <g id="Clip-69"></g>
                <polygon id="Fill-68" fill="#E4E4E3" mask="url(#mask-30)" points="-3.77981221 11.653662 10.7437746 11.653662 10.7437746 -3.99658216 -3.77981221 -3.99658216"></polygon>
            </g>
            <g id="Group-73" transform="translate(143.906103, 48.272300)">
                <mask id="mask-32" fill="white">
                    <use xlink:href="#path-31"></use>
                </mask>
                <g id="Clip-72"></g>
                <polygon id="Fill-71" fill="#FFFFFF" mask="url(#mask-32)" points="-3.99749296 12.6218404 5.11048826 12.6218404 5.11048826 -3.76615023 -3.99749296 -3.76615023"></polygon>
            </g>
            <path d="M143.661463,49.060323 L143.661463,56.3403324 C143.661463,56.7811587 144.021228,57.13637 144.462965,57.13637 C144.905613,57.13637 145.265378,56.7811587 145.265378,56.3403324 L145.265378,49.060323 C145.265378,48.6213183 144.905613,48.2642854 144.462965,48.2642854 C144.021228,48.2642854 143.661463,48.6213183 143.661463,49.060323" id="Fill-74" fill="#515E91"></path>
            <g id="Group-78" transform="translate(142.995305, 47.361502)">
                <mask id="mask-34" fill="white">
                    <use xlink:href="#path-33"></use>
                </mask>
                <g id="Clip-77"></g>
                <polygon id="Fill-76" fill="#515E91" mask="url(#mask-34)" points="-3.88819718 14.3286761 6.82369953 14.3286761 6.82369953 -3.65138967 -3.88819718 -3.65138967"></polygon>
            </g>
            <g id="Group-81" transform="translate(140.262911, 51.915493)">
                <mask id="mask-36" fill="white">
                    <use xlink:href="#path-35"></use>
                </mask>
                <g id="Clip-80"></g>
                <polygon id="Fill-79" fill="#FFFFFF" mask="url(#mask-36)" points="-4.01661972 5.33909859 12.4169108 5.33909859 12.4169108 -3.76888263 -4.01661972 -3.76888263"></polygon>
            </g>
            <path d="M148.125649,51.9048366 L140.8001,51.9048366 C140.358362,51.9048366 139.998597,52.2609587 139.998597,52.7008742 C139.998597,53.1407897 140.358362,53.4969117 140.8001,53.4969117 L148.125649,53.4969117 C148.568297,53.4969117 148.927151,53.1407897 148.927151,52.7008742 C148.927151,52.2609587 148.568297,51.9048366 148.125649,51.9048366" id="Fill-82" fill="#515E91"></path>
            <g id="Group-86" transform="translate(139.352113, 51.004695)">
                <mask id="mask-38" fill="white">
                    <use xlink:href="#path-37"></use>
                </mask>
                <g id="Clip-85"></g>
                <polygon id="Fill-84" fill="#515E91" mask="url(#mask-38)" points="-3.90732394 7.04593427 14.1292113 7.04593427 14.1292113 -3.65412207 -3.90732394 -3.65412207"></polygon>
            </g>
            <path d="M91.7815822,159.007227 C65.8001549,159.007227 44.7388592,161.26965 44.7388592,164.063068 C44.7388592,166.853753 65.8001549,169.117997 91.7815822,169.117997 C117.762099,169.117997 138.824305,166.853753 138.824305,164.063068 C138.824305,161.26965 117.762099,159.007227 91.7815822,159.007227" id="Fill-87" fill="#F4F3F1"></path>
            <g id="Group-91" transform="translate(44.629108, 158.478873)">
                <mask id="mask-40" fill="white">
                    <use xlink:href="#path-39"></use>
                </mask>
                <g id="Clip-90"></g>
                <polygon id="Fill-89" fill="#F4F3F1" mask="url(#mask-40)" points="-3.81169014 15.1930235 98.1157277 15.1930235 98.1157277 -4.0257277 -3.81169014 -4.0257277"></polygon>
            </g>
            <g id="Group-94" transform="translate(124.779343, 17.305164)">
                <mask id="mask-42" fill="white">
                    <use xlink:href="#path-41"></use>
                </mask>
                <g id="Clip-93"></g>
                <polygon id="Fill-92" fill="#FFFFFF" mask="url(#mask-42)" points="-4.00386854 5.62144601 9.53059155 5.62144601 9.53059155 -3.66505164 -4.00386854 -3.66505164"></polygon>
            </g>
            <g id="Group-97" transform="translate(119.314554, 6.375587)">
                <mask id="mask-44" fill="white">
                    <use xlink:href="#path-43"></use>
                </mask>
                <g id="Clip-96"></g>
                <polygon id="Fill-95" fill="#FFFFFF" mask="url(#mask-44)" points="-4.15961502 8.30921127 7.9530892 8.30921127 7.9530892 -4.03756808 -4.15961502 -4.03756808"></polygon>
            </g>
            <g id="Group-100" transform="translate(110.206573, 1.821596)">
                <mask id="mask-46" fill="white">
                    <use xlink:href="#path-45"></use>
                </mask>
                <g id="Clip-99"></g>
                <polygon id="Fill-98" fill="#FFFFFF" mask="url(#mask-46)" points="-4.37274178 9.15261033 5.56224413 9.15261033 5.56224413 -4.28348357 -4.37274178 -4.28348357"></polygon>
            </g>
            <g id="Group-103" transform="translate(132.065728, 114.760563)">
                <mask id="mask-48" fill="white">
                    <use xlink:href="#path-47"></use>
                </mask>
                <g id="Clip-102"></g>
                <polygon id="Fill-101" fill="#FFFFFF" mask="url(#mask-48)" points="-4.04485446 19.1732113 19.386338 19.1732113 19.386338 -4.0275493 -4.04485446 -4.0275493"></polygon>
            </g>
            <path d="M141.529467,129.379602 L142.322772,128.62455 L134.118302,120.114053 L137.491899,116.83609 L145.285598,124.842916 L140.82542,128.541668 L141.529467,129.379602 L142.322772,128.62455 L141.529467,129.379602 L142.232603,130.217536 L147.600847,125.766466 C147.835833,125.571555 147.977007,125.290118 147.994312,124.986823 C148.009795,124.683527 147.899589,124.388428 147.687373,124.169837 L138.30342,114.527217 C138.099401,114.318644 137.823429,114.19933 137.528331,114.195686 C137.235964,114.191132 136.956349,114.30225 136.745955,114.507179 L131.805786,119.307996 C131.374068,119.727874 131.363138,120.410973 131.781194,120.844513 L140.736162,130.134654 C141.13418,130.548156 141.790866,130.584588 142.232603,130.217536 L141.529467,129.379602" id="Fill-104" fill="#8880BA"></path>
            <g id="Group-108" transform="translate(131.154930, 113.849765)">
                <mask id="mask-50" fill="white">
                    <use xlink:href="#path-49"></use>
                </mask>
                <g id="Clip-107"></g>
                <polygon id="Fill-106" fill="#8880BA" mask="url(#mask-50)" points="-4.23338967 21.1751455 21.3955587 21.1751455 21.3955587 -4.20788732 -4.23338967 -4.20788732"></polygon>
            </g>
            <polygon id="Fill-109" fill="#00A9A8" points="135.541698 132.397531 150.351275 120.42509 177.086843 147.387447 179.10335 150.948668 167.803989 162.498499 164.306524 160.466508"></polygon>
            <g id="Group-113" transform="translate(134.798122, 120.225352)">
                <mask id="mask-52" fill="white">
                    <use xlink:href="#path-51"></use>
                </mask>
                <g id="Clip-112"></g>
                <polygon id="Fill-111" fill="#00A9A8" mask="url(#mask-52)" points="-3.81077934 46.8268638 48.8588545 46.8268638 48.8588545 -4.35361502 -3.81077934 -4.35361502"></polygon>
            </g>
            <g id="Group-116" transform="translate(140.262911, 123.868545)">
                <mask id="mask-54" fill="white">
                    <use xlink:href="#path-53"></use>
                </mask>
                <g id="Clip-115"></g>
                <polygon id="Fill-114" fill="#969797" mask="url(#mask-54)" points="-3.67962441 17.7660282 18.5912113 17.7660282 18.5912113 -4.03392488 -3.67962441 -4.03392488"></polygon>
            </g>
            <g id="Group-119" transform="translate(139.352113, 122.957746)">
                <mask id="mask-56" fill="white">
                    <use xlink:href="#path-55"></use>
                </mask>
                <g id="Clip-118"></g>
                <polygon id="Fill-117" fill="#FFFFFF" mask="url(#mask-56)" points="-3.86724883 19.7679624 20.6004319 19.7679624 20.6004319 -4.21426291 -3.86724883 -4.21426291"></polygon>
            </g>
            <g id="Group-122" transform="translate(149.370892, 137.530516)">
                <mask id="mask-58" fill="white">
                    <use xlink:href="#path-57"></use>
                </mask>
                <g id="Clip-121"></g>
                <polygon id="Fill-120" fill="#969797" mask="url(#mask-58)" points="-4.25980282 22.3181972 22.6870704 22.3181972 22.6870704 -4.51664789 -4.25980282 -4.51664789"></polygon>
            </g>
            <path d="M177.087116,147.387447 C180.654713,150.933184 180.654713,156.681231 177.087116,160.226968 C173.518609,163.770884 167.73322,163.770884 164.165623,160.226968" id="Fill-123" fill="#00A9A8"></path>
            <g id="Group-127" transform="translate(163.943662, 146.638498)">
                <mask id="mask-60" fill="white">
                    <use xlink:href="#path-59"></use>
                </mask>
                <g id="Clip-126"></g>
                <polygon id="Fill-125" fill="#00A9A8" mask="url(#mask-60)" points="-4.33175587 20.8008075 20.3727324 20.8008075 20.3727324 -3.80531455 -4.33175587 -3.80531455"></polygon>
            </g>
            <polygon id="Fill-128" fill="#00A9A8" points="149.665262 119.933623 135.541515 132.397896 139.735741 136.491933 153.559835 123.66152"></polygon>
            <g id="Group-132" transform="translate(134.798122, 119.314554)">
                <mask id="mask-62" fill="white">
                    <use xlink:href="#path-61"></use>
                </mask>
                <g id="Clip-131"></g>
                <polygon id="Fill-130" fill="#00A9A8" mask="url(#mask-62)" points="-3.81077934 21.7316432 23.3155211 21.7316432 23.3155211 -3.93464789 -3.81077934 -3.93464789"></polygon>
            </g>
            <g id="Group-139" transform="translate(113.849765, 0.000000)" fill="#2BBDC3">
                <path d="M19.4460864,17.5212967 L15.1708,17.4156441 C14.4166592,17.3965174 13.7891192,17.9940009 13.7709033,18.7481418 C13.7517765,19.5022826 14.3483493,20.1289117 15.1024901,20.1471277 L19.3786873,20.2536911 C20.1328282,20.271907 20.7594573,19.6753343 20.7776732,18.9211934 C20.7968,18.1670526 20.2002272,17.5404235 19.4460864,17.5212967" id="Fill-133"></path>
                <path d="M12.4051615,6.50100376 L9.30753709,9.45016808 C8.76014742,9.9702338 8.74010986,10.835492 9.25926479,11.3810601 C9.77933052,11.9284498 10.6445887,11.9484873 11.1910676,11.4284216 L14.288692,8.47925728 C14.8360817,7.96010235 14.8561192,7.09393333 14.3360535,6.54836526 C13.8168986,6.00097559 12.9516404,5.98093803 12.4051615,6.50100376" id="Fill-135"></path>
                <path d="M0.42698216,2.22717465 L0.948869484,6.47331549 C1.04177089,7.22199155 1.72304789,7.75480845 2.47172394,7.66281784 C3.2204,7.57082723 3.7532169,6.88863944 3.66122629,6.13996338 L3.14024977,1.89382254 C3.04734836,1.14605728 2.36607136,0.613240376 1.61739531,0.704320188 C0.867808451,0.797221596 0.334991549,1.47849859 0.42698216,2.22717465" id="Fill-137"></path>
            </g>
            <g id="Group-142" transform="translate(155.746479, 78.328638)">
                <mask id="mask-64" fill="white">
                    <use xlink:href="#path-63"></use>
                </mask>
                <g id="Clip-141"></g>
                <polygon id="Fill-140" fill="#515E91" mask="url(#mask-64)" points="-3.94475775 -4.17600939 -3.94475775 -3.72061033 13.5216178 -3.72061033 13.5216178 13.2338967 -3.48935869 13.2338967 -3.48935869 -4.17600939 -3.94475775 -4.17600939 -3.94475775 -3.72061033 -3.94475775 -4.17600939 -4.40015681 -4.17600939 -4.40015681 14.1446948 14.432416 14.1446948 14.432416 -4.63140845 -4.40015681 -4.63140845 -4.40015681 -4.17600939"></polygon>
            </g>
            <g id="Group-153" transform="translate(0.000000, 32.788732)">
                <path d="M160.762973,45.4624883 C158.078851,45.4670423 155.901132,47.6238122 155.900222,50.2970047 C155.901132,52.9683756 158.078851,55.1260563 160.762973,55.1306103 C163.443452,55.1306103 165.623902,52.9692864 165.624813,50.2970047 C165.623902,47.6238122 163.443452,45.4624883 160.762973,45.4624883 L160.762973,46.3732864 C161.85502,46.3732864 162.840503,46.8122911 163.556391,47.5236244 C164.273189,48.2349577 164.714015,49.2122441 164.714015,50.2970047 C164.714015,51.3808545 164.273189,52.3581408 163.556391,53.070385 C162.840503,53.7808075 161.85502,54.2198122 160.762973,54.2198122 C158.577968,54.2198122 156.814663,52.461061 156.81102,50.2970047 C156.814663,48.1320376 158.577968,46.3732864 160.762973,46.3732864 L160.762973,45.4624883 Z" id="Fill-143" fill="#515E91"></path>
                <path d="M180.037374,55.1308836 L185.502162,55.1308836 C185.753543,55.1308836 185.957562,54.9268648 185.957562,54.6754845 C185.957562,54.4241042 185.753543,54.2200854 185.502162,54.2200854 L180.037374,54.2200854 C179.785993,54.2200854 179.581975,54.4241042 179.581975,54.6754845 C179.581975,54.9268648 179.785993,55.1308836 180.037374,55.1308836 M187.323759,55.1308836 L192.788547,55.1308836 C193.039928,55.1308836 193.243946,54.9268648 193.243946,54.6754845 C193.243946,54.4241042 193.039928,54.2200854 192.788547,54.2200854 L187.323759,54.2200854 C187.072378,54.2200854 186.86836,54.4241042 186.86836,54.6754845 C186.86836,54.9268648 187.072378,55.1308836 187.323759,55.1308836" id="Fill-145" fill="#78CBC9"></path>
                <path d="M0.455399061,0.703591549 L24.2381596,0.703591549" id="Fill-147" fill="#EDEFF4"></path>
                <path d="M0.455399061,1.15899061 L5.92018779,1.15899061 C6.17156808,1.15899061 6.37558685,0.954971831 6.37558685,0.703591549 C6.37558685,0.452211268 6.17156808,0.248192488 5.92018779,0.248192488 L0.455399061,0.248192488 C0.204018779,0.248192488 0,0.452211268 0,0.703591549 C0,0.954971831 0.204018779,1.15899061 0.455399061,1.15899061 M7.74178404,1.15899061 L13.2065728,1.15899061 C13.4579531,1.15899061 13.6619718,0.954971831 13.6619718,0.703591549 C13.6619718,0.452211268 13.4579531,0.248192488 13.2065728,0.248192488 L7.74178404,0.248192488 C7.49040376,0.248192488 7.28638498,0.452211268 7.28638498,0.703591549 C7.28638498,0.954971831 7.49040376,1.15899061 7.74178404,1.15899061 M15.028169,1.15899061 L20.4929577,1.15899061 C20.744338,1.15899061 20.9483568,0.954971831 20.9483568,0.703591549 C20.9483568,0.452211268 20.744338,0.248192488 20.4929577,0.248192488 L15.028169,0.248192488 C14.7767887,0.248192488 14.57277,0.452211268 14.57277,0.703591549 C14.57277,0.954971831 14.7767887,1.15899061 15.028169,1.15899061 M22.314554,1.15899061 L24.2381596,1.15899061 C24.4904507,1.15899061 24.6935587,0.954971831 24.6935587,0.703591549 C24.6935587,0.452211268 24.4904507,0.248192488 24.2381596,0.248192488 L22.314554,0.248192488 C22.0631737,0.248192488 21.8591549,0.452211268 21.8591549,0.703591549 C21.8591549,0.954971831 22.0631737,1.15899061 22.314554,1.15899061" id="Fill-149" fill="#78CBC9"></path>
                <path d="M80.8049164,26.9103502 C63.4888225,40.8810826 60.7063343,66.1566413 74.5887192,83.3625286 C88.4711042,100.570238 113.763968,103.193336 131.079151,89.221693 C138.603254,83.1521343 143.383123,74.9485756 145.245705,66.2012704 C147.669339,54.8126507 145.14825,42.4995709 137.296259,32.7686038 C123.414785,15.5618056 98.1219211,12.938707 80.8049164,26.9103502 M125.391217,82.1721155 C111.993377,92.9814676 92.4239681,90.9522094 81.6829258,77.6390732 C70.9409728,64.3259371 73.0950103,44.7692798 86.4928507,33.9599277 C99.8916019,23.1496648 119.46101,25.1798338 130.202053,38.49297 C140.944006,51.8061061 138.789968,71.3618526 125.391217,82.1721155" id="Fill-151" fill="#8472A6"></path>
            </g>
            <g id="Group-156" transform="translate(65.577465, 50.093897)">
                <mask id="mask-66" fill="white">
                    <use xlink:href="#path-65"></use>
                </mask>
                <g id="Clip-155"></g>
                <polygon id="Fill-154" fill="#8472A6" mask="url(#mask-66)" points="-22.5306864 34.2172282 47.2674169 -22.0965089 103.259642 47.3035756 33.4633606 103.617313"></polygon>
            </g>
            <path d="M105.103826,103.056261 C101.95793,103.056261 99.7738357,105.225782 99.7738357,108.352552 C99.7738357,111.542167 101.95793,113.712599 105.103826,113.712599 C108.250634,113.712599 110.497573,111.542167 110.497573,108.352552 C110.497573,105.225782 108.250634,103.056261 105.103826,103.056261 M105.425338,68.348477 C96.3710939,68.348477 90.9135915,73.7067023 90.7842582,82.8310779 L99.3248122,82.8957446 C99.3894789,78.9392376 101.187394,77.087585 104.397958,77.087585 C107.287009,77.087585 109.021169,78.3654347 109.021169,81.2362704 C109.021169,87.5526554 101.123638,88.0627023 101.123638,97.9521484 L109.406437,97.9521484 C109.406437,90.2968901 119.230305,89.1474629 119.230305,79.4492845 C119.230305,72.3031624 113.964981,68.348477 105.425338,68.348477" id="Fill-157" fill="#8472A6"></path>
            <g id="Group-161" transform="translate(90.169014, 68.309859)">
                <mask id="mask-68" fill="white">
                    <use xlink:href="#path-67"></use>
                </mask>
                <g id="Clip-160"></g>
                <polygon id="Fill-159" fill="#8472A6" mask="url(#mask-68)" points="-3.93829108 49.957277 33.6148263 49.957277 33.6148263 -4.51573709 -3.93829108 -4.51573709"></polygon>
            </g>
            <g id="Group-178" transform="translate(78.328638, 50.093897)">
                <path d="M51.60063,20.8531784 L51.6425268,27.3043615 L56.365015,52.4196197 C57.921569,48.6316103 58.7121418,44.5840235 58.7084986,40.5245962 C58.7039446,33.7191127 56.468846,26.8817512 51.8738695,21.1874413 C51.7827897,21.0754131 51.6917099,20.9642958 51.60063,20.8531784" id="Fill-162" fill="#FFFFFF"></path>
                <path d="M27.7882685,9.70837934 C20.9017239,9.70837934 13.9559775,11.9817315 8.16421221,16.6550366 C7.66873803,17.0539662 7.18874742,17.4665577 6.72424038,17.8891681 L13.8275549,25.8832432 C15.9925221,20.9913465 20.6266629,18.2543981 27.096062,18.2543981 C35.6357052,18.2543981 40.9010291,22.2099944 40.9010291,29.3552056 C40.9010291,38.0314685 33.0408413,39.865816 31.3813671,45.6357221 L47.8722779,64.1905014 C48.620954,63.5447455 49.3313765,62.8707549 50.0044563,62.1721728 L50.0044563,19.0732056 C44.0241559,12.8989052 35.9481089,9.70746854 27.7882685,9.70837934 M50.1173953,19.1906986 L51.6420714,27.3040883 L51.6010854,20.8529052 C51.1220056,20.2772808 50.6265315,19.7226047 50.1173953,19.1906986" id="Fill-164" fill="#D5EDED"></path>
                <path d="M50.004092,19.0733878 L50.004092,62.1714441 C52.7802047,59.2851249 54.9087399,55.9652657 56.3651061,52.4195286 L51.6426178,27.3042704 L50.117031,19.1908808 C50.0796883,19.1508056 50.0423455,19.1125521 50.004092,19.0733878" id="Fill-166" fill="#93D5D4"></path>
                <path d="M26.0689549,26.9939615 C22.8593023,26.9939615 21.0604761,28.8447033 20.9967202,32.8021211 L19.9702507,32.7939239 L25.7510864,39.3006657 C27.9934714,36.542769 30.6921662,34.8341117 30.6921662,31.1426469 C30.6921662,28.2709005 28.9589174,26.9939615 26.0689549,26.9939615" id="Fill-168" fill="#D5EDED"></path>
                <path d="M67.8019981,40.6807981 C67.7883362,43.4396056 67.491416,46.1938592 66.9167023,48.8961972 C65.7417728,54.4165446 63.4046648,59.7201221 59.9490967,64.408 C59.9582047,64.4161972 59.9664019,64.4243944 59.9745991,64.4335023 L60.0347117,64.4945258 C65.163416,57.4267324 67.7819606,49.0537653 67.8019981,40.6807981" id="Fill-170" fill="#FFFFFF"></path>
                <path d="M59.9490056,64.4078178 C58.210292,66.7658742 56.1883202,68.968184 53.8903765,70.9628319 L54.0288178,71.1185784 C56.3112779,69.090231 58.314123,66.866062 60.0346207,64.4952545 L59.974508,64.4333202 C59.9672216,64.425123 59.9581136,64.416015 59.9490056,64.4078178" id="Fill-172" fill="#A099C8"></path>
                <path d="M27.9590432,0.83429108 C18.3227991,0.835201878 8.6045831,4.25798122 0.785381221,11.2073709 L6.72469577,17.8898967 C7.18829202,17.4663756 7.66919343,17.0546948 8.16466761,16.6548545 C13.9564329,11.9815493 20.9021793,9.70819718 27.7887239,9.70819718 C36.8329493,9.70728638 45.7760761,13.6291831 51.8738695,21.1878967 C56.468846,26.8822066 58.7039446,33.7186573 58.7084986,40.5241408 C58.7121418,44.5835681 57.921569,48.6320657 56.365015,52.4200751 C54.9086488,55.9649014 52.7801136,59.2856714 50.0040009,62.1719906 C49.3318319,62.8705728 48.6214094,63.5454742 47.8718225,64.19123 L53.8903765,70.9630141 C60.7587052,65.0009296 65.1505737,57.1935681 66.9166113,48.8961972 C67.4913249,46.1938592 67.7882451,43.4396056 67.801907,40.6807981 C67.8255878,31.2148732 64.5275878,21.7471268 57.7876817,14.1629108 C49.9366019,5.32907981 39.0015596,0.83429108 27.9590432,0.83429108" id="Fill-174" fill="#9D8EB8"></path>
                <path d="M27.0962441,18.254216 C20.6259343,18.254216 15.9927042,20.9911643 13.8277371,25.883061 L19.9701596,32.7941972 L20.9966291,32.8023944 C21.060385,28.8449765 22.8592113,26.9942347 26.0688638,26.9942347 C28.9588263,26.9942347 30.6920751,28.2711737 30.6920751,31.1420094 C30.6920751,34.834385 27.9933803,36.5430423 25.7509953,39.3000282 L31.3815493,45.6355399 C33.0401127,39.8665446 40.9012113,38.0312864 40.9012113,29.3550235 C40.9012113,22.2098122 35.6358873,18.254216 27.0962441,18.254216" id="Fill-176" fill="#9D8EB8"></path>
            </g>
        </g>
    </g>
</svg>