<svg width="20" height="20" viewBox="0 0 20 20" fill="none" xmlns="http://www.w3.org/2000/svg"><path d="M16.667 6.666h-2.5V3.333H2.5C1.583 3.333.833 4.083.833 5v9.166H2.5c0 1.384 1.117 2.5 2.5 2.5s2.5-1.116 2.5-2.5h5c0 1.384 1.117 2.5 2.5 2.5 1.384 0 2.5-1.116 2.5-2.5h1.667V10l-2.5-3.334zm-.417 1.25L17.884 10h-3.717V7.916h2.083zM5 15a.836.836 0 01-.833-.834c0-.458.375-.833.833-.833.458 0 .833.375.833.833A.836.836 0 015 15zm1.85-2.5A2.474 2.474 0 005 11.666c-.742 0-1.392.325-1.85.834H2.5V5h10v7.5H6.85zM15 15a.836.836 0 01-.833-.834c0-.458.375-.833.833-.833.459 0 .834.375.834.833A.836.836 0 0115 15z" fill="var(--primaryColor)"></path></svg>