<svg width="14" height="14" viewBox="0 0 14 14" fill="none"
    xmlns="http://www.w3.org/2000/svg">
    <path d="M12.4739 14.035C12.7667 14.3278 13.2419 14.3278 13.5346 14.035C13.8273 13.7423 13.8273 13.2671 13.5346 12.9744L7.93861 7.37837L13.5368 1.78022C13.8295 1.48747 13.8295 1.0123 13.5368 0.719556C13.244 0.426815 12.7688 0.426815 12.4761 0.719556L6.87795 6.31771L1.28255 0.722313C0.989811 0.429571 0.514635 0.429571 0.221893 0.722313C-0.0708486 1.01506 -0.0708489 1.49023 0.221893 1.78297L5.81729 7.37837L0.219822 12.9758C-0.0736275 13.2693 -0.0729201 13.7438 0.219822 14.0365C0.512564 14.3292 0.987033 14.3299 1.28048 14.0365L6.87795 8.43903L12.4739 14.035Z" fill="#261A1A"/>
</svg>
