<svg viewBox="0 0 20 20" xmlns="http://www.w3.org/2000/svg">
<path d="M19.0707 18.5405L19.1414 18.4697L19.0707 18.399L13.5574 12.8857C14.6735 11.6145 15.35 9.94806 15.35 8.125C15.35 4.13752 12.1125 0.9 8.125 0.9C4.13752 0.9 0.9 4.13752 0.9 8.125C0.9 12.1125 4.13752 15.35 8.125 15.35C9.94806 15.35 11.6145 14.6735 12.8857 13.5574L18.399 19.0707L18.4697 19.1414L18.5405 19.0707L19.0707 18.5405ZM8.125 1.85C11.588 1.85 14.4 4.66198 14.4 8.125C14.4 11.588 11.588 14.4 8.125 14.4C4.66198 14.4 1.85 11.588 1.85 8.125C1.85 4.66198 4.66198 1.85 8.125 1.85Z" fill="currentColor" stroke="currentColor" stroke-width="0.2"/>
</svg>
