<svg viewBox="0 0 18 18" xmlns="http://www.w3.org/2000/svg">
<path d="M5.82353 4C5.82353 3.20435 6.15819 2.44129 6.7539 1.87868C7.3496 1.31607 8.15755 1 9 1C9.84245 1 10.6504 1.31607 11.2461 1.87868C11.8418 2.44129 12.1765 3.20435 12.1765 4C12.1765 4.79565 11.8418 5.55871 11.2461 6.12132C10.6504 6.68393 9.84245 7 9 7C8.15755 7 7.3496 6.68393 6.7539 6.12132C6.15819 5.55871 5.82353 4.79565 5.82353 4V4ZM9 0C7.87673 0 6.79947 0.421427 6.00519 1.17157C5.21092 1.92172 4.76471 2.93913 4.76471 4C4.76471 5.06087 5.21092 6.07828 6.00519 6.82843C6.79947 7.57857 7.87673 8 9 8C10.1233 8 11.2005 7.57857 11.9948 6.82843C12.7891 6.07828 13.2353 5.06087 13.2353 4C13.2353 2.93913 12.7891 1.92172 11.9948 1.17157C11.2005 0.421427 10.1233 0 9 0V0ZM14.9082 12.15C16.0941 12.97 16.8459 14.39 16.9306 17H1.06941C1.15412 14.4 1.90588 12.97 3.08118 12.15C4.40471 11.25 6.35294 11 9 11C11.6471 11 13.6059 11.26 14.9082 12.15ZM9 10C6.35294 10 4.07647 10.24 2.46706 11.35C0.815294 12.48 0 14.43 0 17.5V18H18V17.5C18 14.43 17.1847 12.48 15.5329 11.35C13.9235 10.25 11.6471 10 9 10Z" fill="inherit"/>
</svg>
