<svg viewBox="0 0 18 18" xmlns="http://www.w3.org/2000/svg">
<path fill-rule="evenodd" clip-rule="evenodd" d="M4.0816 0H0.80934L0.0119849 12.3259C-0.0362769 13.0524 0.0615551 13.7814 0.299405 14.4676C0.537254 15.1538 0.910042 15.7824 1.39462 16.3145C1.87919 16.8466 2.46521 17.2708 3.11627 17.5608C3.76732 17.8507 4.46952 18.0002 5.17926 18H12.8214C13.5302 18.0001 14.2315 17.8509 14.8818 17.5616C15.5321 17.2723 16.1177 16.8491 16.6021 16.3182C17.0865 15.7872 17.4595 15.1599 17.698 14.475C17.9366 13.7901 18.0355 13.0622 17.9887 12.3365L17.181 0H4.0816ZM4.0816 1.06257H1.78273L1.04751 12.4002C1.00921 12.9812 1.08764 13.564 1.27792 14.1125C1.46821 14.661 1.7663 15.1636 2.15371 15.589C2.54112 16.0144 3.00958 16.3536 3.53003 16.5856C4.05048 16.8175 4.61183 16.9373 5.17926 16.9374H12.8214C13.3897 16.9388 13.9522 16.8201 14.4739 16.5888C14.9956 16.3575 15.4653 16.0185 15.8538 15.5929C16.2423 15.1673 16.5413 14.6642 16.7323 14.115C16.9232 13.5657 17.0019 12.982 16.9635 12.4002L16.218 1.06257H13.9191V1.732C13.9191 2.39481 13.7919 3.05113 13.5447 3.66348C13.2975 4.27584 12.9352 4.83224 12.4784 5.30092C12.0217 5.7696 11.4794 6.14138 10.8827 6.39502C10.2859 6.64867 9.64629 6.77922 9.00035 6.77922C8.35441 6.77922 7.71479 6.64867 7.11802 6.39502C6.52125 6.14138 5.97902 5.7696 5.52227 5.30092C5.06552 4.83224 4.70321 4.27584 4.45602 3.66348C4.20883 3.05113 4.0816 2.39481 4.0816 1.732V1.06257ZM12.8836 1.06257H5.11713V1.732C5.11713 2.78879 5.52625 3.8023 6.25449 4.54957C6.98274 5.29684 7.97045 5.71665 9.00035 5.71665C10.0302 5.71665 11.018 5.29684 11.7462 4.54957C12.4744 3.8023 12.8836 2.78879 12.8836 1.732V1.06257Z" fill="inherit"/>
</svg>
