<svg width="40" height="41" viewBox="0 0 40 41" fill="none" xmlns="http://www.w3.org/2000/svg"><rect y=".5" width="40" height="40" rx="20" fill="#E8EFEF"></rect><path d="M19.196 25.64a7.12 7.12 0 01-2.03-.294c-.653-.205-1.204-.485-1.652-.84l.784-1.414c.355.29.784.523 1.288.7a4.732 4.732 0 001.582.266c.653 0 1.162-.13 1.526-.392.364-.27.546-.635.546-1.092 0-.448-.168-.803-.504-1.064-.336-.261-.877-.392-1.624-.392h-.896v-1.246l2.8-3.332.238.686H15.99V15.7h6.678v1.218l-2.8 3.332-.952-.56h.546c1.204 0 2.105.27 2.702.812.607.532.91 1.218.91 2.058 0 .55-.14 1.06-.42 1.526-.28.467-.71.845-1.288 1.134-.57.28-1.293.42-2.17.42z" fill="#1B6163"></path></svg>