<svg data-v-345a3cfc="" width="14" height="12" xmlns="http://www.w3.org/2000/svg" class=""><path data-v-345a3cfc="" d="M13.96 5.817l-1.5-3.508a.501.501 0 00-.46-.306h-1.5V1.001A.502.502 0 0010 .5H.5a.5.5 0 00-.5.501v8.52a.502.502 0 00.5.5h1.07A2.004 2.004 0 003.5 11.5a1.997 1.997 0 001.93-1.479h3.14A2.004 2.004 0 0010.5 11.5a1.997 1.997 0 001.93-1.479h1.07a.5.5 0 00.5-.5V6.011a.501.501 0 00-.04-.195zM10.5 3.006h1.17l1.07 2.505H10.5V3.006zm-7 7.516a.999.999 0 01-.98-1.197 1.003 1.003 0 01.785-.788.998.998 0 011.195.983 1.004 1.004 0 01-1 1.002zM8.57 9.02H5.43A2.005 2.005 0 003.5 7.54 1.997 1.997 0 001.57 9.02H1V1.502h8.5v6.294a2.001 2.001 0 00-.93 1.223zm1.93 1.503a.999.999 0 01-.98-1.197 1.003 1.003 0 01.785-.788.998.998 0 011.195.983 1.004 1.004 0 01-1 1.002zM13 9.02h-.57a2.005 2.005 0 00-1.93-1.503V6.513H13V9.02z" fill="currentcolor"></path></svg>