<svg width="40" height="41" viewBox="0 0 40 41" fill="none" xmlns="http://www.w3.org/2000/svg"><rect y=".5" width="40" height="40" rx="20" fill="#E8EFEF"></rect><path d="M15.99 25.5v-1.218l3.892-3.696c.327-.308.57-.579.728-.812.159-.233.261-.448.308-.644a2.19 2.19 0 00.084-.574c0-.448-.154-.793-.462-1.036-.308-.252-.76-.378-1.358-.378-.476 0-.91.084-1.302.252a2.633 2.633 0 00-.994.77l-1.274-.98c.383-.513.896-.91 1.54-1.19.653-.29 1.381-.434 2.184-.434.71 0 1.325.117 1.848.35.532.224.938.546 1.218.966.29.42.434.92.434 1.498 0 .317-.042.635-.126.952a3.36 3.36 0 01-.476.98c-.233.345-.574.733-1.022 1.162l-3.346 3.178-.378-.686h5.726v1.54H15.99z" fill="#1B6163"></path></svg>