<svg width="40" height="40" viewBox="0 0 40 40" fill="none" xmlns="http://www.w3.org/2000/svg">
<rect width="40" height="40" rx="20" fill="white"/>
<path d="M26.9749 15.0498L26.0187 15.8561C27.001 17.0198 27.5247 18.5021 27.4914 20.0247C27.458 21.5473 26.8698 23.0053 25.8374 24.1248L26.7562 24.9998C27.9959 23.6564 28.7024 21.9063 28.7426 20.0787C28.7829 18.251 28.1543 16.4716 26.9749 15.0748V15.0498Z" fill="#261A1A"/>
<path d="M23.4875 17.4996C24.0768 18.1984 24.3905 19.0883 24.3698 20.0021C24.3491 20.916 23.9953 21.7908 23.375 22.4621L24.2938 23.3121C25.1206 22.4161 25.5915 21.2488 25.6179 20.0299C25.6444 18.811 25.2246 17.6244 24.4375 16.6934L23.4875 17.4996Z" fill="#261A1A"/>
<path d="M21.25 28.7501C21.1673 28.7498 21.0855 28.733 21.0093 28.7008C20.9332 28.6686 20.8641 28.6217 20.8063 28.5626L16.0438 23.7501H11.875C11.7092 23.7501 11.5503 23.6843 11.4331 23.567C11.3158 23.4498 11.25 23.2909 11.25 23.1251V16.8751C11.25 16.7093 11.3158 16.5504 11.4331 16.4332C11.5503 16.316 11.7092 16.2501 11.875 16.2501H16.0438L20.8063 11.4376C20.9234 11.3212 21.0818 11.2559 21.2469 11.2559C21.412 11.2559 21.5704 11.3212 21.6875 11.4376C21.8053 11.553 21.8727 11.7102 21.875 11.8751V28.1251C21.875 28.2909 21.8092 28.4498 21.6919 28.567C21.5747 28.6843 21.4158 28.7501 21.25 28.7501ZM12.5 22.5001H16.3C16.3827 22.5004 16.4645 22.5172 16.5407 22.5494C16.6168 22.5816 16.6859 22.6285 16.7437 22.6876L20.625 26.6064V13.3939L16.7437 17.3126C16.6859 17.3717 16.6168 17.4186 16.5407 17.4508C16.4645 17.483 16.3827 17.4998 16.3 17.5001H12.5V22.5001Z" fill="#261A1A"/>
</svg>
