<svg width="28" height="28" viewBox="0 0 28 28" fill="none" xmlns="http://www.w3.org/2000/svg">
<path opacity="0.8" d="M14 0C16.5399 0 18.8824 0.625868 21.0273 1.8776C23.1723 3.12934 24.8707 4.82769 26.1224 6.97266C27.3741 9.11762 28 11.4601 28 14C28 16.5399 27.3741 18.8824 26.1224 21.0273C24.8707 23.1723 23.1723 24.8707 21.0273 26.1224C18.8824 27.3741 16.5399 28 14 28C11.4601 28 9.11762 27.3741 6.97266 26.1224C4.82769 24.8707 3.12934 23.1723 1.8776 21.0273C0.625868 18.8824 0 16.5399 0 14C0 11.4601 0.625868 9.11762 1.8776 6.97266C3.12934 4.82769 4.82769 3.12934 6.97266 1.8776C9.11762 0.625868 11.4601 0 14 0ZM21 15.0026C21.3889 14.7839 21.5833 14.4497 21.5833 14C21.5833 13.5503 21.3889 13.2161 21 12.9974L11.0833 7.16406C10.7066 6.93316 10.3177 6.92708 9.91667 7.14583C9.52778 7.37674 9.33333 7.71701 9.33333 8.16667V19.8333C9.33333 20.283 9.52778 20.6233 9.91667 20.8542C10.1111 20.9514 10.3056 21 10.5 21C10.7066 21 10.901 20.9453 11.0833 20.8359L21 15.0026Z" fill="white"/>
</svg>
