<svg width="22" height="20" viewBox="0 0 22 20" fill="none" xmlns="http://www.w3.org/2000/svg">
<path d="M11.1102 16.9481L11.0002 17.0571L10.8792 16.9481C5.6542 12.2505 2.2002 9.14426 2.2002 5.9944C2.2002 3.81456 3.8502 2.17969 6.0502 2.17969C7.7442 2.17969 9.3942 3.26961 9.9772 4.75189H12.0232C12.6062 3.26961 14.2562 2.17969 15.9502 2.17969C18.1502 2.17969 19.8002 3.81456 19.8002 5.9944C19.8002 9.14426 16.3462 12.2505 11.1102 16.9481Z" fill="white" fill-opacity="0.4"/>
<path d="M11.11 16.9482L11 17.0572L10.879 16.9482C5.654 12.2507 2.2 9.14441 2.2 5.99455C2.2 3.81471 3.85 2.17984 6.05 2.17984C7.744 2.17984 9.394 3.26975 9.977 4.75204H12.023C12.606 3.26975 14.256 2.17984 15.95 2.17984C18.15 2.17984 19.8 3.81471 19.8 5.99455C19.8 9.14441 16.346 12.2507 11.11 16.9482ZM15.95 0C14.036 0 12.199 0.882834 11 2.26703C9.801 0.882834 7.964 0 6.05 0C2.662 0 0 2.6267 0 5.99455C0 10.1035 3.74 13.4714 9.405 18.5613L11 20L12.595 18.5613C18.26 13.4714 22 10.1035 22 5.99455C22 2.6267 19.338 0 15.95 0Z" fill="#261A1A"/>
</svg>
