<?xml version="1.0" encoding="UTF-8"?>
<svg width="24px" height="24px" viewBox="0 0 24 24" version="1.1" xmlns="http://www.w3.org/2000/svg" xmlns:xlink="http://www.w3.org/1999/xlink">
    <title>cart-header</title>
    <g id="Page-1" stroke="none" stroke-width="1" fill="none" fill-rule="evenodd">
        <g id="Artboard" transform="translate(-66.000000, -161.000000)">
            <g id="cart-header" transform="translate(66.000000, 161.000000)">
                <rect id="Rectangle-Copy-2" x="0" y="0" width="24" height="24"></rect>
                <g id="Group-6" transform="translate(3.000000, 2.000000)" fill="#FFFFFF">
                    <path d="M1.83396226,6.31396226 L1.83396226,17.6 C1.83396226,17.859434 2.02264151,18.0475472 2.28113208,18.0475472 L16.5320755,18.0475472 C16.7962264,18.0475472 16.9811321,17.8632075 16.9811321,17.6 L16.9811321,6.31396226 L1.83396226,6.31396226 Z M16.5320755,19.8820755 L2.28113208,19.8820755 C1.00188679,19.8820755 1.07251734e-13,18.8796226 1.07251734e-13,17.6 L1.07251734e-13,5.39679245 C1.07251734e-13,4.89037736 0.411320755,4.47962264 0.916981132,4.47962264 L17.8981132,4.47962264 C18.4056604,4.47962264 18.8150943,4.89037736 18.8150943,5.39679245 L18.8150943,17.6 C18.8150943,18.8796226 17.8132075,19.8820755 16.5320755,19.8820755 L16.5320755,19.8820755 Z" id="Fill-19"></path>
                    <path d="M13.8037736,9.42886792 C13.2962264,9.42886792 12.8849057,9.01792453 12.8849057,8.51150943 L12.8849057,2.66641509 C12.8849057,2.19981132 12.5396226,1.8345283 12.0962264,1.8345283 L6.71886792,1.8345283 C6.27735849,1.8345283 5.93018868,2.19981132 5.93018868,2.66641509 L5.93018868,8.51150943 C5.93018868,9.01792453 5.52075472,9.42886792 5.01320755,9.42886792 C4.50566038,9.42886792 4.09622642,9.01792453 4.09622642,8.51150943 L4.09622642,2.66641509 C4.09622642,1.19584906 5.27358491,-1.07251734e-14 6.71886792,-1.07251734e-14 L12.0962264,-1.07251734e-14 C13.5433962,-1.07251734e-14 14.7207547,1.19584906 14.7207547,2.66641509 L14.7207547,8.51150943 C14.7207547,9.01792453 14.309434,9.42886792 13.8037736,9.42886792" id="Fill-20"></path>
                </g>
            </g>
        </g>
    </g>
</svg>