<?xml version="1.0" encoding="UTF-8"?>
<svg width="24px" height="24px" viewBox="0 0 24 24" version="1.1" xmlns="http://www.w3.org/2000/svg" xmlns:xlink="http://www.w3.org/1999/xlink">
    <title>cross-header</title>
    <g id="Page-1" stroke="none" stroke-width="1" fill="none" fill-rule="evenodd">
        <g id="Artboard" transform="translate(-343.000000, -35.000000)">
            <g id="cross-header" transform="translate(343.000000, 35.000000)">
                <rect id="Rectangle-Copy-5" x="0" y="0" width="24" height="24"></rect>
                <g id="Group-8" transform="translate(4.000000, 4.000000)" fill="#FFFFFF">
                    <path d="M-1.08283019,8.83396226 C-1.58924528,8.83396226 -2,8.4245283 -2,7.91698113 C-2,7.40943396 -1.58924528,7 -1.08283019,7 L16.4556604,7 C16.9620755,7 17.3730189,7.40943396 17.3730189,7.91698113 C17.3730189,8.4245283 16.9620755,8.83396226 16.4556604,8.83396226 L-1.08283019,8.83396226 Z" id="Fill-292" transform="translate(7.686509, 7.916981) rotate(45.000000) translate(-7.686509, -7.916981) "></path>
                    <path d="M-1.08283019,8.83396226 C-1.58924528,8.83396226 -2,8.42264151 -2,7.91698113 C-2,7.40943396 -1.58924528,7 -1.08283019,7 L16.4556604,7 C16.9620755,7 17.3730189,7.40943396 17.3730189,7.91698113 C17.3730189,8.42264151 16.9620755,8.83396226 16.4556604,8.83396226 L-1.08283019,8.83396226 Z" id="Fill-294" transform="translate(7.686509, 7.916981) rotate(-45.000000) translate(-7.686509, -7.916981) "></path>
                </g>
            </g>
        </g>
    </g>
</svg>