<?xml version="1.0" encoding="UTF-8"?>
<svg width="27px" height="23px" viewBox="0 0 27 23" version="1.1" xmlns="http://www.w3.org/2000/svg" xmlns:xlink="http://www.w3.org/1999/xlink">
    <title>“</title>
    <g id="sikha-mehta" stroke="none" stroke-width="1" fill="none" fill-rule="evenodd">
        <path d="M5.82777778,22.9 C7.22777778,22.9 8.31111111,22.5833333 9.07777778,21.95 C9.84444444,21.3166667 10.2277778,20.4333333 10.2277778,19.3 C10.2277778,18.2333333 9.91111111,17.3833333 9.27777778,16.75 C8.64444444,16.1166667 7.76111111,15.8 6.62777778,15.8 C5.42777778,15.8 4.52777778,16.1666667 3.92777778,16.9 C3.72777778,16.3666667 3.62777778,15.6666667 3.62777778,14.8 C3.62777778,14.1333333 3.66111111,13.6 3.72777778,13.2 C4.06111111,11.0666667 4.92777778,9.06666667 6.32777778,7.2 C7.72777778,5.33333333 9.69444444,3.46666667 12.2277778,1.6 C12.4277778,1.46666667 12.4611111,1.26666667 12.3277778,1 C12.1944444,0.733333333 12.0277778,0.6 11.8277778,0.6 C11.6944444,0.6 11.5944444,0.633333333 11.5277778,0.7 C7.99444444,3.36666667 5.31111111,5.95 3.47777778,8.45 C1.64444444,10.95 0.727777778,13.7333333 0.727777778,16.8 C0.727777778,18.7333333 1.19444444,20.2333333 2.12777778,21.3 C3.06111111,22.3666667 4.29444444,22.9 5.82777778,22.9 Z M19.8277778,22.9 C21.2277778,22.9 22.3111111,22.5833333 23.0777778,21.95 C23.8444444,21.3166667 24.2277778,20.4333333 24.2277778,19.3 C24.2277778,18.2333333 23.9111111,17.3833333 23.2777778,16.75 C22.6444444,16.1166667 21.7611111,15.8 20.6277778,15.8 C19.4277778,15.8 18.5277778,16.1666667 17.9277778,16.9 C17.7277778,16.3666667 17.6277778,15.6666667 17.6277778,14.8 C17.6277778,14.1333333 17.6611111,13.6 17.7277778,13.2 C18.0611111,11.0666667 18.9277778,9.06666667 20.3277778,7.2 C21.7277778,5.33333333 23.6944444,3.46666667 26.2277778,1.6 C26.4277778,1.46666667 26.4611111,1.26666667 26.3277778,1 C26.1944444,0.733333333 26.0277778,0.6 25.8277778,0.6 C25.6944444,0.6 25.5944444,0.633333333 25.5277778,0.7 C21.9944444,3.36666667 19.3111111,5.95 17.4777778,8.45 C15.6444444,10.95 14.7277778,13.7333333 14.7277778,16.8 C14.7277778,18.7333333 15.1944444,20.2333333 16.1277778,21.3 C17.0611111,22.3666667 18.2944444,22.9 19.8277778,22.9 Z" id="“" fill="#000000" fill-rule="nonzero"></path>
    </g>
</svg>