<?xml version="1.0" encoding="UTF-8"?>
<svg width="24px" height="24px" viewBox="0 0 24 24" version="1.1" xmlns="http://www.w3.org/2000/svg" xmlns:xlink="http://www.w3.org/1999/xlink">
    <title>hamburger-header</title>
    <g id="Page-1" stroke="none" stroke-width="1" fill="none" fill-rule="evenodd">
        <g id="Artboard" transform="translate(-178.000000, -161.000000)">
            <g id="hamburger-header" transform="translate(178.000000, 161.000000)">
                <rect id="Rectangle-Copy-5" x="0" y="0" width="24" height="24"></rect>
                <g id="Group-8" transform="translate(2.000000, 4.000000)" fill="#FFFFFF">
                    <path d="M1.29830189,2.75471698 C0.791886792,2.75471698 0.381132075,2.34528302 0.381132075,1.83773585 C0.381132075,1.33018868 0.791886792,0.920754717 1.29830189,0.920754717 L18.8367925,0.920754717 C19.3432075,0.920754717 19.7541509,1.33018868 19.7541509,1.83773585 C19.7541509,2.34528302 19.3432075,2.75471698 18.8367925,2.75471698 L1.29830189,2.75471698 Z" id="Fill-292"></path>
                    <path d="M1.29830189,9.87924528 C0.791886792,9.87924528 0.381132075,9.46981132 0.381132075,8.96226415 C0.381132075,8.45471698 0.791886792,8.04528302 1.29830189,8.04528302 L18.8367925,8.04528302 C19.3432075,8.04528302 19.7541509,8.45471698 19.7541509,8.96226415 C19.7541509,9.46981132 19.3432075,9.87924528 18.8367925,9.87924528 L1.29830189,9.87924528 Z" id="Fill-293"></path>
                    <path d="M1.29830189,16.9622642 C0.791886792,16.9622642 0.381132075,16.5509434 0.381132075,16.045283 C0.381132075,15.5377358 0.791886792,15.1283019 1.29830189,15.1283019 L18.8367925,15.1283019 C19.3432075,15.1283019 19.7541509,15.5377358 19.7541509,16.045283 C19.7541509,16.5509434 19.3432075,16.9622642 18.8367925,16.9622642 L1.29830189,16.9622642 Z" id="Fill-294"></path>
                </g>
            </g>
        </g>
    </g>
</svg>