<?xml version="1.0" encoding="UTF-8"?>
<svg width="22px" height="19px" viewBox="0 0 22 19" version="1.1" xmlns="http://www.w3.org/2000/svg" xmlns:xlink="http://www.w3.org/1999/xlink">
    <!-- Generator: Sketch 64 (93537) - https://sketch.com -->
    <title>Shape</title>
    <desc>Created with Sketch.</desc>
    <g id="Page-1" stroke="none" stroke-width="1" fill="none" fill-rule="evenodd">
        <path d="M11,19 C10.6867981,19 10.3848419,18.889857 10.1495209,18.6897746 C9.26077273,17.9353926 8.40391539,17.226469 7.64793395,16.6011302 L7.64407351,16.5978716 C5.42765807,14.764381 3.51370241,13.1809934 2.18200684,11.6212311 C0.693374645,9.8775169 0,8.22423078 0,6.41811307 C0,4.66331937 0.619857777,3.04441223 1.7452698,1.85939697 C2.88410951,0.66036942 4.44676207,0 6.14587402,0 C7.41580202,0 8.57881166,0.389736905 9.60250852,1.15829416 C10.1191406,1.54623879 10.5874329,2.021027 11,2.57483793 C11.412735,2.021027 11.8808594,1.54623879 12.3976593,1.15829416 C13.4213562,0.389736905 14.5843659,0 15.8542938,0 C17.5532379,0 19.1160583,0.66036942 20.2548981,1.85939697 C21.3803101,3.04441223 22,4.66331937 22,6.41811307 C22,8.22423078 21.3067932,9.8775169 19.818161,11.6210682 C18.4864655,13.1809934 16.5726776,14.7642181 14.3565979,16.5975457 C13.5992737,17.223862 12.7410736,17.9339262 11.8503113,18.6901005 C11.6151581,18.889857 11.313034,19 11,19 L11,19 Z" id="Shape" fill="#FF5D73" fill-rule="nonzero"></path>
    </g>
</svg>