<?xml version="1.0" encoding="UTF-8"?>
<svg width="24px" height="21px" viewBox="0 0 24 21" version="1.1" xmlns="http://www.w3.org/2000/svg" xmlns:xlink="http://www.w3.org/1999/xlink">
    <!-- Generator: Sketch 64 (93537) - https://sketch.com -->
    <title>Shape Copy</title>
    <desc>Created with Sketch.</desc>
    <g id="Page-1" stroke="none" stroke-width="1" fill="none" fill-rule="evenodd" stroke-opacity="0.15">
        <path d="M12,20 C11.6867981,20 11.3848419,19.889857 11.1495209,19.6897746 C10.2607727,18.9353926 9.40391539,18.226469 8.64793395,17.6011302 L8.64407351,17.5978716 C6.42765807,15.764381 4.51370241,14.1809934 3.18200684,12.6212311 C1.69337464,10.8775169 1,9.22423078 1,7.41811307 C1,5.66331937 1.61985778,4.04441223 2.7452698,2.85939697 C3.88410951,1.66036942 5.44676207,1 7.14587402,1 C8.41580202,1 9.57881166,1.38973691 10.6025085,2.15829416 C11.1191406,2.54623879 11.5874329,3.021027 12,3.57483793 C12.412735,3.021027 12.8808594,2.54623879 13.3976593,2.15829416 C14.4213562,1.38973691 15.5843659,1 16.8542938,1 C18.5532379,1 20.1160583,1.66036942 21.2548981,2.85939697 C22.3803101,4.04441223 23,5.66331937 23,7.41811307 C23,9.22423078 22.3067932,10.8775169 20.818161,12.6210682 C19.4864655,14.1809934 17.5726776,15.7642181 15.3565979,17.5975457 C14.5992737,18.223862 13.7410736,18.9339262 12.8503113,19.6901005 C12.6151581,19.889857 12.313034,20 12,20 L12,20 Z" id="Shape-Copy" stroke="#000000" fill-rule="nonzero"></path>
    </g>
</svg>