<svg xmlns="http://www.w3.org/2000/svg" xmlns:xlink="http://www.w3.org/1999/xlink" x="0px" y="0px" width="178px" height="24px" viewBox="0 0 178 24">
	<polygon points="54.9,23 81.1,23 81.1,17.7 65.4,17.7 65.4,14.2 78.1,14.2 78.1,9.3 65.4,9.3 65.4,6.1 81.1,6.1 81.1,1 54.9,1 	"/>
	<rect x="38.4" y="1" width="10.8" height="21.9"/>
	<path d="M34,9.4l-0.2-1.2l-0.3-1.1l-0.5-1l-0.6-0.9L32,4.8l-0.4-0.4l-0.5-0.4l-0.5-0.3L30,3.4l-0.6-0.3l-0.7-0.3l-0.8-0.3l-1.7-0.5
		l-2-0.4L22,1.4l-2.6-0.2l-2.9-0.1l-3.3,0H3V23h12.2l2.9,0l2.6-0.1l2.3-0.2l2-0.3l1.8-0.4l1.5-0.4l1.3-0.5l0.6-0.3l0.5-0.3l0.9-0.7
		l0.7-0.8l0.6-0.9l0.4-1l0.3-1.1l0.2-1.2l0.1-1.3l0-1.4l0-1.4L34,9.4z M22.8,13.5l0,0.7l-0.1,0.6l-0.1,0.6l-0.2,0.5l-0.3,0.4
		l-0.4,0.4l-0.4,0.3l-0.5,0.3l-0.6,0.2l-0.8,0.2l-0.9,0.1l-1,0.1L15,18.1h-1.2V5.9H15L17.5,6l1,0.1l0.9,0.2l0.8,0.2l0.6,0.2L21.3,7
		l0.4,0.3l0.4,0.4l0.3,0.4l0.2,0.5l0.1,0.5l0.1,0.6l0,0.7l0,1.5L22.8,13.5z"/>
	<polygon points="161.3,17.6 161.3,1 150.5,1 150.5,23 175,23 175,17.6 "/>
	<polygon points="119.5,23 145.8,23 145.8,17.7 130,17.7 130,14.2 142.8,14.2 142.8,9.3 130,9.3 130,6.1 145.8,6.1 145.8,1 119.5,1 "/>
	<polygon points="114.7,14.9 114.6,14.5 114.4,14.1 114.2,13.7 113.6,13 112.8,12.4 112.4,12.1 111.9,11.8 110.9,11.3 109.7,10.9 
		108.5,10.5 107.2,10.1 105.9,9.8 104.6,9.6 99.4,8.7 98.1,8.4 96.8,8 96.2,7.8 95.7,7.5 95.4,7.1 95.3,6.7 95.4,6.2 95.7,5.9 
		96,5.6 96.5,5.4 97.1,5.2 97.7,5.1 99,5.1 100.2,5.1 101.1,5.2 101.9,5.4 102.6,5.6 103.1,6 103.6,6.3 104,6.7 104.4,7.2 
		113.8,7.2 113.7,6.8 113.7,6.4 113.6,6 113.4,5.6 113.2,5.3 113,4.9 112.5,4.3 111.9,3.7 111.1,3.1 110.3,2.6 109.3,2.2 108.3,1.8 
		107.2,1.4 106.1,1.2 104.8,0.9 103.6,0.7 102.2,0.6 100.9,0.5 99.5,0.5 96.8,0.6 94.2,0.9 93,1.1 91.8,1.3 90.6,1.7 89.6,2.1 
		88.5,2.5 87.5,3 86.7,3.6 86,4.2 85.5,4.9 85.2,5.3 85.1,5.7 84.9,6.1 84.8,6.5 84.8,7 84.8,7.5 84.9,8.5 85.1,9.3 85.4,9.7 
		85.6,10.1 86.2,10.8 86.9,11.4 87.8,12 88.7,12.4 89.8,12.8 90.9,13.2 92.1,13.5 94.5,14 99.6,14.9 101.1,15.2 101.9,15.4 
		102.6,15.7 103.2,15.9 103.7,16.3 103.8,16.5 104,16.7 104.1,16.9 104.1,17.2 104.1,17.3 104,17.5 103.9,17.7 103.7,17.9 
		103.2,18.2 102.6,18.4 102,18.5 101.2,18.6 100.5,18.7 99.7,18.7 98.4,18.7 97.4,18.5 96.4,18.3 95.7,18.1 95,17.7 94.5,17.2 
		94,16.7 93.6,16.1 83.5,16.1 83.7,16.9 83.8,17.3 83.9,17.7 84.3,18.4 84.8,19.2 85.5,19.8 86.3,20.4 87.1,21 88.1,21.5 89.2,21.9 
		90.4,22.3 91.7,22.7 93.1,23 94.5,23.2 96,23.4 97.6,23.5 99.2,23.5 100.7,23.5 102.2,23.4 103.6,23.3 105,23.1 106.4,22.9 
		107.7,22.6 108.9,22.3 110.1,21.9 111.1,21.5 112.1,20.9 112.9,20.4 113.6,19.7 114.2,19 114.4,18.6 114.6,18.2 114.7,17.7 
		114.8,17.3 114.9,16.8 114.9,16.3 114.8,15.3 "/>
</svg>
