<?xml version="1.0" encoding="UTF-8"?>
<svg width="151px" height="151px" viewBox="0 0 151 151" version="1.1" xmlns="http://www.w3.org/2000/svg" xmlns:xlink="http://www.w3.org/1999/xlink">
    <!-- Generator: sketchtool 63.1 (101010) - https://sketch.com -->
    <title>CF6CF536-A17E-4BC7-91E9-4DC5B7B66D42@1x</title>
    <desc>Created with sketchtool.</desc>
    <g id="Page-1" stroke="none" stroke-width="1" fill="none" fill-rule="evenodd">
        <g id="No-result-page-turtle" transform="translate(-645.000000, -224.000000)">
            <g id="Group-14" transform="translate(645.000000, 224.000000)">
                <path d="M151,75.5 C151,117.19714 117.19714,151 75.5,151 C33.802256,151 0,117.19714 0,75.5 C0,33.802256 33.802256,0 75.5,0 C117.19714,0 151,33.802256 151,75.5" id="Fill-70" fill="#DCDCDC"></path>
                <path d="M114.492,39.0695 L36.508,39.0695 C34.475,39.0695 32.809,40.737 32.809,42.77 L32.809,108.2315 C32.809,110.266 34.475,111.9305 36.508,111.9305 L114.492,111.9305 C116.5255,111.9305 118.191,110.266 118.191,108.2315 L118.191,42.77 C118.191,40.737 116.5255,39.0695 114.492,39.0695" id="Fill-75" fill="#FFFFFE"></path>
                <path d="M36.508,39.0695 C34.475,39.0695 32.809,40.737 32.809,42.77 L32.809,55.509 L118.191,55.509 L118.191,42.77 C118.191,40.737 116.5255,39.0695 114.492,39.0695 L36.508,39.0695 Z" id="Fill-76" fill="#EAEAE6"></path>
                <path d="M46.0205,47.289 C46.0205,49.0135 44.626,50.4115 42.9,50.4115 C41.1765,50.4115 39.7775,49.0135 39.7775,47.289 C39.7775,45.567 41.1765,44.1685 42.9,44.1685 C44.626,44.1685 46.0205,45.567 46.0205,47.289" id="Fill-77" fill="#000000"></path>
                <path d="M55.166,47.289 C55.166,49.0135 53.7675,50.4115 52.0435,50.4115 C50.3215,50.4115 48.923,49.0135 48.923,47.289 C48.923,45.567 50.3215,44.1685 52.0435,44.1685 C53.7675,44.1685 55.166,45.567 55.166,47.289" id="Fill-78" fill="#4D4D4D"></path>
                <path d="M64.308,47.289 C64.308,49.0135 62.913,50.4115 61.187,50.4115 C59.4635,50.4115 58.065,49.0135 58.065,47.289 C58.065,45.567 59.4635,44.1685 61.187,44.1685 C62.913,44.1685 64.308,45.567 64.308,47.289" id="Fill-79" fill="#C8C8C8"></path>
                <polygon id="Fill-81" fill="#D8D8D2" points="32.809 58.8925 118.191 58.8925 118.191 55.5065 32.809 55.5065"></polygon>
            </g>
        </g>
    </g>
</svg>