<?xml version="1.0" encoding="UTF-8"?>
<svg width="17px" height="20px" viewBox="0 0 17 20" version="1.1" xmlns="http://www.w3.org/2000/svg" xmlns:xlink="http://www.w3.org/1999/xlink">
    <!-- Generator: sketchtool 62 (101010) - https://sketch.com -->
    <title>C3A07433-9C79-4DD6-9984-C8A17B65E648</title>
    <desc>Created with sketchtool.</desc>
    <g id="Page-1" stroke="none" stroke-width="1" fill="none" fill-rule="evenodd" stroke-linecap="round" stroke-linejoin="round">
        <g id="Profile-drop-down--for-turtle" transform="translate(-1298.000000, -31.000000)" stroke="#000000" stroke-width="1.2">
            <g id="Group-4">
                <g id="Group-12" transform="translate(1299.000000, 32.000000)">
                    <path d="M7.50181385,-4.88498131e-15 C9.61969391,-4.88498131e-15 11.3362806,1.71555506 11.3362806,3.83343513 C11.3362806,5.95028359 9.61969391,7.66790186 7.50181385,7.66790186 C5.38599699,7.66790186 3.66941032,5.95028359 3.66941032,3.83343513 C3.66941032,1.71555506 5.38599699,-4.88498131e-15 7.50181385,-4.88498131e-15" id="Stroke-1"></path>
                    <path d="M14.0401109,17.1400766 C14.7108495,16.8263647 15.0056909,16.2139119 15.0056909,15.6442529 C15.0056909,12.1069892 11.898504,9.23800096 7.92889731,9.23800096 C7.76796731,9.23800096 7.67099667,9.25141179 7.67099667,9.25966462 C7.51006667,9.25141179 7.35016827,9.23800096 7.18820667,9.23800096 C3.2196316,9.23800096 2.87545285e-12,12.1068877 4.01582036e-13,15.6442529 C-3.88325537e-14,16.2741669 0.513714711,16.8567693 1.13476282,17.1400766 C3.18375729,18.0747789 4.77116186,18.2820606 7.67099667,18.2562706 C9.73420179,18.2820606 11.9873366,18.1001818 14.0401109,17.1400766 Z" id="Stroke-2"></path>
                </g>
            </g>
        </g>
    </g>
</svg>