<?xml version="1.0" encoding="UTF-8"?>
<svg width="24px" height="24px" viewBox="0 0 24 24" version="1.1" xmlns="http://www.w3.org/2000/svg" xmlns:xlink="http://www.w3.org/1999/xlink">
    <!-- Generator: Sketch 54.1 (76490) - https://sketchapp.com -->
    <title>employees copy</title>
    <desc>Created with Sketch.</desc>
    <g id="employees-copy" stroke="none" stroke-width="1" fill="none" fill-rule="evenodd">
        <g id="Group">
            <rect id="Rectangle" x="0" y="0" width="24" height="24"></rect>
            <g id="Imported-Layers" transform="translate(5.000000, 3.565460)" stroke="#000000" stroke-linecap="round" stroke-linejoin="round">
                <path d="M6.85073846,0.335030769 C8.73002308,0.335030769 10.2532231,1.85731538 10.2532231,3.7366 C10.2532231,5.61496923 8.73002308,7.13908462 6.85073846,7.13908462 C4.97328462,7.13908462 3.45008462,5.61496923 3.45008462,3.7366 C3.45008462,1.85731538 4.97328462,0.335030769 6.85073846,0.335030769" id="Stroke-1"></path>
                <path d="M12.6524462,15.5441462 C13.2476209,15.2657763 13.5092462,14.722321 13.5092462,14.2168385 C13.5092462,11.0780747 10.7521077,8.5323 7.22970769,8.5323 C7.08690769,8.5323 7.00086154,8.5442 7.00086154,8.55152308 C6.85806154,8.5442 6.71617692,8.5323 6.57246154,8.5323 C3.05097692,8.5323 0.194061538,11.0779846 0.194061538,14.2168385 C0.194061538,14.7757878 0.649902344,15.2927556 1.20098462,15.5441462 C3.01914413,16.373547 4.42771538,16.5574769 7.00086154,16.5345923 C8.83163077,16.5574769 10.8309326,16.3960881 12.6524462,15.5441462 Z" id="Stroke-2"></path>
            </g>
        </g>
    </g>
</svg>