<?xml version="1.0" encoding="UTF-8"?>
<svg width="24px" height="24px" viewBox="0 0 24 24" version="1.1" xmlns="http://www.w3.org/2000/svg" xmlns:xlink="http://www.w3.org/1999/xlink">
    <title>search-header</title>
    <g id="Page-1" stroke="none" stroke-width="1" fill="none" fill-rule="evenodd">
        <g id="Artboard" transform="translate(-114.000000, -161.000000)">
            <g id="search-header" transform="translate(114.000000, 161.000000)">
                <g id="Group-4" transform="translate(2.000000, 2.000000)" fill="#FFFFFF">
                    <path d="M8.14773585,1.83433962 C6.45584906,1.83509434 4.86981132,2.49886792 3.68358491,3.70490566 C3.68207547,3.70641509 3.6790566,3.70773585 3.67754717,3.71 C2.48849057,4.89849057 1.83433962,6.48660377 1.83433962,8.18150943 C1.83433962,9.87622642 2.48849057,11.4637736 3.67754717,12.6522642 C4.86679245,13.8413208 6.45433962,14.4962264 8.1490566,14.4962264 C9.84396226,14.4962264 11.4315094,13.8413208 12.620566,12.6522642 C13.8318868,11.459434 14.4962264,9.87415094 14.4962264,8.18150943 C14.4962264,6.48962264 13.8318868,4.90283019 12.6250943,3.71433962 C11.4269811,2.49886792 9.83943396,1.83433962 8.14773585,1.83433962 Z M8.1490566,16.3307547 C5.96339623,16.3307547 3.91584906,15.4854717 2.38113208,13.949434 C0.84509434,12.4149057 3.21755201e-13,10.3664151 3.21755201e-13,8.18150943 C3.21755201e-13,5.99716981 0.84509434,3.94962264 2.37830189,2.41433962 C3.91283019,0.857735849 5.96188679,-1.07251734e-14 8.14773585,-1.07251734e-14 C8.14773585,-1.07251734e-14 8.14773585,-1.07251734e-14 8.1490566,-1.07251734e-14 C10.3364151,-1.07251734e-14 12.3867925,0.858301887 13.9230189,2.41716981 C15.4722642,3.94377358 16.330566,5.99433962 16.330566,8.18226415 C16.330566,10.369434 15.4722642,12.4192453 13.9126415,13.9545283 C12.3824528,15.4854717 10.3333962,16.3307547 8.1490566,16.3307547 L8.1490566,16.3307547 Z" id="Fill-23"></path>
                    <path d="M18.9860377,19.8930189 C18.7539623,19.8930189 18.52,19.804717 18.3407547,19.6269811 L12.6220755,13.9524528 C12.2633962,13.5950943 12.2603774,13.0145283 12.6177358,12.6550943 C12.9749057,12.2950943 13.5554717,12.2928302 13.9156604,12.65 L19.6332075,18.3245283 C19.9916981,18.6818868 19.9954717,19.2624528 19.6388679,19.6218868 C19.4577358,19.8026415 19.2218868,19.8930189 18.9860377,19.8930189" id="Fill-24"></path>
                </g>
                <rect id="Rectangle-Copy-3" x="0" y="0" width="24" height="24"></rect>
            </g>
        </g>
    </g>
</svg>