<?xml version="1.0" encoding="UTF-8"?>
<svg width="24px" height="24px" viewBox="0 0 24 24" version="1.1" xmlns="http://www.w3.org/2000/svg" xmlns:xlink="http://www.w3.org/1999/xlink">
    <title>share-#337AB7</title>
    <g id="Page-1" stroke="none" stroke-width="1" fill="none" fill-rule="evenodd">
        <g id="Artboard" transform="translate(-148.000000, -90.000000)">
            <g id="share-#337AB7" transform="translate(148.000000, 90.000000)">
                <rect id="Rectangle-Copy-4" x="0" y="0" width="24" height="24"></rect>
                <g id="Group-7" transform="translate(2.000000, 2.000000)" fill="#337AB7">
                    <path d="M4.37358491,7.42377358 C2.9509434,7.42377358 1.83396226,8.53867925 1.83396226,9.96245283 C1.83396226,11.3381132 2.97358491,12.4583019 4.37358491,12.4583019 C5.7509434,12.4583019 6.87169811,11.3381132 6.87169811,9.96245283 C6.87169811,8.56301887 5.7509434,7.42377358 4.37358491,7.42377358 Z M4.37358491,14.2926415 C1.96226415,14.2926415 -4.29006935e-14,12.3501887 -4.29006935e-14,9.96245283 C-4.29006935e-14,7.5509434 1.96226415,5.58943396 4.37358491,5.58943396 C6.76226415,5.58943396 8.70566038,7.5509434 8.70566038,9.96245283 C8.70566038,12.3501887 6.76226415,14.2926415 4.37358491,14.2926415 L4.37358491,14.2926415 Z" id="Fill-39"></path>
                    <path d="M15.5528302,13.0558491 C14.1754717,13.0558491 13.0566038,14.1758491 13.0566038,15.5516981 C13.0566038,16.9275472 14.1754717,18.0475472 15.5528302,18.0475472 C16.9528302,18.0475472 18.0924528,16.9275472 18.0924528,15.5516981 C18.0924528,14.1758491 16.9528302,13.0558491 15.5528302,13.0558491 Z M15.5528302,19.8820755 C13.1641509,19.8820755 11.2226415,17.9396226 11.2226415,15.5516981 C11.2226415,13.1637736 13.1641509,11.2213208 15.5528302,11.2213208 C17.9641509,11.2213208 19.9264151,13.1637736 19.9264151,15.5516981 C19.9264151,17.9396226 17.9641509,19.8820755 15.5528302,19.8820755 L15.5528302,19.8820755 Z" id="Fill-40"></path>
                    <path d="M15.5528302,1.8345283 C14.1754717,1.8345283 13.0566038,2.9545283 13.0566038,4.33037736 C13.0566038,5.70622642 14.1754717,6.82622642 15.5528302,6.82622642 C16.9528302,6.82622642 18.0924528,5.70622642 18.0924528,4.33037736 C18.0924528,2.9545283 16.9528302,1.8345283 15.5528302,1.8345283 Z M15.5528302,8.66075472 C13.1641509,8.66075472 11.2226415,6.71830189 11.2226415,4.33037736 C11.2226415,1.94245283 13.1641509,0 15.5528302,0 C17.9641509,0 19.9264151,1.94245283 19.9264151,4.33037736 C19.9264151,6.71830189 17.9641509,8.66075472 15.5528302,8.66075472 L15.5528302,8.66075472 Z" id="Fill-41"></path>
                    <path d="M7.40377358,9.34358491 C7.06792453,9.34358491 6.74339623,9.15830189 6.58301887,8.83641509 C6.35660377,8.38301887 6.53962264,7.83245283 6.99245283,7.60603774 L12.1132075,5.04622642 C12.5698113,4.82056604 13.1188679,5.00283019 13.3433962,5.45641509 C13.5698113,5.90981132 13.3867925,6.46037736 12.9339623,6.68660377 L7.81320755,9.24660377 C7.68113208,9.31264151 7.54150943,9.34358491 7.40377358,9.34358491 Z M12.5245283,14.9328302 C12.3867925,14.9328302 12.2471698,14.9020755 12.1132075,14.8358491 L6.99245283,12.2760377 C6.53962264,12.0496226 6.35660377,11.4992453 6.58301887,11.0456604 C6.80943396,10.5930189 7.36037736,10.41 7.81320755,10.6356604 L12.9339623,13.1954717 C13.3867925,13.4218868 13.5698113,13.9722642 13.3433962,14.4256604 C13.1849057,14.7469811 12.8584906,14.9328302 12.5245283,14.9328302 L12.5245283,14.9328302 Z" id="Fill-42"></path>
                </g>
            </g>
        </g>
    </g>
</svg>