<?xml version="1.0" encoding="UTF-8"?>
<svg width="15px" height="15px" viewBox="0 0 15 15" version="1.1" xmlns="http://www.w3.org/2000/svg" xmlns:xlink="http://www.w3.org/1999/xlink">
    <!-- Generator: sketchtool 62 (101010) - https://sketch.com -->
    <title>8D7D093F-10AF-4CBB-8840-36B5EE229CD0</title>
    <desc>Created with sketchtool.</desc>
    <g id="Page-1" stroke="none" stroke-width="1" fill="none" fill-rule="evenodd">
        <g id="Profile-drop-down--for-turtle" transform="translate(-1223.000000, -349.000000)" fill="#000000" fill-rule="nonzero">
            <g id="Group-2" transform="translate(1200.000000, 81.000000)">
                <g id="Group-2-Copy-2">
                    <g id="logout" transform="translate(23.000000, 268.000000)">
                        <path d="M14.2206911,7.51976897 L4.95322182,7.51976897 C4.68862089,7.51976897 4.473874,7.30502207 4.473874,7.04042115 C4.473874,6.77582022 4.68862089,6.56107332 4.95322182,6.56107332 L14.2206911,6.56107332 C14.485292,6.56107332 14.7000389,6.77582022 14.7000389,7.04042115 C14.7000389,7.30502207 14.485292,7.51976897 14.2206911,7.51976897 Z" id="Path"></path>
                        <path d="M7.50982157,10.0762517 C7.38705889,10.0762517 7.26441326,10.0296744 7.17102471,9.93570072 L4.614542,7.37921802 C4.42729676,7.19185575 4.42729676,6.88828439 4.614542,6.70103914 L7.17102471,4.14455644 C7.35826995,3.9573112 7.66184131,3.9573112 7.84920358,4.14455644 C8.03644882,4.33180168 8.03644882,4.63537302 7.84920358,4.82261826 L5.63140069,7.04042115 L7.84920358,9.25822403 C8.03644882,9.44546928 8.03644882,9.74904061 7.84920358,9.93628586 C7.75522986,10.0296744 7.63246721,10.0762517 7.50982157,10.0762517 L7.50982157,10.0762517 Z" id="Path"></path>
                        <path d="M7.03047375,14.0708949 C3.15414612,14.0708949 0,10.9167488 0,7.04042115 C0,3.16409352 3.15414612,0.00994739606 7.03047375,0.00994739606 C9.93909453,0.00994739606 12.507163,1.75987125 13.5738758,4.46860773 C13.6710093,4.71460118 13.5495339,4.99266037 13.3035405,5.09037896 C13.05743,5.18634215 12.7793708,5.06673926 12.6816522,4.81945852 C11.7606397,2.48018027 9.54225164,0.968643042 7.03047375,0.968643042 C3.68264582,0.968643042 0.958695646,3.69271024 0.958695646,7.04042115 C0.958695646,10.3881321 3.68264582,13.1121993 7.03047375,13.1121993 C9.54225164,13.1121993 11.7606397,11.600662 12.6816522,9.26208596 C12.7787857,9.0146882 13.0568449,8.8952023 13.3035405,8.99104847 C13.5495339,9.08818192 13.6710093,9.36682627 13.5738758,9.61293675 C12.507163,12.3209711 9.93909453,14.0708949 7.03047375,14.0708949 Z" id="Path"></path>
                    </g>
                </g>
            </g>
        </g>
    </g>
</svg>