<?xml version="1.0" encoding="UTF-8" standalone="no"?>
<svg xmlns:dc="http://purl.org/dc/elements/1.1/" 
   xmlns:cc="http://creativecommons.org/ns#" 
   xmlns:rdf="http://www.w3.org/1999/02/22-rdf-syntax-ns#" 
   xmlns:svg="http://www.w3.org/2000/svg" 
   xmlns="http://www.w3.org/2000/svg" 
   xmlns:xlink="http://www.w3.org/1999/xlink" 
   xmlns:sodipodi="http://sodipodi.sourceforge.net/DTD/sodipodi-0.dtd" 
   xmlns:inkscape="http://www.inkscape.org/namespaces/inkscape" width="1831" height="248" viewBox="0 0 1831 248" version="1.1" id="svg489" sodipodi:docname="sprite_icons.svg" inkscape:version="0.92.3 (2405546, 2018-03-11)">
   <metadata id="metadata493">
      <rdf:RDF>
         <cc:Work rdf:about="">
            <dc:format>image/svg+xml</dc:format>
            <dc:type rdf:resource="http://purl.org/dc/dcmitype/StillImage" />
            <dc:title></dc:title>
         </cc:Work>
      </rdf:RDF>
   </metadata>
   <sodipodi:namedview pagecolor="#ffffff" bordercolor="#666666" borderopacity="1" objecttolerance="10" gridtolerance="10" guidetolerance="10" inkscape:pageopacity="0" inkscape:pageshadow="2" inkscape:window-width="1920" inkscape:window-height="1017" id="namedview491" showgrid="false" inkscape:zoom="3.0435365" inkscape:cx="1551.7459" inkscape:cy="134.88998" inkscape:window-x="1912" inkscape:window-y="-8" inkscape:window-maximized="1" inkscape:current-layer="svg489" />
   <!-- Generator: Sketch 50.2 (55047) - http://www.bohemiancoding.com/sketch -->
   <desc id="desc2">Created with Sketch.</desc>
   <defs id="defs28">
      <path d="m 18.883333,9.1428571 c 0,0 -0.116666,-1.0119047 -0.583333,-1.4285714 C 17.775,7.1190476 17.191667,7.1190476 16.9,7.1190476 14.916667,7 12,7 12,7 V 7 C 12,7 9.0833333,7 7.1,7.1190476 6.8083333,7.1785714 6.225,7.1785714 5.7,7.7142857 5.2916667,8.1309524 5.1166667,9.1428571 5.1166667,9.1428571 5.1166667,9.1428571 5,10.27381 5,11.464286 v 1.071428 c 0,1.130953 0.1166667,2.321429 0.1166667,2.321429 0,0 0.1166666,1.011905 0.5833333,1.428571 0.525,0.595238 1.225,0.535715 1.5166667,0.595238 C 8.325,17 12,17 12,17 c 0,0 2.916667,0 4.9,-0.178571 0.291667,-0.05952 0.875,-0.05952 1.4,-0.595238 0.408333,-0.416667 0.583333,-1.428572 0.583333,-1.428572 0,0 0.116667,-1.130952 0.116667,-2.321428 V 11.404762 C 19,10.27381 18.883333,9.1428571 18.883333,9.1428571 Z M 10.541667,13.845238 V 9.8571429 l 3.791666,2.0238091 z" id="path-1" inkscape:connector-curvature="0" />
      <path d="M 20,9.3041237 C 19.475,9.5309278 18.95,9.7010309 18.366667,9.757732 18.95,9.4175258 19.416667,8.8505155 19.65,8.2268041 19.066667,8.5670103 18.483333,8.7938144 17.841667,8.9072165 17.316667,8.3402062 16.558333,8 15.741667,8 c -1.575,0 -2.858334,1.2474227 -2.858334,2.778351 0,0.226804 0,0.453608 0.05833,0.623711 C 10.491667,11.28866 8.3916667,10.154639 6.9916667,8.4536083 6.7,8.9072165 6.5833333,9.3608247 6.5833333,9.871134 c 0,0.963918 0.525,1.814433 1.2833334,2.324742 -0.4666667,0 -0.9333334,-0.113402 -1.2833334,-0.340206 0,0 0,0 0,0.0567 0,1.360825 0.9916667,2.494846 2.275,2.72165 C 8.625,14.690722 8.3916667,14.747423 8.1,14.747423 c -0.175,0 -0.35,0 -0.525,-0.0567 0.35,1.13402 1.4,1.927835 2.683333,1.927835 -0.9916663,0.737112 -2.2166663,1.19072 -3.558333,1.19072 -0.2333333,0 -0.4666667,0 -0.7,-0.0567 C 7.2833333,18.546392 8.8,19 10.375,19 c 5.308333,0 8.166667,-4.252577 8.166667,-7.938144 V 10.72165 C 19.125,10.324742 19.591667,9.814433 20,9.3041237 Z" id="path-3" inkscape:connector-curvature="0" />
      <path d="m 17.999745,21.95475 c -0.193,0 -0.387,-0.056 -0.555,-0.168 l -5.445,-3.63 -5.4450002,3.63 c -0.348,0.232 -0.805,0.224 -1.145,-0.024 -0.338,-0.247 -0.486,-0.679 -0.371,-1.082 l 1.838,-6.435 -4.584,-4.584 c -0.286,-0.285 -0.371,-0.716 -0.217,-1.09 0.154,-0.373 0.52,-0.617 0.924,-0.617 h 5.382 l 2.7240002,-5.447 c 0.339,-0.677 1.45,-0.677 1.789,0 l 2.724,5.447 h 5.381 c 0.404,0 0.77,0.244 0.924,0.617 0.154,0.374 0.069,0.805 -0.217,1.09 l -4.584,4.584 1.838,6.435 c 0.115,0.403 -0.033,0.835 -0.371,1.082 -0.176,0.128 -0.383,0.192 -0.59,0.192 z" id="path-5" inkscape:connector-curvature="0" />
      <path d="m 17.999745,21.95475 c -0.193,0 -0.387,-0.056 -0.555,-0.168 l -5.445,-3.63 -5.4450002,3.63 c -0.348,0.232 -0.805,0.224 -1.145,-0.024 -0.338,-0.247 -0.486,-0.679 -0.371,-1.082 l 1.838,-6.435 -4.584,-4.584 c -0.286,-0.285 -0.371,-0.716 -0.217,-1.09 0.154,-0.373 0.52,-0.617 0.924,-0.617 h 5.382 l 2.7240002,-5.447 c 0.339,-0.677 1.45,-0.677 1.789,0 l 2.724,5.447 h 5.381 c 0.404,0 0.77,0.244 0.924,0.617 0.154,0.374 0.069,0.805 -0.217,1.09 l -4.584,4.584 1.838,6.435 c 0.115,0.403 -0.033,0.835 -0.371,1.082 -0.176,0.128 -0.383,0.192 -0.59,0.192 z m -6,-6 c 0.193,0 0.387,0.057 0.555,0.168 l 3.736,2.491 -1.252,-4.384 c -0.101,-0.35 -0.003,-0.726 0.254,-0.982 l 3.293,-3.293 h -3.586 c -0.379,0 -0.725,-0.214 -0.895,-0.553 l -2.105,-4.211 -2.1050002,4.211 c -0.17,0.339 -0.516,0.553 -0.895,0.553 h -3.586 l 3.293,3.293 c 0.257,0.257 0.354,0.633 0.254,0.982 l -1.252,4.384 3.7360002,-2.491 c 0.168,-0.111 0.362,-0.168 0.555,-0.168 z" id="path-7" inkscape:connector-curvature="0" />
      <polygon id="path-9" points="20,4 20,0 0,0 0,4 " />
      <polygon id="path-11" points="8,20 12,20 12,12 20,12 20,8 12,8 12,0 8,0 8,8 0,8 0,12 8,12 " />
      <path d="M 12.84777,8.2171637 0.5319808,0.05735891 C 0.42678316,-0.01233888 0.29164227,-0.01913871 0.18131469,0.04035932 0.06927495,0.09985844 0,0.21460488 0,0.34040078 V 16.66001 c 0,0.125796 0.06927714,0.240551 0.1804608,0.300042 C 0.2309216,16.9864 0.28651453,17 0.34210526,17 0.40881636,17 0.47467133,16.98045 0.53197423,16.94305 L 12.847764,8.7832463 C 12.942697,8.7194976 13,8.6141012 13,8.500199 13,8.3862969 12.942697,8.2800584 12.847764,8.2171517 Z" id="path-13" inkscape:connector-curvature="0" />
      <path d="m 12,6.2611667 c 1.869,0 2.090667,0.007 2.828583,0.040833 0.796834,0.036167 1.535917,0.196 2.104667,0.76475 C 17.502,7.6355 17.661833,8.3745833 17.698,9.1714167 17.731833,9.9093333 17.738833,10.131 17.738833,12 c 0,1.869 -0.007,2.090667 -0.04083,2.828583 -0.03617,0.796834 -0.196,1.535917 -0.76475,2.104667 C 16.3645,17.502 15.625417,17.661833 14.828583,17.698 14.090667,17.731833 13.869,17.738833 12,17.738833 c -1.869,0 -2.0906667,-0.007 -2.8285833,-0.04083 C 8.3745833,17.661833 7.6355,17.502 7.06675,16.93325 6.498,16.3645 6.3381667,15.625417 6.302,14.828583 6.2681667,14.090667 6.2611667,13.869 6.2611667,12 c 0,-1.869 0.007,-2.0906667 0.040833,-2.8285833 C 6.3381667,8.3745833 6.498,7.6355 7.06675,7.06675 7.6355,6.498 8.3745833,6.3381667 9.1714167,6.302 9.9093333,6.2681667 10.131,6.2611667 12,6.2611667 Z M 12,5 c 1.901083,0 2.139667,0.00817 2.886333,0.042 1.1375,0.051917 2.13675,0.33075 2.938834,1.1328333 C 18.62725,6.9769167 18.906083,7.9761667 18.958,9.1136667 18.991833,9.8603333 19,10.098917 19,12 c 0,1.901083 -0.0082,2.139667 -0.042,2.886333 -0.05192,1.1375 -0.33075,2.13675 -1.132833,2.938834 C 17.023083,18.62725 16.023833,18.906083 14.886333,18.958 14.139667,18.991833 13.901083,19 12,19 10.098917,19 9.8603333,18.991833 9.1136667,18.958 7.9761667,18.906083 6.9769167,18.62725 6.1748333,17.825167 5.37275,17.023083 5.0939167,16.023833 5.042,14.886333 5.0081667,14.139667 5,13.901083 5,12 5,10.098917 5.0081667,9.8603333 5.042,9.1136667 5.0939167,7.9761667 5.37275,6.9769167 6.1748333,6.1748333 6.9769167,5.37275 7.9761667,5.0939167 9.1136667,5.042 9.8603333,5.0081667 10.098917,5 12,5 Z m 0,3.4055 c -1.985083,0 -3.5945,1.609417 -3.5945,3.5945 0,1.985083 1.609417,3.5945 3.5945,3.5945 1.985083,0 3.5945,-1.609417 3.5945,-3.5945 0,-1.985083 -1.609417,-3.5945 -3.5945,-3.5945 z m 0,5.927833 c -1.288583,0 -2.3333333,-1.04475 -2.3333333,-2.333333 0,-1.288583 1.0447503,-2.3333333 2.3333333,-2.3333333 1.288583,0 2.333333,1.0447503 2.333333,2.3333333 0,1.288583 -1.04475,2.333333 -2.333333,2.333333 z m 3.736833,-5.2301663 c 0.463919,0 0.84,-0.3760808 0.84,-0.84 0,-0.4639192 -0.376081,-0.84 -0.84,-0.84 -0.463919,0 -0.84,0.3760808 -0.84,0.84 0,0.4639192 0.376081,0.84 0.84,0.84 z" id="path-15" inkscape:connector-curvature="0" />
      <path d="m 12,6.2611667 c 1.869,0 2.090667,0.007 2.828583,0.040833 0.796834,0.036167 1.535917,0.196 2.104667,0.76475 C 17.502,7.6355 17.661833,8.3745833 17.698,9.1714167 17.731833,9.9093333 17.738833,10.131 17.738833,12 c 0,1.869 -0.007,2.090667 -0.04083,2.828583 -0.03617,0.796834 -0.196,1.535917 -0.76475,2.104667 C 16.3645,17.502 15.625417,17.661833 14.828583,17.698 14.090667,17.731833 13.869,17.738833 12,17.738833 c -1.869,0 -2.0906667,-0.007 -2.8285833,-0.04083 C 8.3745833,17.661833 7.6355,17.502 7.06675,16.93325 6.498,16.3645 6.3381667,15.625417 6.302,14.828583 6.2681667,14.090667 6.2611667,13.869 6.2611667,12 c 0,-1.869 0.007,-2.0906667 0.040833,-2.8285833 C 6.3381667,8.3745833 6.498,7.6355 7.06675,7.06675 7.6355,6.498 8.3745833,6.3381667 9.1714167,6.302 9.9093333,6.2681667 10.131,6.2611667 12,6.2611667 Z M 12,5 c 1.901083,0 2.139667,0.00817 2.886333,0.042 1.1375,0.051917 2.13675,0.33075 2.938834,1.1328333 C 18.62725,6.9769167 18.906083,7.9761667 18.958,9.1136667 18.991833,9.8603333 19,10.098917 19,12 c 0,1.901083 -0.0082,2.139667 -0.042,2.886333 -0.05192,1.1375 -0.33075,2.13675 -1.132833,2.938834 C 17.023083,18.62725 16.023833,18.906083 14.886333,18.958 14.139667,18.991833 13.901083,19 12,19 10.098917,19 9.8603333,18.991833 9.1136667,18.958 7.9761667,18.906083 6.9769167,18.62725 6.1748333,17.825167 5.37275,17.023083 5.0939167,16.023833 5.042,14.886333 5.0081667,14.139667 5,13.901083 5,12 5,10.098917 5.0081667,9.8603333 5.042,9.1136667 5.0939167,7.9761667 5.37275,6.9769167 6.1748333,6.1748333 6.9769167,5.37275 7.9761667,5.0939167 9.1136667,5.042 9.8603333,5.0081667 10.098917,5 12,5 Z m 0,3.4055 c -1.985083,0 -3.5945,1.609417 -3.5945,3.5945 0,1.985083 1.609417,3.5945 3.5945,3.5945 1.985083,0 3.5945,-1.609417 3.5945,-3.5945 0,-1.985083 -1.609417,-3.5945 -3.5945,-3.5945 z m 0,5.927833 c -1.288583,0 -2.3333333,-1.04475 -2.3333333,-2.333333 0,-1.288583 1.0447503,-2.3333333 2.3333333,-2.3333333 1.288583,0 2.333333,1.0447503 2.333333,2.3333333 0,1.288583 -1.04475,2.333333 -2.333333,2.333333 z m 3.736833,-5.2301663 c 0.463919,0 0.84,-0.3760808 0.84,-0.84 0,-0.4639192 -0.376081,-0.84 -0.84,-0.84 -0.463919,0 -0.84,0.3760808 -0.84,0.84 0,0.4639192 0.376081,0.84 0.84,0.84 z" id="path-17" inkscape:connector-curvature="0" />
      <path d="m 12,6.2611667 c 1.869,0 2.090667,0.007 2.828583,0.040833 0.796834,0.036167 1.535917,0.196 2.104667,0.76475 C 17.502,7.6355 17.661833,8.3745833 17.698,9.1714167 17.731833,9.9093333 17.738833,10.131 17.738833,12 c 0,1.869 -0.007,2.090667 -0.04083,2.828583 -0.03617,0.796834 -0.196,1.535917 -0.76475,2.104667 C 16.3645,17.502 15.625417,17.661833 14.828583,17.698 14.090667,17.731833 13.869,17.738833 12,17.738833 c -1.869,0 -2.0906667,-0.007 -2.8285833,-0.04083 C 8.3745833,17.661833 7.6355,17.502 7.06675,16.93325 6.498,16.3645 6.3381667,15.625417 6.302,14.828583 6.2681667,14.090667 6.2611667,13.869 6.2611667,12 c 0,-1.869 0.007,-2.0906667 0.040833,-2.8285833 C 6.3381667,8.3745833 6.498,7.6355 7.06675,7.06675 7.6355,6.498 8.3745833,6.3381667 9.1714167,6.302 9.9093333,6.2681667 10.131,6.2611667 12,6.2611667 Z M 12,5 c 1.901083,0 2.139667,0.00817 2.886333,0.042 1.1375,0.051917 2.13675,0.33075 2.938834,1.1328333 C 18.62725,6.9769167 18.906083,7.9761667 18.958,9.1136667 18.991833,9.8603333 19,10.098917 19,12 c 0,1.901083 -0.0082,2.139667 -0.042,2.886333 -0.05192,1.1375 -0.33075,2.13675 -1.132833,2.938834 C 17.023083,18.62725 16.023833,18.906083 14.886333,18.958 14.139667,18.991833 13.901083,19 12,19 10.098917,19 9.8603333,18.991833 9.1136667,18.958 7.9761667,18.906083 6.9769167,18.62725 6.1748333,17.825167 5.37275,17.023083 5.0939167,16.023833 5.042,14.886333 5.0081667,14.139667 5,13.901083 5,12 5,10.098917 5.0081667,9.8603333 5.042,9.1136667 5.0939167,7.9761667 5.37275,6.9769167 6.1748333,6.1748333 6.9769167,5.37275 7.9761667,5.0939167 9.1136667,5.042 9.8603333,5.0081667 10.098917,5 12,5 Z m 0,3.4055 c -1.985083,0 -3.5945,1.609417 -3.5945,3.5945 0,1.985083 1.609417,3.5945 3.5945,3.5945 1.985083,0 3.5945,-1.609417 3.5945,-3.5945 0,-1.985083 -1.609417,-3.5945 -3.5945,-3.5945 z m 0,5.927833 c -1.288583,0 -2.3333333,-1.04475 -2.3333333,-2.333333 0,-1.288583 1.0447503,-2.3333333 2.3333333,-2.3333333 1.288583,0 2.333333,1.0447503 2.333333,2.3333333 0,1.288583 -1.04475,2.333333 -2.333333,2.333333 z m 3.736833,-5.2301663 c 0.463919,0 0.84,-0.3760808 0.84,-0.84 0,-0.4639192 -0.376081,-0.84 -0.84,-0.84 -0.463919,0 -0.84,0.3760808 -0.84,0.84 0,0.4639192 0.376081,0.84 0.84,0.84 z" id="path-19" inkscape:connector-curvature="0" />
      <path d="m 10.345617,19 -0.01834,-5.909091 H 8 v -2.363636 h 2.327273 V 9.25 c 0,-2.1931 1.337204,-3.25 3.263499,-3.25 0.922718,0 1.715741,0.069769 1.946851,0.1009568 v 2.2919178 l -1.335988,6.145e-4 c -1.047628,0 -1.250473,0.5055936 -1.250473,1.2475214 V 10.727273 H 16 l -1.163636,2.363636 H 12.951162 V 19 Z" id="path-21" inkscape:connector-curvature="0" />
      <polygon id="path-23" points="12.991271,18 1.8571429e-005,18 1.8571429e-005,0.11214 12.991271,0.11214 " />
      <polygon id="path-25" points="13,0 0,0 0,18 13,18 " />
      <rect id="path-27" x="0" y="0" width="2" height="8" />
      <rect id="path-29" x="0" y="0" width="2" height="8" />
      <rect id="path-31" x="0" y="0" width="2" height="8" />
      <rect id="path-33" x="0" y="0" width="2" height="8" />
      <rect id="path-35" x="0" y="0" width="2" height="8" />
      <rect id="path-37" x="0" y="0" width="2" height="8" />
      <rect id="path-39" x="0" y="0" width="2" height="8" />
      <rect id="path-41" x="0" y="0" width="2" height="8" />
      <polygon id="path-43" points="16,6 6.2,16 4,13.76092 11.5592,6.00012 4,-1.72032 6.2,-4 " />
      <polygon id="path-45" points="16,6 6.2,16 4,13.76092 11.5592,6.00012 4,-1.72032 6.2,-4 " />
      <polygon id="path-47" points="16,6 6.2,16 4,13.76092 11.5592,6.00012 4,-1.72032 6.2,-4 " />
      <clipPath id="clip_0">
         <rect id="rect495" height="2480.29" width="1396.8" y="-1974.66" x="-401.69922" style="clip-rule:evenodd" />
      </clipPath>
      <clipPath id="clip_1">
         <rect id="rect504" height="2480.29" width="1396.8" y="-1974.66" x="-401.69922" style="clip-rule:evenodd" />
      </clipPath>
      <clipPath id="clip_0-2">
         <rect id="rect529" height="2532.4529" width="1426.176" y="-1962.4111" x="-564.46387" style="clip-rule:evenodd" />
      </clipPath>
      <clipPath id="clip_1-9">
         <rect id="rect538" height="2532.4529" width="1426.176" y="-1962.4111" x="-564.46387" style="clip-rule:evenodd" />
      </clipPath>
      <clipPath id="clip_0-9">
         <rect id="rect563" height="2557" width="1440" y="-1981" x="-421" style="clip-rule:evenodd" />
      </clipPath>
      <clipPath id="clip_1-6">
         <rect id="rect572" height="2557" width="1440" y="-1981" x="-421" style="clip-rule:evenodd" />
      </clipPath>
      <clipPath id="clip_0-5">
         <rect id="rect597" height="2557" width="1440" y="-450" x="-730" style="clip-rule:evenodd" />
      </clipPath>
      <clipPath id="clip_1-1">
         <rect id="rect606" height="2557" width="1440" y="-450" x="-730" style="clip-rule:evenodd" />
      </clipPath>
   </defs>
   <g id="Symbols" style="fill:none;fill-rule:evenodd;stroke:none;stroke-width:1">
      <g id="Icon/Youtube" transform="translate(1331,224)">
         <rect id="Bounding-Box" x="0" y="0" width="24" height="24" />
         <mask id="mask-2" fill="white">
            <use xlink:href="#path-1" id="use31" x="0" y="0" width="100%" height="100%" />
         </mask>
         <use id="youtube" xlink:href="#path-1" style="fill:#ed1b2f" x="0" y="0" width="100%" height="100%" />
         <g id="Fill/Solid/BLACK" mask="url(#mask-2)" style="fill:#000000">
            <rect id="Rectangle" x="0" y="0" width="24" height="24" />
         </g>
      </g>
      <g id="Icon/Twitter" transform="translate(1257,224)">
         <rect id="rect38" x="0" y="0" width="24" height="24" />
         <mask id="mask-4" fill="white">
            <use xlink:href="#path-3" id="use40" x="0" y="0" width="100%" height="100%" />
         </mask>
         <use id="twitter" xlink:href="#path-3" style="fill:#028ff0" x="0" y="0" width="100%" height="100%" />
         <g id="g46" mask="url(#mask-4)" style="fill:#000000">
            <rect id="rect44" x="0" y="0" width="24" height="24" />
         </g>
      </g>
      <g id="Icon/twitter---Black" transform="translate(1186,224)" style="fill:#000000;fill-rule:nonzero">
         <g id="03-twitter">
            <path d="M 20.692417,2.2097022 C 19.943958,2.530118 19.139019,2.7463299 18.293919,2.8433267 19.156372,2.3456012 19.818271,1.5570049 20.130174,0.61678146 19.32321,1.0781531 18.429894,1.4131423 17.478444,1.5937569 16.716888,0.81161113 15.631488,0.32280486 14.430525,0.32280486 c -2.306154,0 -4.175875,1.80192564 -4.175875,4.02440944 0,0.3153588 0.0369,0.6223559 0.108126,0.91689 C 6.8921836,5.0965102 3.8149706,3.4944711 1.7553972,1.0594784 1.3960626,1.6536432 1.190097,2.3448446 1.190097,3.0826729 c 0,1.39614 0.7371792,2.6278315 1.8576569,3.3497325 C 2.3634192,6.4112222 1.7192447,6.2304085 1.1563822,5.9288267 c -3.718e-4,0.016723 -3.718e-4,0.033646 -3.718e-4,0.050967 0,1.9494913 1.4394455,3.5760184 3.349947,3.9460077 -0.3504515,0.091781 -0.7194129,0.1411546 -1.100315,0.1411546 -0.269346,0 -0.5308004,-0.02508 -0.7858094,-0.072309 0.5316268,1.598734 2.0737452,2.762376 3.9007448,2.794828 -1.4291575,1.079467 -3.229549,1.722807 -5.1862429,1.722807 -0.33689944,0 -0.66917134,-0.01927 -0.99598939,-0.05618 1.84836059,1.142021 4.04312349,1.808137 6.40129549,1.808137 7.681174,0 11.881096,-6.132336 11.881096,-11.4504337 0,-0.174204 -0.0036,-0.3482088 -0.01169,-0.5206607 0.815641,-0.5673275 1.523939,-1.2761682 2.083373,-2.0834392 z" id="Shape" inkscape:connector-curvature="0" />
         </g>
      </g>
      <g id="Icon/twitter" transform="translate(1115,224)" style="fill:#ffffff;fill-rule:nonzero">
         <g id="g54">
            <path d="M 20.692417,2.2097022 C 19.943958,2.530118 19.139019,2.7463299 18.293919,2.8433267 19.156372,2.3456012 19.818271,1.5570049 20.130174,0.61678146 19.32321,1.0781531 18.429894,1.4131423 17.478444,1.5937569 16.716888,0.81161113 15.631488,0.32280486 14.430525,0.32280486 c -2.306154,0 -4.175875,1.80192564 -4.175875,4.02440944 0,0.3153588 0.0369,0.6223559 0.108126,0.91689 C 6.8921836,5.0965102 3.8149706,3.4944711 1.7553972,1.0594784 1.3960626,1.6536432 1.190097,2.3448446 1.190097,3.0826729 c 0,1.39614 0.7371792,2.6278315 1.8576569,3.3497325 C 2.3634192,6.4112222 1.7192447,6.2304085 1.1563822,5.9288267 c -3.718e-4,0.016723 -3.718e-4,0.033646 -3.718e-4,0.050967 0,1.9494913 1.4394455,3.5760184 3.349947,3.9460077 -0.3504515,0.091781 -0.7194129,0.1411546 -1.100315,0.1411546 -0.269346,0 -0.5308004,-0.02508 -0.7858094,-0.072309 0.5316268,1.598734 2.0737452,2.762376 3.9007448,2.794828 -1.4291575,1.079467 -3.229549,1.722807 -5.1862429,1.722807 -0.33689944,0 -0.66917134,-0.01927 -0.99598939,-0.05618 1.84836059,1.142021 4.04312349,1.808137 6.40129549,1.808137 7.681174,0 11.881096,-6.132336 11.881096,-11.4504337 0,-0.174204 -0.0036,-0.3482088 -0.01169,-0.5206607 0.815641,-0.5673275 1.523939,-1.2761682 2.083373,-2.0834392 z" id="path52" inkscape:connector-curvature="0" />
         </g>
      </g>
      <g id="Icon/Success-mobile" transform="translate(1054,224)" style="fill:#10b351">
         <g id="Group" transform="rotate(40,5.3737387,8.6212161)">
            <rect id="Rectangle-9" x="4" y="0" width="1" height="10" />
            <rect id="rect58" transform="rotate(90,2.5,9.5)" x="2" y="7.5" width="1" height="4" />
         </g>
      </g>
      <g id="Icon/Success" transform="translate(980,224)" style="fill:#10b351">
         <g id="g66" transform="rotate(40,5.7327436,22.772377)">
            <rect id="rect62" x="6" y="4.5474735e-013" width="1" height="17" />
            <rect id="rect64" transform="rotate(90,3.5,16.5)" x="3" y="13" width="1" height="7" />
         </g>
      </g>
      <g id="Icon/Star---Filled" transform="translate(906,224)">
         <rect id="rect69" x="0" y="0" width="24" height="24" />
         <mask id="mask-6" fill="white">
            <use xlink:href="#path-5" id="use71" x="0" y="0" width="100%" height="100%" />
         </mask>
         <use id="star-solid" xlink:href="#path-5" style="fill:#000000" x="0" y="0" width="100%" height="100%" />
         <g id="↳-🎨Color" mask="url(#mask-6)" style="fill:#000000">
            <rect id="rect75" x="0" y="0" width="24" height="24" />
         </g>
      </g>
      <g id="Icon/Star" transform="translate(832,224)">
         <rect id="rect79" x="0" y="0" width="24" height="24" />
         <mask id="mask-8" fill="white">
            <use xlink:href="#path-7" id="use81" x="0" y="0" width="100%" height="100%" />
         </mask>
         <use id="star-outline" xlink:href="#path-7" style="fill:#000000" x="0" y="0" width="100%" height="100%" />
         <g id="g87" mask="url(#mask-8)" style="fill:#000000">
            <rect id="rect85" x="0" y="0" width="24" height="24" />
         </g>
      </g>
      <g id="Icon/profile" transform="translate(767,224)" style="fill:#000000">
         <path d="m 1.6042013,12.532822 c 0,-1.985199 1.6242538,-3.6094524 3.6094528,-3.6094524 H 8.783002 c 2.105514,0 3.809978,1.7044634 3.809978,3.8099784 v 2.606827 H 1.6042013 Z M 7.0985906,1.6443063 c 1.4437812,0 2.6068271,1.1630459 2.6068271,2.6068271 0,1.4437811 -1.1630459,2.606827 -2.6068271,2.606827 -1.4437811,0 -2.606827,-1.1630459 -2.606827,-2.606827 0,-1.4437812 1.1630459,-2.6068271 2.606827,-2.6068271 z M 0,16.924123 h 14.197181 v -4.211028 c 0,-2.62668 -1.864884,-4.8124037 -4.3513957,-5.3137166 C 10.748148,6.6173302 11.309619,5.4943893 11.309619,4.2110283 11.309619,1.8849365 9.4246825,0 7.0985906,0 4.7724988,0 2.8875623,1.8849365 2.8875623,4.2110283 c 0,1.2633085 0.5614704,2.3862494 1.4237286,3.148245 C 1.864884,7.7803762 0,9.9259954 0,12.492717 Z" id="Fill-1" inkscape:connector-curvature="0" />
      </g>
      <g id="Icon/Plus-Copy-2" transform="translate(693,224)">
         <g id="g104" transform="translate(2,10)">
            <g id="g102">
               <mask id="mask-10" fill="white">
                  <use xlink:href="#path-9" id="use92" x="0" y="0" width="100%" height="100%" />
               </mask>
               <use id="Mask" xlink:href="#path-9" style="fill:#000000;fill-rule:nonzero" x="0" y="0" width="100%" height="100%" />
               <g id="g100" mask="url(#mask-10)" style="fill:#000000">
                  <g transform="translate(-2,-10)" id="g98">
                     <rect x="0" y="0" width="24" height="24" id="rect96" />
                  </g>
               </g>
            </g>
         </g>
      </g>
      <g id="Icon/Plus" transform="translate(619,224)">
         <g id="g118" transform="translate(2,2)">
            <mask id="mask-12" fill="white">
               <use xlink:href="#path-11" id="use107" x="0" y="0" width="100%" height="100%" />
            </mask>
            <use id="use110" xlink:href="#path-11" style="fill:#000000;fill-rule:nonzero" x="0" y="0" width="100%" height="100%" />
            <g id="g116" mask="url(#mask-12)" style="fill:#000000">
               <g transform="translate(0,-3)" id="g114">
                  <rect x="0" y="0" width="24" height="24" id="rect112" />
               </g>
            </g>
         </g>
      </g>
      <g id="Icon/play" transform="translate(545,224)">
         <g id="g132" transform="translate(6,4)">
            <mask id="mask-14" fill="white">
               <use xlink:href="#path-13" id="use121" x="0" y="0" width="100%" height="100%" />
            </mask>
            <use id="use124" xlink:href="#path-13" style="fill:#000000;fill-rule:nonzero" x="0" y="0" width="100%" height="100%" />
            <g id="g130" mask="url(#mask-14)" style="fill:#000000">
               <g transform="translate(-6,-4)" id="g128">
                  <rect x="0" y="0" width="24" height="24" id="rect126" />
               </g>
            </g>
         </g>
      </g>
      <g id="Icon/Instagram-Copy-1-Copy-1" transform="translate(471,224)">
         <rect id="rect135" x="0" y="0" width="24" height="24" />
         <mask id="mask-16" fill="white">
            <use xlink:href="#path-15" id="use137" x="0" y="0" width="100%" height="100%" />
         </mask>
         <use id="instagram" xlink:href="#path-15" style="fill:#000000" x="0" y="0" width="100%" height="100%" />
         <g id="Fill/Solid/BLACK-Copy-2-Copy-1" mask="url(#mask-16)" style="fill:#000000">
            <rect id="rect141" x="0" y="0" width="24" height="24" />
         </g>
      </g>
      <g id="Icon/Instagram-Copy-1" transform="translate(397,224)">
         <rect id="rect145" x="0" y="0" width="24" height="24" />
         <mask id="mask-18" fill="white">
            <use xlink:href="#path-17" id="use147" x="0" y="0" width="100%" height="100%" />
         </mask>
         <use id="use150" xlink:href="#path-17" style="fill:#000000" x="0" y="0" width="100%" height="100%" />
         <g id="g154" mask="url(#mask-18)" style="fill:#000000">
            <rect id="rect152" x="0" y="0" width="24" height="24" />
         </g>
      </g>
      <g id="Icon/Instagram" transform="translate(323,224)">
         <rect id="rect157" x="0" y="0" width="24" height="24" />
         <mask id="mask-20" fill="white">
            <use xlink:href="#path-19" id="use159" x="0" y="0" width="100%" height="100%" />
         </mask>
         <use id="use162" xlink:href="#path-19" style="fill:#000000" x="0" y="0" width="100%" height="100%" />
         <g id="g166" mask="url(#mask-20)" style="fill:#000000">
            <rect id="rect164" x="0" y="0" width="24" height="24" />
         </g>
      </g>
      <g id="Icon/info" transform="translate(266,224)" style="fill:#000000">
         <path d="M 4.7142857,1.6790123 C 4.5324675,1.9012346 4.2727273,2 3.987013,2 3.7272727,2 3.4935065,1.9012346 3.2857143,1.7037037 3.1038961,1.5061728 3,1.2839506 3,1.0123457 3,0.74074074 3.1038961,0.49382716 3.2857143,0.2962963 3.4675325,0.09876543 3.7012987,0 3.987013,0 4.2727273,0 4.5324675,0.09876543 4.7142857,0.2962963 4.8961039,0.49382716 5,0.71604938 5,0.96296296 5,1.2098765 4.9220779,1.4567901 4.7142857,1.6790123 Z M 4.862069,11.421222 C 4.3655172,11.623794 3.9517241,11.797428 3.6482759,11.884244 3.3448276,11.971061 3.0965517,12 2.8758621,12 2.4344828,12 2.1034483,11.884244 1.8827586,11.623794 1.662069,11.392283 1.5517241,11.073955 1.5517241,10.726688 c 0,-0.144694 0,-0.26045 0.027586,-0.405145 0.027586,-0.144694 0.055173,-0.318328 0.1103449,-0.5498388 L 2.5724138,6.0675241 C 2.6275862,5.8649518 2.6551724,5.6334405 2.7103448,5.4019293 2.7655172,5.170418 2.7655172,4.9678457 2.7655172,4.7942122 2.7655172,4.4758842 2.7103448,4.244373 2.6,4.1575563 2.4896552,4.0418006 2.2965517,3.9839228 1.9655172,3.9839228 c -0.1103448,0 -0.275862,0.028939 -0.4965517,0.057878 C 1.2758621,4.0707395 1.1103448,4.1286174 1,4.1575563 L 1.137931,3.607717 C 1.5793103,3.4051447 1.9655172,3.2604502 2.2965517,3.1446945 2.6275862,3.0578778 2.9034483,3 3.1241379,3 c 0.4413793,0 0.7724138,0.1157556 0.9931035,0.3472669 0.1931034,0.2315112 0.3031724,0.5209003 0.3031724,0.926045 0,0.1157556 0,0.2604502 -0.02731,0.4340836 -0.027587,0.1736334 -0.055173,0.3472669 -0.110621,0.5498392 L 3.4,8.9614148 C 3.344828,9.1929261 3.2896552,9.4244373 3.262069,9.6270097 3.234483,9.8585209 3.206897,10.032154 3.206897,10.176849 c 0,0.318328 0.082759,0.549839 0.2206896,0.694534 0.137931,0.115755 0.3586207,0.173633 0.6896552,0.173633 0.1103448,0 0.2482758,0 0.4411034,-0.05788 C 4.7517241,10.929261 4.9172414,10.929261 5,10.871383 Z" id="path169" inkscape:connector-curvature="0" />
      </g>
      <g id="Icon/Heart-Outline" transform="translate(192,224)" style="fill:#000000">
         <g id="g174" transform="translate(4,5)">
            <path d="m 4.0503038,0.41033503 c 0.9257016,0 1.8489413,0.39053725 2.5645546,1.17869727 L 7.8522048,2.950286 c 0.076937,0.084401 0.2068056,0.089611 0.2898972,0.011462 0.0041,-0.00375 0.0078,-0.0075 0.011489,-0.011462 L 9.3845774,1.6021614 c 1.4312266,-1.57673688 3.6978826,-1.57652849 5.1291096,0 1.431226,1.5765284 1.431226,4.128358 0,5.7048864 -2.172281,2.3930306 -4.341689,4.7837692 -6.5139691,7.1767992 L 1.4857492,7.2939188 c -1.43020087,-1.5781957 -1.43143185,-4.128358 0,-5.7048865 C 2.2013625,0.80087228 3.1246022,0.41033503 4.0503038,0.41033503 M 4.0503038,0 C 3.0109411,0 1.9744507,0.43888551 1.1843627,1.3089458 c -1.57997082,1.7405374 -1.5783295,4.5295236 0,6.2715198 l 6.661482,7.3526874 c 0.076937,0.0844 0.2068057,0.08961 0.2898972,0.01146 0.0041,-0.0038 0.0078,-0.0075 0.011489,-0.01146 2.2235721,-2.449507 4.4440661,-4.896721 6.6676371,-7.3460187 1.580176,-1.7405374 1.580176,-4.5309823 0,-6.2715198 -1.579971,-1.74053737 -4.151501,-1.74053737 -5.7316772,0 L 7.9997179,2.5074409 6.9162449,1.3091542 C 6.1261569,0.43888551 5.0896665,0 4.0503038,0" id="path172" inkscape:connector-curvature="0" />
         </g>
      </g>
      <g id="Icon/Heart-White" transform="translate(145,224)" style="fill:#ffffff;">
         <g id="g174" transform="translate(4,5)">
            <path d="M 4.0503038,0 C 3.0109411,0 1.9744507,0.43888551 1.1843627,1.3089458 c -1.57997082,1.7405374 -1.5783295,4.5295236 0,6.2715198 l 6.661482,7.3526874 c 0.076937,0.0844 0.2068057,0.08961 0.2898972,0.01146 0.0041,-0.0038 0.0078,-0.0075 0.011489,-0.01146 2.2235721,-2.449507 4.4440661,-4.896721 6.6676371,-7.3460187 1.580176,-1.7405374 1.580176,-4.5309823 0,-6.2715198 -1.579971,-1.74053737 -4.151501,-1.74053737 -5.7316772,0 L 7.9997179,2.5074409 6.9162449,1.3091542 C 6.1261569,0.43888551 5.0896665,0 4.0503038,0" id="path177" inkscape:connector-curvature="0" />
         </g>
      </g>
      <g id="Icon/Heart" transform="translate(100,224)" style="fill:#000000">
         <g id="g179" transform="translate(4,5)">
            <path d="M 4.0503038,0 C 3.0109411,0 1.9744507,0.43888551 1.1843627,1.3089458 c -1.57997082,1.7405374 -1.5783295,4.5295236 0,6.2715198 l 6.661482,7.3526874 c 0.076937,0.0844 0.2068057,0.08961 0.2898972,0.01146 0.0041,-0.0038 0.0078,-0.0075 0.011489,-0.01146 2.2235721,-2.449507 4.4440661,-4.896721 6.6676371,-7.3460187 1.580176,-1.7405374 1.580176,-4.5309823 0,-6.2715198 -1.579971,-1.74053737 -4.151501,-1.74053737 -5.7316772,0 L 7.9997179,2.5074409 6.9162449,1.3091542 C 6.1261569,0.43888551 5.0896665,0 4.0503038,0" id="path177" inkscape:connector-curvature="0" />
         </g>
      </g>
      <g id="Icon/Facebook-Copy-1" transform="translate(59,224)" style="fill:#ffffff;fill-rule:nonzero">
         <g id="06-facebook">
            <path d="M 8.6786633,5.1820925 H 5.8468929 v -1.650868 c 0,-0.619981 0.4622693,-0.7645225 0.7878581,-0.7645225 0.324848,0 1.9983521,0 1.9983521,0 V 0.04115646 L 5.8809704,0.03160816 c -3.0551265,0 -3.7503826,2.03280004 -3.7503826,3.33367344 V 5.1820925 H 0.36374082 v 2.808517 H 2.1305878 c 0,3.6043185 0,7.9471485 0,7.9471485 h 3.7163051 c 0,0 0,-4.385633 0,-7.9471485 h 2.5076632 z" id="path182" inkscape:connector-curvature="0" />
         </g>
      </g>
      <g id="Icon/Facebook-Black" transform="translate(0,224)" style="fill:#000000;fill-rule:nonzero">
         <g id="g188">
            <path d="M 8.6786633,5.1820925 H 5.8468929 v -1.650868 c 0,-0.619981 0.4622693,-0.7645225 0.7878581,-0.7645225 0.324848,0 1.9983521,0 1.9983521,0 V 0.04115646 L 5.8809704,0.03160816 c -3.0551265,0 -3.7503826,2.03280004 -3.7503826,3.33367344 V 5.1820925 H 0.36374082 v 2.808517 H 2.1305878 c 0,3.6043185 0,7.9471485 0,7.9471485 h 3.7163051 c 0,0 0,-4.385633 0,-7.9471485 h 2.5076632 z" id="path186" inkscape:connector-curvature="0" />
         </g>
      </g>
      <g id="Icon/Facebook" transform="translate(1369)">
         <rect id="rect191" x="0" y="0" width="24" height="24" />
         <mask id="mask-22" fill="white">
            <use xlink:href="#path-21" id="use193" x="0" y="0" width="100%" height="100%" />
         </mask>
         <use id="facebook" xlink:href="#path-21" style="fill:#028ff0" x="0" y="0" width="100%" height="100%" />
         <g id="g199" mask="url(#mask-22)" style="fill:#000000">
            <rect id="rect197" x="0" y="0" width="24" height="24" />
         </g>
      </g>
      <g id="Icon/cross-black-Mobile" transform="translate(1296)" style="fill:#000000">
         <g id="x" transform="rotate(45,6.0104078,14.510408)">
            <polygon id="menu" points="0,7 0,8.5 15,8.5 15,7 " />
            <polygon id="menu-copy" transform="rotate(90,7.5,7.75)" points="7.1525563e-012,7 -3.6379788e-012,8.5 15,8.5 15,7 " />
         </g>
      </g>
      <g id="Icon/cross-white-Mobile" transform="translate(1430)" style="fill:#ffffff">
         <g id="g210" transform="rotate(45,6.0104078,14.510408)">
            <polygon id="polygon206" points="0,7 0,8.5 15,8.5 15,7 " />
            <polygon id="polygon208" transform="rotate(90,7.5,7.75)" points="7.1525563e-012,7 -3.6379788e-012,8.5 15,8.5 15,7 " />
         </g>
      </g>
      <g id="Icon/Close-Small-red" transform="translate(1237)" style="fill:#ff1010">
         <g id="g217" transform="rotate(45,4.4497476,3.9142132)">
            <rect id="rect213" x="5" y="0" width="1" height="10" />
            <rect id="rect215" transform="rotate(90,5.5,5)" x="5" y="0" width="1" height="10" />
         </g>
      </g>
      <g id="Icon/Close-Small" transform="translate(1178)" style="fill:#000000">
         <g id="g224" transform="rotate(45,4.4497476,3.9142132)">
            <rect id="rect220" x="5" y="0" width="1" height="10" />
            <rect id="rect222" transform="rotate(90,5.5,5)" x="5" y="0" width="1" height="10" />
         </g>
      </g>
      <g id="Icon/Close-Red" transform="translate(1104)" style="fill:#ff1010">
         <g id="g231" transform="rotate(45,9.2928934,16.328427)">
            <rect id="rect227" x="10" y="0.30459601" width="1" height="20" />
            <rect id="rect229" transform="rotate(90,10.173231,10)" x="9.6732311" y="0" width="1" height="20" />
         </g>
      </g>
      <g id="Icon/Close-white" transform="translate(1030)" style="fill:#ffffff">
         <g id="g238" transform="rotate(45,8.5857867,14.62132)">
            <rect id="rect234" x="9" y="0" width="2" height="20" />
            <rect id="rect236" transform="rotate(90,10,10)" x="9" y="0" width="2" height="20" />
         </g>
      </g>
      <g id="Icon/Close" transform="translate(956)" style="fill:#000000">
         <g id="g245" transform="rotate(45,9.0857864,13.414214)">
            <rect id="rect241" x="9.625" y="0" width="2" height="20" />
            <rect id="rect243" transform="rotate(90,10.625,10)" x="9.625" y="0" width="2" height="20" />
         </g>
      </g>
        <g id="Icon/Bag-Hollow" transform="translate(808)" style="fill:#ffffff" />
      <g id="Icon/Arrow-medium-Down-white" transform="translate(660)">
         <rect id="rect273" x="0" y="0" width="24" height="24" />
         <g id="g303" transform="rotate(45,-2.4142135,18.071068)">
            <g id="Arrow" transform="translate(6)">
               <g id="g285">
                  <mask id="mask-28" fill="white">
                     <use xlink:href="#path-27" id="use275" x="0" y="0" width="100%" height="100%" />
                  </mask>
                  <use id="use278" xlink:href="#path-27" style="fill:#d8d8d8" x="0" y="0" width="100%" height="100%" />
                  <g id="Fill/Solid/WHITE" mask="url(#mask-28)" style="fill:#ffffff">
                     <g transform="translate(-15,-6.469848)" id="g282">
                        <rect x="0" y="0" width="24" height="20" id="rect280" />
                     </g>
                  </g>
               </g>
            </g>
            <g id="g301" transform="rotate(90,1,7)">
               <g id="g299">
                  <mask id="mask-30" fill="white">
                     <use xlink:href="#path-29" id="use288" x="0" y="0" width="100%" height="100%" />
                  </mask>
                  <use id="use291" xlink:href="#path-29" style="fill:#d8d8d8" x="0" y="0" width="100%" height="100%" />
                  <g id="g297" mask="url(#mask-30)" style="fill:#ffffff">
                     <g transform="translate(-15,-6.469848)" id="g295">
                        <rect x="0" y="0" width="24" height="20" id="rect293" />
                     </g>
                  </g>
               </g>
            </g>
         </g>
      </g>
      <g id="Icon/Arrow-medium-Down-Copy-2" transform="translate(586)">
         <rect id="rect306" x="0" y="0" width="24" height="24" />
         <g id="g338" transform="rotate(45,-2.4142135,18.071068)">
            <g id="g321" transform="translate(6)">
               <g id="g319">
                  <mask id="mask-32" fill="white">
                     <use xlink:href="#path-31" id="use308" x="0" y="0" width="100%" height="100%" />
                  </mask>
                  <use id="use311" xlink:href="#path-31" style="fill:#d8d8d8" x="0" y="0" width="100%" height="100%" />
                  <g id="g317" mask="url(#mask-32)" style="fill:#000000">
                     <g transform="translate(-15,-6.469848)" id="g315">
                        <rect x="0" y="0" width="24" height="20" id="rect313" />
                     </g>
                  </g>
               </g>
            </g>
            <g id="g336" transform="rotate(90,1,7)">
               <g id="g334">
                  <mask id="mask-34" fill="white">
                     <use xlink:href="#path-33" id="use323" x="0" y="0" width="100%" height="100%" />
                  </mask>
                  <use id="use326" xlink:href="#path-33" style="fill:#d8d8d8" x="0" y="0" width="100%" height="100%" />
                  <g id="g332" mask="url(#mask-34)" style="fill:#000000">
                     <g transform="translate(-15,-6.469848)" id="g330">
                        <rect x="0" y="0" width="24" height="20" id="rect328" />
                     </g>
                  </g>
               </g>
            </g>
         </g>
      </g>
      <g id="Icon/Arrow-medium-Down-Copy-1" transform="translate(512)">
         <rect id="rect341" x="0" y="0" width="24" height="24" />
         <g id="g373" transform="rotate(45,-2.4142135,18.071068)">
            <g id="g356" transform="translate(6)">
               <g id="g354">
                  <mask id="mask-36" fill="white">
                     <use xlink:href="#path-35" id="use343" x="0" y="0" width="100%" height="100%" />
                  </mask>
                  <use id="use346" xlink:href="#path-35" style="fill:#d8d8d8" x="0" y="0" width="100%" height="100%" />
                  <g id="g352" mask="url(#mask-36)" style="fill:#000000">
                     <g transform="translate(-15,-6.469848)" id="g350">
                        <rect x="0" y="0" width="24" height="20" id="rect348" />
                     </g>
                  </g>
               </g>
            </g>
            <g id="g371" transform="rotate(90,1,7)">
               <g id="g369">
                  <mask id="mask-38" fill="white">
                     <use xlink:href="#path-37" id="use358" x="0" y="0" width="100%" height="100%" />
                  </mask>
                  <use id="use361" xlink:href="#path-37" style="fill:#d8d8d8" x="0" y="0" width="100%" height="100%" />
                  <g id="g367" mask="url(#mask-38)" style="fill:#000000">
                     <g transform="translate(-15,-6.469848)" id="g365">
                        <rect x="0" y="0" width="24" height="20" id="rect363" />
                     </g>
                  </g>
               </g>
            </g>
         </g>
      </g>
      <g id="Icon/Arrow-medium-Down" transform="translate(438)">
         <rect id="rect376" x="0" y="0" width="24" height="24" />
         <g id="g408" transform="rotate(45,-2.4142135,18.071068)">
            <g id="g391" transform="translate(6)">
               <g id="g389">
                  <mask id="mask-40" fill="white">
                     <use xlink:href="#path-39" id="use378" x="0" y="0" width="100%" height="100%" />
                  </mask>
                  <use id="use381" xlink:href="#path-39" style="fill:#d8d8d8" x="0" y="0" width="100%" height="100%" />
                  <g id="g387" mask="url(#mask-40)" style="fill:#000000">
                     <g transform="translate(-15,-6.469848)" id="g385">
                        <rect x="0" y="0" width="24" height="20" id="rect383" />
                     </g>
                  </g>
               </g>
            </g>
            <g id="g406" transform="rotate(90,1,7)">
               <g id="g404">
                  <mask id="mask-42" fill="white">
                     <use xlink:href="#path-41" id="use393" x="0" y="0" width="100%" height="100%" />
                  </mask>
                  <use id="use396" xlink:href="#path-41" style="fill:#d8d8d8" x="0" y="0" width="100%" height="100%" />
                  <g id="g402" mask="url(#mask-42)" style="fill:#000000">
                     <g transform="translate(-15,-6.469848)" id="g400">
                        <rect x="0" y="0" width="24" height="20" id="rect398" />
                     </g>
                  </g>
               </g>
            </g>
         </g>
      </g>
      <g id="Icon/Arrow-Left-Copy-2-Copy-1" transform="translate(364)">
         <rect id="rect411" x="-1" y="-1" width="24" height="24" />
         <g id="g426" transform="rotate(90,8,10)">
            <g id="g424">
               <mask id="mask-44" fill="white">
                  <use xlink:href="#path-43" id="use413" x="0" y="0" width="100%" height="100%" />
               </mask>
               <use id="use416" transform="rotate(-90,10,6)" xlink:href="#path-43" style="fill:#000000;fill-rule:nonzero" x="0" y="0" width="100%" height="100%" />
               <g id="g422" mask="url(#mask-44)" style="fill:#000000">
                  <g transform="translate(-3,-6)" id="g420">
                     <rect x="0" y="0" width="24" height="24" id="rect418" />
                  </g>
               </g>
            </g>
         </g>
      </g>
      <g id="Icon/Arrow-Left-Copy-2" transform="translate(290)">
         <g id="g442" transform="rotate(90,8,10)">
            <g id="g440">
               <mask id="mask-46" fill="white">
                  <use xlink:href="#path-45" id="use429" x="0" y="0" width="100%" height="100%" />
               </mask>
               <use id="use432" transform="rotate(-90,10,6)" xlink:href="#path-45" style="fill:#000000;fill-rule:nonzero" x="0" y="0" width="100%" height="100%" />
               <g id="g438" mask="url(#mask-46)" style="fill:#000000">
                  <g transform="translate(-3,-6)" id="g436">
                     <rect x="0" y="0" width="24" height="24" id="rect434" />
                  </g>
               </g>
            </g>
         </g>
      </g>
      <g id="Icon/Arrow-Left" transform="translate(216)">
         <rect id="rect445" x="0" y="0" width="24" height="24" />
         <g id="g460" transform="rotate(90,7.5,10.5)">
            <g id="g458">
               <mask id="mask-48" fill="white">
                  <use xlink:href="#path-47" id="use447" x="0" y="0" width="100%" height="100%" />
               </mask>
               <use id="use450" transform="rotate(90,10,6)" xlink:href="#path-47" style="fill:#000000;fill-rule:nonzero" x="0" y="0" width="100%" height="100%" />
               <g id="g456" mask="url(#mask-48)" style="fill:#000000">
                  <g transform="translate(-3,-6)" id="g454">
                     <rect x="0" y="0" width="24" height="24" id="rect452" />
                  </g>
               </g>
            </g>
         </g>
      </g>
      <g id="Icon/Arrow-Down-Thin-Copy" transform="translate(142)">
         <rect id="rect463" x="0" y="0" width="24" height="24" />
         <g id="g471" transform="translate(6,4)" style="fill:#000000">
            <g transform="rotate(-45,7.389088,1.889087)" id="g469">
               <rect x="0" y="0" width="1" height="7" id="rect465" />
               <rect transform="rotate(90,3.5,6.5)" x="3" y="3" width="1" height="7" id="rect467" />
            </g>
         </g>
      </g>
      <g id="Icon/Arrow-Down-Thin" transform="translate(68)">
         <rect id="rect474" x="0" y="0" width="24" height="24" />
         <g id="g482" transform="translate(6,4)" style="fill:#000000">
            <g transform="rotate(-45,7.389088,1.889087)" id="g480">
               <rect x="0" y="0" width="1" height="7" id="rect476" />
               <rect transform="rotate(90,3.5,6.5)" x="3" y="3" width="1" height="7" id="rect478" />
            </g>
         </g>
      </g>
      <g id="icon/Search" style="fill:#000000">
         <path d="m 7.4442982,2.3783116 c 2.7700978,0 5.0275728,2.2576648 5.0275728,5.0275729 0,2.7699085 -2.257475,5.0275725 -5.0275728,5.0275725 -2.769908,0 -5.0465448,-2.238692 -5.0465448,-5.0086006 0,-2.78888 2.2576648,-5.0465448 5.0465448,-5.0465448 m 0,11.9713154 c 1.5746738,0 3.0165438,-0.531216 4.1738338,-1.403926 l 4.534302,4.534301 1.34701,-1.34701 -4.534112,-4.534301 c 0.891493,-1.157291 1.403736,-2.6181328 1.403736,-4.1738346 0,-3.8133665 -3.111213,-6.9247701 -6.9247698,-6.9247701 -3.8323385,-0.018972 -6.94374209,3.0924316 -6.94374209,6.9247701 0,3.8323386 3.11140359,6.9247706 6.94374209,6.9247706" id="path485" inkscape:connector-curvature="0" />
      </g>
        <g transform="translate(883,2)" id="g6000">
                <rect x="3" y="5" style="fill:#d0021b" width="14" height="15" id="rect5986" />
                <path inkscape:connector-curvature="0" style="fill:#d0021b" d="M 14,5 H 12 V 4.193 C 12,2.984 11.103,2 10,2 8.897,2 8,2.984 8,4.193 V 5 H 6 V 4.193 C 6,1.881 7.794,0 10,0 c 2.206,0 4,1.881 4,4.193 z" id="path5988" />
                <rect x="6" y="14" style="fill:#ffffff" width="1" height="2" id="rect5990" />
                <rect x="13" y="14" style="fill:#ffffff" width="1" height="2" id="rect5992" />
                <rect x="6" y="15" style="fill:#ffffff" width="8" height="1" id="rect5994" />
                <rect x="6" y="9" style="fill:#ffffff" width="2" height="2" id="rect5996" />
                <rect x="12" y="9" style="fill:#ffffff" width="2" height="2" id="rect5998" />
        </g>
   </g>
   <g id="g561" transform="translate(1529.6745,6.6710019)">
      <g id="g536" clip-path="url(#clip_0-2)">
         <path id="path534" d="M 16.1126,0.162192 C 16.2024,0.0731183 16.3194,0.0173062 16.4447,0.00349405 16.6123,-0.0153919 16.7791,0.0429572 16.8994,0.162192 l 4.7568,4.791958 0.0042,0.00423 c 0.2174,0.22127 0.2155,0.57841 -0.0042,0.79715 L 7.10606,20.4136 C 7.03135,20.488 6.93733,20.5398 6.83492,20.5632 L 0.679087,21.9726 C 0.598222,21.9904 0.513999,21.9898 0.433414,21.9709 0.132337,21.9005 -0.0551358,21.5977 0.014537,21.2942 L 1.41359,15.0931 C 1.43681,14.9896 1.4883,14.8949 1.56217,14.8199 Z M 16.6405,1.3612 20.6425,5.36321 18.6151,7.38213 14.6128,3.38858 Z M 17.8216,8.18411 13.8196,4.1821 2.76504,15.2364 6.76733,19.2299 Z M 5.64771,19.7058 2.29789,16.356 1.31058,20.6931 Z" transform="matrix(0.9904,0,0,0.9904,1.05469,1.7655)" inkscape:connector-curvature="0" style="fill:#000000;fill-rule:evenodd;stroke:none" />
      </g>
      <g id="g545" clip-path="url(#clip_1-9)">
         <path id="path543" d="M 16.1126,0.162192 C 16.2024,0.0731183 16.3194,0.0173062 16.4447,0.00349405 16.6123,-0.0153919 16.7791,0.0429572 16.8994,0.162192 l 4.7568,4.791958 0.0042,0.00423 c 0.2174,0.22127 0.2155,0.57841 -0.0042,0.79715 L 7.10606,20.4136 C 7.03135,20.488 6.93733,20.5398 6.83492,20.5632 L 0.679087,21.9726 C 0.598222,21.9904 0.513999,21.9898 0.433414,21.9709 0.132337,21.9005 -0.0551358,21.5977 0.014537,21.2942 L 1.41359,15.0931 C 1.43681,14.9896 1.4883,14.8949 1.56217,14.8199 Z M 16.6405,1.3612 20.6425,5.36321 18.6151,7.38213 14.6128,3.38858 Z M 17.8216,8.18411 13.8196,4.1821 2.76504,15.2364 6.76733,19.2299 Z M 5.64771,19.7058 2.29789,16.356 1.31058,20.6931 Z" transform="matrix(0.9904,0,0,0.9904,1.05469,1.7655)" stroke-miterlimit="4" inkscape:connector-curvature="0" style="fill:none;fill-rule:evenodd;stroke:#000000;stroke-width:0.5;stroke-miterlimit:4" />
      </g>
   </g>
   <g id="g595" transform="translate(1454.0813,219.08385)">
      <g id="g570" clip-path="url(#clip_0-9)">
         <path id="path568" d="m 7.5,4.08333 c 1.8261,0 3.3,1.43296 3.3,3.20834 C 10.8,9.06704 9.3261,10.5 7.5,10.5 5.6739,10.5 4.2,9.06704 4.2,7.29167 4.2,5.51629 5.6739,4.08333 7.5,4.08333 M 7.5,3.5 c -2.1504,0 -3.9,1.701 -3.9,3.79167 0,2.09066 1.7496,3.79163 3.9,3.79163 2.1504,0 3.9,-1.70097 3.9,-3.79163 C 11.4,5.201 9.6504,3.5 7.5,3.5 m 0,-2.916667 c 3.8241,0 6.9,2.790957 6.9,6.999997 0,1.48546 -0.6807,3.90627 -1.3032,5.11317 L 7.5,23.5427 1.9032,12.6965 C 1.2807,11.4896 0.6,9.06879 0.6,7.58333 0.6,3.37429 3.6756,0.583333 7.5,0.583333 M 7.5,0 C 3.3714,0 0,3.09051 0,7.57477 0,9.22229 0.684,11.62 1.3689,12.9462 l 5.8593,11.3621 c 0.0699,0.146 0.2484,0.2092 0.3987,0.1407 0.0639,-0.0285 0.1152,-0.0786 0.1449,-0.1407 L 13.6311,12.9462 C 14.316,11.62 15,9.22229 15,7.57477 15,3.09051 11.6289,0 7.5,0" inkscape:connector-curvature="0" style="fill:#000000;stroke:none" />
      </g>
      <g id="g579" clip-path="url(#clip_1-6)">
         <path id="path577" d="m 7.5,4.08333 c 1.8261,0 3.3,1.43296 3.3,3.20834 C 10.8,9.06704 9.3261,10.5 7.5,10.5 5.6739,10.5 4.2,9.06704 4.2,7.29167 4.2,5.51629 5.6739,4.08333 7.5,4.08333 M 7.5,3.5 c -2.1504,0 -3.9,1.701 -3.9,3.79167 0,2.09066 1.7496,3.79163 3.9,3.79163 2.1504,0 3.9,-1.70097 3.9,-3.79163 C 11.4,5.201 9.6504,3.5 7.5,3.5 m 0,-2.916667 c 3.8241,0 6.9,2.790957 6.9,6.999997 0,1.48546 -0.6807,3.90627 -1.3032,5.11317 L 7.5,23.5427 1.9032,12.6965 C 1.2807,11.4896 0.6,9.06879 0.6,7.58333 0.6,3.37429 3.6756,0.583333 7.5,0.583333 M 7.5,0 C 3.3714,0 0,3.09051 0,7.57477 0,9.22229 0.684,11.62 1.3689,12.9462 l 5.8593,11.3621 c 0.0699,0.146 0.2484,0.2092 0.3987,0.1407 0.0639,-0.0285 0.1152,-0.0786 0.1449,-0.1407 L 13.6311,12.9462 C 14.316,11.62 15,9.22229 15,7.57477 15,3.09051 11.6289,0 7.5,0" stroke-miterlimit="4" inkscape:connector-curvature="0" style="fill:none;stroke:#000000;stroke-width:1;stroke-miterlimit:4" />
      </g>
   </g>
   <g id="g629" transform="matrix(-1,0,0,1,1413.3732,225.39238)">
      <g id="g604" clip-path="url(#clip_0-5)">
         <path id="path602" d="m 24,8.10476 c 0,0.18783 -0.0751,0.33809 -0.2254,0.45079 l -9.0895,7.51335 c -0.1878,0.1502 -0.4128,0.1878 -0.6382,0.0751 -0.2253,-0.1127 -0.338,-0.3005 -0.338,-0.5259 v -3.907 c -3.75585,0 -9.53989,0.3006 -12.58214,5.6726 -0.11268,0.1878 -0.300469,0.3005 -0.525821,0.3005 -0.037559,0 -0.112676,0 -0.150235,-0.0376 C 0.187793,17.5715 0,17.3461 0,17.0831 0,15.0546 0.751174,11.9741 2.92958,9.34445 4.65728,7.24073 7.92488,4.72377 13.7089,4.53594 V 0.591459 c 0,-0.225399 0.1503,-0.450798 0.338,-0.5259305 0.2254,-0.1126995 0.4504,-0.075133 0.6382,0.0751325 L 23.7746,7.65396 C 23.9249,7.76666 24,7.95449 24,8.10476 Z M 14.8729,14.3408 22.4225,8.10476 14.9108,1.86872 v 3.23072 c 0,0.3381 -0.2629,0.60106 -0.6013,0.60106 C 5.67136,5.77563 2.44131,11.0349 1.50235,14.754 5.22066,10.509 10.7793,10.509 14.2723,10.509 c 0.1502,0 0.3005,0.0751 0.4128,0.1878 0.113,0.1127 0.1878,0.263 0.1878,0.4133 z" transform="matrix(-1,0,0,1,27,0)" inkscape:connector-curvature="0" style="fill:#000000;fill-rule:evenodd;stroke:none" />
      </g>
      <g id="g613" clip-path="url(#clip_1-1)">
         <path id="path611" d="m 24,8.10476 c 0,0.18783 -0.0751,0.33809 -0.2254,0.45079 l -9.0895,7.51335 c -0.1878,0.1502 -0.4128,0.1878 -0.6382,0.0751 -0.2253,-0.1127 -0.338,-0.3005 -0.338,-0.5259 v -3.907 c -3.75585,0 -9.53989,0.3006 -12.58214,5.6726 -0.11268,0.1878 -0.300469,0.3005 -0.525821,0.3005 -0.037559,0 -0.112676,0 -0.150235,-0.0376 C 0.187793,17.5715 0,17.3461 0,17.0831 0,15.0546 0.751174,11.9741 2.92958,9.34445 4.65728,7.24073 7.92488,4.72377 13.7089,4.53594 V 0.591459 c 0,-0.225399 0.1503,-0.450798 0.338,-0.5259305 0.2254,-0.1126995 0.4504,-0.075133 0.6382,0.0751325 L 23.7746,7.65396 C 23.9249,7.76666 24,7.95449 24,8.10476 Z M 14.8729,14.3408 22.4225,8.10476 14.9108,1.86872 v 3.23072 c 0,0.3381 -0.2629,0.60106 -0.6013,0.60106 C 5.67136,5.77563 2.44131,11.0349 1.50235,14.754 5.22066,10.509 10.7793,10.509 14.2723,10.509 c 0.1502,0 0.3005,0.0751 0.4128,0.1878 0.113,0.1127 0.1878,0.263 0.1878,0.4133 z" transform="matrix(-1,0,0,1,27,0)" stroke-miterlimit="4" inkscape:connector-curvature="0" style="fill:none;fill-rule:evenodd;stroke:#000000;stroke-width:0.5;stroke-miterlimit:4" />
      </g>
   </g>
   <g id="g692" transform="matrix(0.0539258,0,0,0.058615,1470.6717,6.2395602)">
      <g id="g635">
         <g id="g633">
            <path id="path631" d="M 355.6,66.16 H 15.28 C 6.841,66.16 0,73.001 0,81.44 v 208 c 0,8.439 6.841,15.28 15.28,15.28 H 355.6 c 8.439,0 15.28,-6.841 15.28,-15.28 v -208 c 0,-8.439 -6.841,-15.28 -15.28,-15.28 z m -340.32,12 H 355.6 c 1.436,0.007 2.7,0.947 3.12,2.32 L 185.44,188.72 12.16,80.48 c 0.42,-1.373 1.684,-2.313 3.12,-2.32 z M 12,94.16 136.64,172 12,270.88 Z m 346.88,195.2 c 0,1.812 -1.469,3.28 -3.28,3.28 H 15.28 c -1.811,0 -3.28,-1.469 -3.28,-3.28 v -3.2 l 135.44,-107.04 34.8,21.76 c 1.955,1.233 4.445,1.233 6.4,0 l 34.8,-21.76 135.44,107.04 z m 0,-18.48 -124.96,-98.56 124.96,-77.44 z" inkscape:connector-curvature="0" />
         </g>
      </g>
      <g id="g637" />
      <g id="g639" />
      <g id="g641" />
      <g id="g643" />
      <g id="g645" />
      <g id="g647" />
      <g id="g649" />
      <g id="g651" />
      <g id="g653" />
      <g id="g655" />
      <g id="g657" />
      <g id="g659" />
      <g id="g661" />
      <g id="g663" />
      <g id="g665" />
   </g>
   <g id="g803" transform="matrix(0.03964155,0,0,0.03964155,1502.7458,222.2057)">
      <g id="g730">
         <g id="g698">
            <g id="g696">
               <path id="path694" d="M 430.149,135.248 C 416.865,39.125 321.076,-9.818 218.873,1.642 138.071,10.701 57.512,76.03 54.168,169.447 c -2.037,57.029 14.136,99.801 68.399,111.84 23.499,-41.586 -7.569,-50.676 -12.433,-80.802 C 90.222,77.367 252.16,-6.718 336.975,79.313 c 58.732,59.583 20.033,242.77 -74.57,223.71 -90.621,-18.179 44.383,-164.005 -27.937,-192.611 -58.793,-23.286 -90.013,71.135 -62.137,118.072 -16.355,80.711 -51.557,156.709 -37.3,257.909 46.207,-33.561 61.802,-97.734 74.57,-164.704 23.225,14.136 35.659,28.758 65.268,31.038 109.195,8.48 170.267,-109.014 155.28,-217.479 z" style="fill:#010002" inkscape:connector-curvature="0" />
            </g>
         </g>
         <g id="g700" />
         <g id="g702" />
         <g id="g704" />
         <g id="g706" />
         <g id="g708" />
         <g id="g710" />
         <g id="g712" />
         <g id="g714" />
         <g id="g716" />
         <g id="g718" />
         <g id="g720" />
         <g id="g722" />
         <g id="g724" />
         <g id="g726" />
         <g id="g728" />
      </g>
      <g id="g732" />
      <g id="g734" />
      <g id="g736" />
      <g id="g738" />
      <g id="g740" />
      <g id="g742" />
      <g id="g744" />
      <g id="g746" />
      <g id="g748" />
      <g id="g750" />
      <g id="g752" />
      <g id="g754" />
      <g id="g756" />
      <g id="g758" />
      <g id="g760" />
   </g>
   <g style="fill:none;fill-rule:evenodd;stroke:none;stroke-width:1" id="Symbols-4" transform="translate(1550,224)">
      <g style="fill:#000000;fill-rule:nonzero" id="PDP/Selector---Number---Neutral---Empty" transform="translate(-11,-13)">
         <g id="noun_Email_1740158_000000" transform="translate(11,13)">
            <path inkscape:connector-curvature="0" d="M 1.8095238,0 C 0.80557736,0 0,0.90114107 0,1.9838476 V 12.008621 C 0,13.091304 0.80557736,14 1.8095238,14 H 17.190476 C 18.194468,14 19,13.091304 19,12.008621 V 1.9838476 C 19,0.90114107 18.194468,0 17.190476,0 Z m 0,0.96551691 H 17.190476 c 0.132706,0 0.261114,0.0345655 0.374639,0.0905172 l -7.478422,7.3847126 c -0.3455287,0.341093 -0.8060073,0.3411413 -1.1521692,0 L 1.4419643,1.0560341 C 1.5540416,1.0018441 1.6790345,0.9655169 1.8095238,0.96551691 Z M 0.91892141,1.8556028 6.2273178,7.0905196 1.0178571,12.498911 C 0.9491178,12.354011 0.90476188,12.189777 0.90476188,12.008621 V 1.9838476 c 0,-0.044366 0.009726,-0.085738 0.01425,-0.1282448 z m 17.16220259,0.00748 c 0.0041,0.040117 0.01402,0.078907 0.01402,0.1206896 V 12.008549 c 0,0.177365 -0.03992,0.339959 -0.106016,0.482758 L 12.793831,7.0829162 18.081033,1.8630856 Z m -5.94458,5.8685131 5.082206,5.3028121 c -0.0095,0 -0.01877,0 -0.02827,0 H 1.8095238 c -0.00724,0 -0.014024,1.69e-4 -0.021262,0 L 6.8916845,7.7391539 8.3195119,9.1497017 c 0.6712202,0.6615722 1.7109951,0.6624894 2.3820801,0 l 1.434884,-1.418103 z" id="Shape-2" />
         </g>
      </g>
   </g>
   <g style="fill:none;fill-rule:evenodd;stroke:none;stroke-width:1" id="Symbols-1" transform="translate(1600,224)">
      <g style="fill:#ffffff;fill-rule:nonzero" id="PDP/Selector---Number---Neutral---Empty-7" transform="translate(-11,-13)">
         <g id="noun_Email_1740158_000000-8" transform="translate(11,13)">
            <path inkscape:connector-curvature="0" d="M 1.8095238,0 C 0.80557736,0 0,0.90114107 0,1.9838476 V 12.008621 C 0,13.091304 0.80557736,14 1.8095238,14 H 17.190476 C 18.194468,14 19,13.091304 19,12.008621 V 1.9838476 C 19,0.90114107 18.194468,0 17.190476,0 Z m 0,0.96551691 H 17.190476 c 0.132706,0 0.261114,0.0345655 0.374639,0.0905172 l -7.478422,7.3847126 c -0.3455287,0.341093 -0.8060073,0.3411413 -1.1521692,0 L 1.4419643,1.0560341 C 1.5540416,1.0018441 1.6790345,0.9655169 1.8095238,0.96551691 Z M 0.91892141,1.8556028 6.2273178,7.0905196 1.0178571,12.498911 C 0.9491178,12.354011 0.90476188,12.189777 0.90476188,12.008621 V 1.9838476 c 0,-0.044366 0.009726,-0.085738 0.01425,-0.1282448 z m 17.16220259,0.00748 c 0.0041,0.040117 0.01402,0.078907 0.01402,0.1206896 V 12.008549 c 0,0.177365 -0.03992,0.339959 -0.106016,0.482758 L 12.793831,7.0829162 18.081033,1.8630856 Z m -5.94458,5.8685131 5.082206,5.3028121 c -0.0095,0 -0.01877,0 -0.02827,0 H 1.8095238 c -0.00724,0 -0.014024,1.69e-4 -0.021262,0 L 6.8916845,7.7391539 8.3195119,9.1497017 c 0.6712202,0.6615722 1.7109951,0.6624894 2.3820801,0 l 1.434884,-1.418103 z" id="Shape-1" />
         </g>
      </g>
   </g>
    <g id="g6122" transform="translate(0,-0.74735641)">
        <rect id="rect1362" height="15" width="14" y="7.7473564" x="739.02856" />
        <path id="path1364" d="m 750.02862,7.7473591 h -2 v -0.807 c 0,-1.209 -0.897,-2.193 -2,-2.193 -1.103,0 -2,0.984 -2,2.193 v 0.807 h -2 v -0.807 c 0,-2.312 1.794,-4.193 4,-4.193 2.206,0 4,1.881 4,4.193 z" inkscape:connector-curvature="0" />
        <rect id="rect1370" height="1" width="8" style="fill:#ffffff" y="17.747356" x="742.02856" />
        <rect id="rect1372" height="2" width="2" style="fill:#ffffff;fill-opacity:1" y="11.747356" x="742.02856" />
        <rect id="rect1374" height="2" width="2" style="fill:#ffffff" y="11.747356" x="748.02856" />
    </g>
    <g id="g6115" transform="translate(0,-0.76522636)">
        <rect style="fill:#ffffff;fill-opacity:1" id="rect1362-3" height="15" width="14" y="8" x="811.03619" />
        <path style="fill:#ffffff;fill-opacity:1" id="path1364-6" d="m 822.03624,7.7652286 h -2 v -0.807 c 0,-1.209 -0.897,-2.193 -2,-2.193 -1.103,0 -2,0.984 -2,2.193 v 0.807 h -2 v -0.807 c 0,-2.312 1.794,-4.193 4,-4.193 2.206,0 4,1.881 4,4.193 z" inkscape:connector-curvature="0" />
        <rect id="rect1370-7" height="1" width="8" style="fill:#000000;fill-opacity:1" y="17.765224" x="814.03619" />
        <rect id="rect1372-5" height="2" width="2" style="fill:#000000;fill-opacity:1" y="11.765226" x="814.03619" />
        <rect id="rect1374-3" height="2" width="2" style="fill:#000007;fill-opacity:1" y="11.765226" x="820.03619" />
    </g>
</svg>
